<svg width="80" height="80" viewBox="0 0 80 80" fill="none" xmlns="http://www.w3.org/2000/svg">
<path d="M13.6939 51.3138L9.39844 43.2359L71.4741 41.2256L66.2446 51.3138" stroke="#2D5FA6" stroke-width="4"/>
<path d="M17.2515 41.5804L11.1758 31.5186L34.2466 34.0053L41.0043 41.5804" stroke="#2D5FA6" stroke-width="4"/>
<path d="M49.6523 41.1675L50.7328 34.333H65.6761L68.5477 41.1675" stroke="#2D5FA6" stroke-width="4"/>
<path d="M3.55859 56.3968C3.55859 56.3968 9.63193 59.9216 15.7053 59.9216C21.7786 59.9216 27.8519 56.3968 27.8519 56.3968C27.8519 56.3968 33.9253 59.9213 39.9986 59.9213C46.0719 59.9213 52.1453 56.3965 52.1453 56.3965C52.1453 56.3965 58.2186 59.9215 64.292 59.9215C70.3653 59.9215 76.4386 56.3966 76.4386 56.3966" stroke="#2D5FA6" stroke-width="4"/>
</svg>
