<svg width="16" height="16" viewBox="0 0 16 16" fill="none" xmlns="http://www.w3.org/2000/svg">
<path d="M8.66536 6.00004H7.33203V4.66671H8.66536V6.00004ZM8.66536 11.3334H7.33203V7.33337H8.66536V11.3334ZM7.9987 1.33337C7.12322 1.33337 6.25631 1.50581 5.44747 1.84084C4.63864 2.17588 3.90371 2.66694 3.28465 3.286C2.03441 4.53624 1.33203 6.23193 1.33203 8.00004C1.33203 9.76815 2.03441 11.4638 3.28465 12.7141C3.90371 13.3331 4.63864 13.8242 5.44747 14.1592C6.25631 14.4943 7.12322 14.6667 7.9987 14.6667C9.76681 14.6667 11.4625 13.9643 12.7127 12.7141C13.963 11.4638 14.6654 9.76815 14.6654 8.00004C14.6654 7.12456 14.4929 6.25766 14.1579 5.44882C13.8229 4.63998 13.3318 3.90505 12.7127 3.286C12.0937 2.66694 11.3588 2.17588 10.5499 1.84084C9.74108 1.50581 8.87418 1.33337 7.9987 1.33337Z" fill="#2D5FA6"/>
</svg>
