<svg width="24" height="24" viewBox="0 0 24 24" fill="none" xmlns="http://www.w3.org/2000/svg">
<path fill-rule="evenodd" clip-rule="evenodd" d="M13.0088 5C13.0088 5.55228 12.5611 6 12.0088 6C11.4565 6 11.0088 5.55228 11.0088 5C11.0088 4.44772 11.4565 4 12.0088 4C12.5611 4 13.0088 4.44772 13.0088 5ZM13.0088 7.82929C14.174 7.41746 15.0088 6.30622 15.0088 5C15.0088 3.34315 13.6656 2 12.0088 2C10.3519 2 9.00877 3.34315 9.00877 5C9.00877 6.30622 9.84358 7.41746 11.0088 7.82929V11H9.00877V13H11.0088V17.9706C7.92587 17.7842 6.48244 16.7411 5.78964 15.8751C5.39251 15.3787 5.19672 14.8861 5.1 14.5234C5.08385 14.4628 5.07054 14.4061 5.05956 14.354L6.78514 13.8916L3.50863 11.9999L1.61694 15.2764L3.12595 14.8721C3.13843 14.9258 3.15224 14.9814 3.16753 15.0387C3.32082 15.6135 3.62502 16.3709 4.2279 17.1245C5.3628 18.5431 7.41443 19.7803 11.0088 19.9736V20L12.0088 21L13.0088 20V19.9736C16.6031 19.7803 18.6547 18.5431 19.7896 17.1245C20.3925 16.3709 20.6967 15.6135 20.85 15.0387C20.8649 14.983 20.8783 14.9288 20.8905 14.8765L22.383 15.2764L20.4913 11.9999L17.2148 13.8916L18.957 14.3584C18.9462 14.4094 18.9332 14.4645 18.9175 14.5234C18.8208 14.8861 18.625 15.3787 18.2279 15.8751C17.5351 16.7411 16.0917 17.7842 13.0088 17.9706V13H15.0088V11H13.0088V7.82929Z" fill="black"/>
</svg>
