<svg width="24" height="24" viewBox="0 0 24 24" fill="none" xmlns="http://www.w3.org/2000/svg">
<path d="M15.8671 8.9055L21.6722 5.5859C22.0804 5.35182 22.2222 4.8326 21.9858 4.42404C21.7495 4.01973 21.2253 3.87928 20.8128 4.11336L15.0077 7.43296C14.5995 7.66703 14.4577 8.18625 14.694 8.59482C14.9304 9.00339 15.4589 9.13957 15.8671 8.9055Z" fill="black"/>
<path d="M22.1406 11.1483H15.4375C14.9648 11.1483 14.5781 11.5314 14.5781 11.9995C14.5781 12.4677 14.9648 12.8507 15.4375 12.8507H22.1406C22.6133 12.8507 23 12.4677 23 11.9995C23 11.5314 22.6133 11.1483 22.1406 11.1483Z" fill="black"/>
<path d="M11.609 6.06303L6.40547 8.36122H1.85938C1.38672 8.36122 1 8.74425 1 9.21239V14.6855C1 15.1536 1.38672 15.5367 1.85938 15.5367H4V18.7584C4 19.2265 4.52734 19.5 5 19.5C5.47266 19.5 6.01645 19.2265 6.01645 18.7584V15.5367H6.40117L11.6047 17.8348C12.1538 18.0805 13 17.5759 13 16.9494V6.94939C13.0093 6.32094 12.1553 5.81864 11.609 6.06303ZM11 15.4494C9.74982 14.9482 7.94395 13.8343 6.58594 13.8343C4.53203 13.8343 3.18047 13.8343 3 13.8343V10.4494H6.5C7.41022 10.4494 9.97635 8.85584 11 8.4494V15.4494Z" fill="black"/>
<path d="M21.6724 18.4132L15.8673 15.0936C15.4591 14.8595 14.9306 15 14.6942 15.4043C14.4579 15.8086 14.5954 16.332 15.0079 16.5661L20.813 19.8857C21.2212 20.1198 21.7497 19.9836 21.986 19.575C22.2224 19.1665 22.0849 18.6473 21.6724 18.4132Z" fill="black"/>
</svg>
