<svg width="106" height="118" viewBox="0 0 106 118" fill="none" xmlns="http://www.w3.org/2000/svg">
<path d="M18 22.3823H88V104.481L18 116.201V22.3823Z" stroke="#00B7FF" stroke-width="2"/>
<path fill-rule="evenodd" clip-rule="evenodd" d="M51.0289 0.501281C50.7979 0.645335 50.9277 0.666361 51.4669 0.572268C52.4115 0.407605 52.5896 0.289156 51.8868 0.293319C51.5955 0.295193 51.2096 0.388661 51.0289 0.501281ZM53.219 0.503155C54.7328 0.829358 55.1864 1.03045 56.1664 1.80984C57.4351 2.81863 57.858 3.60135 58.0444 5.28628L58.194 6.63938L58.2251 5.43574C58.2628 3.97814 57.9115 3.1186 56.7991 1.94598C55.7937 0.885978 54.5271 0.292279 53.3285 0.318716L52.4525 0.338077L53.219 0.503155ZM49.7762 1.11684C47.589 2.38439 46.7353 5.49736 47.9527 7.76558C48.3741 8.55059 49.9711 10.0742 50.3726 10.0742C50.4926 10.0742 50.5909 10.5811 50.5909 11.2004V12.3266L48.6746 12.4617C45.4451 12.6892 45.6083 12.6053 45.4368 14.1275C45.3551 14.8538 45.3426 15.9485 45.4094 16.5601C45.4762 17.1719 45.4771 17.485 45.4116 17.256C45.2434 16.669 44.8967 16.3607 44.8967 16.7981C44.8967 17.2671 44.244 17.2571 44.2243 16.7877C44.2112 16.4769 44.184 16.4842 44.0393 16.836C43.7734 17.483 43.5505 14.9118 43.7887 13.947C43.8989 13.5009 44.1192 13.0498 44.2787 12.9444C44.4834 12.8091 44.4401 12.7858 44.1302 12.8645C43.8893 12.9257 42.953 13.0758 42.0496 13.198C39.658 13.5215 39.478 13.5727 38.9896 14.0713C38.4259 14.6464 38.402 15.8967 38.943 16.5316C39.3744 17.0381 40.6801 17.3264 42.6389 17.3476C43.2642 17.3545 43.8409 17.4603 43.9204 17.5827C44.0001 17.7051 44.5233 17.7856 45.0833 17.7621C45.6431 17.7384 47.1115 17.7908 48.3461 17.8787L50.5909 18.0384V28.4025C50.5909 36.4905 50.5307 38.7935 50.3172 38.8884C50.0981 38.9855 50.0981 39.0342 50.3172 39.1312C50.4678 39.198 50.5909 39.4245 50.5909 39.6347C50.5909 39.9357 50.279 40.0844 49.12 40.3356C48.311 40.5109 47.6036 40.6115 47.5482 40.5586C47.4928 40.5059 47.6137 40.1593 47.8167 39.7884C48.1034 39.265 48.1547 39.2305 48.0454 39.6343C47.9052 40.152 47.907 40.1527 48.3717 39.7582C48.9678 39.2521 48.9628 39.0708 48.3542 39.1133C48.0259 39.1364 47.7583 39.387 47.5244 39.8906C47.3347 40.2996 46.8629 40.9152 46.476 41.2587C46.0892 41.6019 45.7727 41.9875 45.7727 42.1151C45.7727 42.2427 46.0439 42.0618 46.375 41.7133C46.8441 41.2193 47.2793 41.0266 48.3443 40.8409C49.8349 40.5807 50.0955 40.6537 49.7416 41.232C49.6041 41.4566 49.5064 41.5006 49.5024 41.3394C49.4989 41.1896 49.3925 41.1277 49.2661 41.2018C49.1078 41.2949 49.1124 41.4235 49.2808 41.6165C49.6076 41.9908 48.6794 42.5787 47.6941 42.6216C47.041 42.6501 46.981 42.6018 47.0184 42.0803C47.0412 41.7656 46.9792 41.5078 46.8811 41.5078C46.5614 41.5078 46.1658 42.1109 46.1332 42.6482C46.0973 43.2377 45.7804 43.3741 45.7589 42.8089C45.7489 42.5445 45.6873 42.5814 45.5351 42.9432C45.4197 43.2175 45.3614 43.4761 45.4054 43.5179C45.4495 43.5598 45.9074 43.4526 46.4232 43.2796C46.9389 43.1066 47.4963 42.965 47.6619 42.965C48.0662 42.965 48.0436 43.6222 47.6223 44.1222C47.2933 44.5126 47.2896 44.5109 47.5127 44.0717C47.8669 43.3749 47.7872 43.0217 47.3958 43.5529C47.2044 43.8127 47.1023 44.1606 47.1691 44.326C47.2473 44.5199 47.0395 44.7501 46.5866 44.9718C46.1991 45.1614 45.5717 45.5411 45.1919 45.8153C44.6843 46.1821 44.4716 46.2429 44.3879 46.0447C44.3253 45.8965 44.2649 46.0095 44.2537 46.2958C44.2027 47.581 43.9525 47.5044 41.1508 45.3457C39.6744 44.208 38.3118 43.162 38.1228 43.021C37.8186 42.7943 37.8168 42.7402 38.1074 42.5527C38.2881 42.4359 38.8056 42.2431 39.2572 42.1242C40.2962 41.8509 40.3012 41.4735 39.2778 40.6167C37.8028 39.3822 33.2855 36.5118 32.8177 36.5118C32.5488 36.5118 32.59 40.8565 32.8758 42.6128C33.1208 44.1195 33.6504 45.3869 34.2238 45.8392C34.4734 46.0362 34.6692 45.9229 35.2332 45.2559L35.9327 44.4285L38.1699 47.0735C39.4002 48.5284 41.5159 50.7697 42.8709 52.0544C45.1547 54.2193 45.3347 54.4483 45.3347 55.1886C45.3347 56.1459 45.8435 56.9124 46.4786 56.9124C47.0165 56.9124 46.877 56.6991 46.2856 56.6172C45.8952 56.5633 45.3522 55.5772 45.5892 55.3522C45.6536 55.291 46.1707 55.4877 46.7383 55.7893C47.4602 56.1728 47.7322 56.433 47.6426 56.6545C47.5412 56.9055 47.5782 56.9212 47.8207 56.7301C48.0616 56.54 48.3761 56.6489 49.304 57.2432C49.9516 57.6581 51.0322 58.2624 51.7052 58.5859L52.929 59.1742L54.6618 58.2364C55.615 57.7205 57.1338 56.773 58.0372 56.1303C60.462 54.4054 64.9986 50.0938 67.5089 47.1284C68.7204 45.6973 69.7835 44.4988 69.8713 44.4651C69.9589 44.4316 70.3498 44.7872 70.7401 45.2553C71.4184 46.0695 71.4677 46.0911 71.8634 45.7506C72.6477 45.0761 73.1595 42.8822 73.3027 39.5823C73.3888 37.5978 73.3588 36.5118 73.2178 36.5118C72.644 36.5118 68.3074 39.2525 66.3595 40.8465C65.4872 41.5601 65.568 41.7577 66.9123 42.2C67.3913 42.3576 67.7831 42.6174 67.7831 42.7773C67.7831 43.117 62.3068 47.2325 59.4894 49.0101C57.7124 50.1311 55.7323 51.0556 55.5403 50.8534C55.4047 50.7108 55.03 37.4897 55.1353 36.5638C55.2227 35.7959 55.3053 35.6791 55.7606 35.6791C56.049 35.6791 56.2851 35.7728 56.2851 35.8873C56.2851 36.0018 56.1761 36.0954 56.0427 36.0954C55.9093 36.0954 55.8546 36.2301 55.9211 36.3946C55.9912 36.5684 55.8863 36.7328 55.6708 36.7868C55.3662 36.8632 55.3611 36.8842 55.643 36.904C56.0293 36.9312 58.3423 34.9291 58.5374 34.3986C58.6754 34.0237 58.1655 33.8135 57.1064 33.8085C56.3504 33.8049 56.3044 33.2962 57.0565 33.2547C57.6316 33.2233 58.2562 32.8463 58.2562 32.5311C58.2562 32.2014 57.747 32.3396 57.2028 32.8168L56.6688 33.2851L56.8077 32.7647C56.9025 32.4096 56.8243 32.4756 56.5615 32.9729C56.3497 33.3736 56.0777 33.7704 55.9571 33.8545C55.8364 33.9386 56.1485 34.0087 56.6504 34.0106C57.7117 34.0141 58.2562 34.1759 58.2562 34.4871C58.2562 34.6083 58.194 34.6484 58.118 34.5762C57.8758 34.346 57.1215 34.8641 57.2468 35.1747C57.4108 35.5808 55.8642 35.5783 55.2867 35.1714C54.866 34.8749 54.866 34.8681 55.2875 34.4948C55.6634 34.1622 55.6796 34.1607 55.4251 34.4821C55.1833 34.7871 55.1875 34.8464 55.4498 34.8464C55.6224 34.8464 55.9546 34.7088 56.1885 34.5408C56.5996 34.2452 56.5955 34.2342 56.0661 34.2038C55.765 34.1867 55.3955 34.1878 55.2448 34.2063C55.0304 34.2329 54.9711 32.6642 54.9711 26.9634C54.9711 19.206 54.931 19.4674 56.0302 20.0412C56.3114 20.1881 56.592 20.2606 56.6533 20.2023C56.809 20.0541 56.505 18.8194 56.3237 18.8637C56.2422 18.8835 55.954 18.8281 55.6829 18.7405C55.2619 18.6044 55.1901 18.4328 55.1901 17.5627C55.1901 16.5664 55.2041 16.5451 55.8285 16.5878C56.1796 16.612 56.4553 16.6784 56.4408 16.7356C56.4266 16.7929 56.5311 17.3081 56.673 17.8806C56.8151 18.453 56.9665 19.343 57.0096 19.8582C57.0955 20.884 57.6217 22.2161 58.0376 22.4605C58.1973 22.5544 58.1725 22.4203 57.9752 22.1216C57.6988 21.7034 57.1612 19.0417 57.1612 18.0914C57.1612 17.8597 57.763 17.7798 60.063 17.7065C64.4633 17.5662 66.5783 17.2392 67.1808 16.6057C67.789 15.9664 67.8426 14.6904 67.2883 14.0398C66.987 13.6859 66.5222 13.5429 65.153 13.382C64.1905 13.269 63.1902 13.0933 62.9303 12.9917C62.4769 12.8143 62.4704 12.8297 62.7647 13.366C62.9336 13.6737 63.0722 14.5109 63.0731 15.2264C63.0742 16.3126 63.0128 16.5275 62.7021 16.5275C62.4125 16.5275 62.3882 16.583 62.5926 16.7773C62.9789 17.1445 62.9125 17.5708 62.4721 17.5519C62.2432 17.5421 62.199 17.4932 62.3626 17.4305C62.5133 17.3726 62.6364 17.234 62.6364 17.1224C62.6364 17.0106 62.5312 16.9811 62.4027 17.0564C62.2743 17.132 62.031 17.0204 61.8622 16.8085C61.5751 16.4481 61.5549 16.46 61.5483 16.9958C61.5444 17.3106 61.4675 17.5683 61.3771 17.5681C61.2866 17.5679 61.2128 16.5451 61.2128 15.2953C61.2128 14.0454 61.1635 12.9769 61.1033 12.9205C61.0431 12.8643 59.6388 12.7025 57.9824 12.561L54.9711 12.3037V11.2362C54.9711 10.2438 55.0214 10.1431 55.6883 9.80169C56.0828 9.59976 56.7781 9.11015 57.2334 8.71359C57.689 8.31702 58.1178 7.99249 58.1863 7.99249C58.2549 7.99249 58.2549 8.29704 58.1863 8.66904C58.0827 9.2311 58.0996 9.2719 58.2862 8.91051C58.4426 8.60763 58.4343 8.20503 58.2588 7.58572L58.007 6.696L57.5589 7.55658C57.1452 8.35179 55.5659 9.86601 55.1507 9.86601C54.8158 9.86601 54.9551 8.05598 55.3116 7.77495C56.1358 7.12463 56.5635 5.61435 56.2402 4.49544C55.9757 3.57949 54.5011 2.16373 53.8121 2.16394C53.4483 2.16394 53.5499 2.26823 54.2212 2.58402C55.0409 2.96976 56.0661 4.22149 56.0661 4.83684C56.0661 4.95924 55.7365 5.11807 55.3338 5.18989C54.869 5.27275 54.2586 5.65661 53.6636 6.24011C53.1478 6.74596 52.5657 7.16043 52.3701 7.16105C52.1746 7.16189 51.7302 7.30323 51.3826 7.4756C50.8927 7.71853 50.6811 7.73373 50.44 7.54346C49.9409 7.14981 49.6358 6.49824 49.4803 5.49445L49.3353 4.55768L49.3062 5.51526C49.2828 6.27571 49.412 6.65021 49.9339 7.33488C50.6991 8.33909 50.8023 8.86035 50.122 8.28496C49.4462 7.71354 48.8491 6.35648 48.8437 5.37912C48.8367 4.13905 49.728 2.59172 50.8467 1.90227C51.8839 1.26318 51.5267 1.10747 50.4521 1.73053C49.7876 2.11564 48.6198 3.38464 48.6198 3.72167C48.6198 3.81285 48.465 3.995 48.2758 4.12656C48.0322 4.2956 47.9315 4.71422 47.9315 5.55586C47.9315 7.00305 48.589 8.26748 49.7149 8.98566C50.7004 9.61434 50.8708 10.0436 49.9306 9.5292C49.014 9.02772 48.0287 7.74914 47.7206 6.66145C47.1661 4.70382 48.1932 2.34775 50.1533 1.08166C50.9104 0.592668 50.6365 0.618271 49.7762 1.11684ZM52.74 2.09774C52.8979 2.1579 53.0869 2.1504 53.1597 2.08129C53.2324 2.01218 53.1032 1.96305 52.8723 1.972C52.6172 1.98199 52.5653 2.03133 52.74 2.09774ZM51.0156 2.50575C50.3638 2.89045 49.3671 4.19234 49.5738 4.38885C49.6514 4.46255 49.7149 4.41696 49.7149 4.28727C49.7149 3.84012 51.0754 2.58048 51.763 2.39105C52.2 2.27072 52.2922 2.19641 52.0145 2.18808C51.7736 2.1808 51.3241 2.32381 51.0156 2.50575ZM56.3364 3.33219C56.4798 3.63153 56.6338 3.77142 56.6789 3.64319C56.7238 3.51496 56.8506 3.46312 56.9608 3.52786C57.0709 3.5926 57.1612 3.56492 57.1612 3.46666C57.1612 3.19854 56.6739 2.78824 56.3554 2.78824C56.1331 2.78824 56.1292 2.90002 56.3364 3.33219ZM55.6748 6.11896C55.7836 6.8234 55.7534 6.83589 54.7483 6.50282L54.0221 6.26218L54.5208 5.87831C55.2308 5.33186 55.5639 5.40139 55.6748 6.11896ZM56.5799 6.46556C56.6603 6.59879 56.648 6.7393 56.553 6.77781C56.4579 6.81612 56.1684 7.19353 55.9095 7.61632C55.5766 8.15964 55.5306 8.35137 55.7525 8.2706C55.9249 8.20752 56.0661 8.27435 56.0661 8.41882C56.0661 8.59993 56.1912 8.5739 56.4689 8.33513C56.8883 7.97417 56.9912 6.70641 56.6266 6.3902C56.5206 6.29819 56.4995 6.33212 56.5799 6.46556ZM55.1279 6.97578C55.3077 7.14669 55.2017 7.36652 54.726 7.80846C54.3708 8.13862 53.9923 8.40883 53.8852 8.40883C53.7781 8.40883 53.3949 8.6453 53.0333 8.93445C52.3986 9.44218 52.3712 9.44593 52.2379 9.04645C52.0845 8.58744 52.3846 7.92254 53.0655 7.21185C53.5508 6.70537 54.7045 6.57339 55.1279 6.97578ZM52.1084 7.812C51.9674 8.06264 51.9157 8.59743 51.9902 9.03916C52.0756 9.54814 52.0077 10.0305 51.7957 10.4166C51.3982 11.1413 51.3322 11.8236 51.7083 11.3232C51.8923 11.0784 51.9159 11.1234 51.8174 11.5314C51.7484 11.8176 51.6906 12.1222 51.689 12.2079C51.6873 12.2937 51.4643 12.3566 51.1932 12.3476C50.9221 12.3387 50.8237 12.2839 50.9742 12.2262C51.1249 12.1684 51.2479 11.9361 51.2479 11.71C51.2479 11.4837 51.1509 11.3557 51.0322 11.4254C50.7871 11.5693 51.0015 10.2438 51.2508 10.0742C51.3349 10.0169 51.4551 9.52524 51.518 8.9815C51.5806 8.43755 51.7549 7.85218 51.905 7.68044C52.2976 7.23059 52.3988 7.29616 52.1084 7.812ZM52.7987 7.75288C52.5042 8.27601 52.4956 8.61699 52.7768 8.61699C53.0173 8.61699 53.3377 7.61965 53.1535 7.44458C53.0887 7.38275 52.929 7.5216 52.7987 7.75288ZM54.5751 9.79544L54.3487 10.3864L54.3314 9.68449C54.3167 9.08475 54.2661 9.02022 53.9855 9.2415C53.8014 9.38681 53.657 9.84062 53.657 10.2742C53.657 10.7967 53.4615 11.2928 53.0548 11.802C52.4396 12.572 52.108 12.6751 51.9566 12.143C51.8879 11.9007 51.9109 11.8967 52.0769 12.1215C52.3222 12.4534 52.5583 11.7978 52.5521 10.8028C52.5482 10.2089 52.5324 10.198 52.2265 10.5823C52.0497 10.8047 51.905 10.8956 51.905 10.7849C51.905 10.4064 52.6073 9.62933 53.5125 9.00607C54.3804 8.40841 54.424 8.40008 54.6088 8.79394C54.7251 9.04166 54.7118 9.43864 54.5751 9.79544ZM57.3392 9.38368C57.4971 9.44385 57.6861 9.43635 57.7588 9.36724C57.8315 9.29813 57.7023 9.249 57.4715 9.25795C57.2163 9.26794 57.1644 9.31728 57.3392 9.38368ZM54.7383 11.3752C54.7251 12.0081 54.7111 12.0204 54.5188 11.5643C54.4056 11.2959 54.3686 10.9916 54.436 10.8877C54.6603 10.5428 54.7523 10.6912 54.7383 11.3752ZM54.0169 11.777C53.6627 11.9654 53.5878 12.9844 53.912 13.2034C54.1185 13.3429 53.1789 15.6864 52.9146 15.6912C52.5232 15.6983 52.1378 14.9462 52.131 14.1624C52.1253 13.5209 52.3049 13.1532 53.0206 12.3407C53.5138 11.7808 54.019 11.3827 54.1437 11.4558C54.2827 11.5376 54.2339 11.6615 54.0169 11.777ZM51.0289 12.7658C51.0289 12.8724 50.8073 13.0002 50.5362 13.0498C50.265 13.0995 50.461 13.1528 50.9718 13.1684C51.8211 13.1942 51.8962 13.2411 51.8548 13.7172C51.8176 14.1443 51.6903 14.2405 51.1454 14.2536C50.7801 14.2624 50.3088 14.3009 50.0981 14.3392C49.8875 14.3775 49.7149 14.3298 49.7149 14.233C49.7149 14.1362 49.986 14.018 50.3172 13.9703C50.6892 13.9168 50.5217 13.8716 49.8791 13.8525C49.0859 13.8287 48.8388 13.8954 48.8388 14.1335C48.8388 14.3571 48.5745 14.4547 47.9081 14.4774C47.3962 14.4949 46.8294 14.5215 46.6488 14.5367C46.4681 14.5519 46.2478 14.4674 46.1593 14.349C46.0572 14.2122 45.9972 14.233 45.995 14.406C45.9933 14.5559 45.9096 14.6302 45.8093 14.5713C45.5647 14.4276 45.7618 13.2277 46.0585 13.0535C46.1877 12.9775 47.1866 12.8522 48.278 12.7752C49.3695 12.698 50.435 12.6209 50.6457 12.6037C50.8563 12.5864 51.0289 12.6594 51.0289 12.7658ZM58.5847 12.8909C60.5177 13.046 60.8843 13.1489 60.8843 13.5352C60.8843 13.7061 60.7934 13.7923 60.6822 13.7272C60.291 13.4973 58.2562 13.2099 57.9115 13.3356C57.3499 13.5404 57.9989 13.8144 59.054 13.8181C59.6916 13.8202 60.0026 13.923 60.0996 14.1633C60.2945 14.6464 60.1822 14.6799 59.4982 14.3427C59.1686 14.1799 58.9572 14.1366 59.0284 14.2463C59.2157 14.5344 58.8337 14.4916 58.4868 14.1855C58.247 13.9738 58.2262 13.9836 58.3756 14.2376C58.5339 14.5067 58.5081 14.5103 58.1887 14.2642C57.8747 14.0219 57.8156 14.0219 57.8009 14.2642C57.7864 14.504 57.7645 14.5045 57.6649 14.2661C57.5646 14.0265 57.5162 14.0265 57.3537 14.2661C57.1936 14.5022 57.125 14.4974 56.9454 14.2376C56.827 14.0658 56.7284 14.0223 56.7264 14.141C56.7247 14.2594 56.526 14.3564 56.2851 14.3564C56.0442 14.3564 55.8471 14.2361 55.8471 14.089C55.8471 13.9282 55.5751 13.8212 55.1666 13.8212C54.6362 13.8212 54.5155 13.7486 54.6191 13.4919C54.6923 13.3108 54.7521 13.0231 54.7521 12.8524C54.7521 12.6026 54.9761 12.5643 55.9019 12.6551C56.5341 12.7171 57.7415 12.8233 58.5847 12.8909ZM44.6777 13.0673C44.6777 13.1103 44.8255 13.2623 45.0062 13.4049C45.2754 13.6172 45.3347 13.6029 45.3347 13.3262C45.3347 13.1405 45.1869 12.9886 45.0062 12.9886C44.8255 12.9886 44.6777 13.024 44.6777 13.0673ZM61.4228 13.2107C61.1872 13.5731 61.4555 13.6499 61.756 13.3058C61.9288 13.1081 61.9454 12.9886 61.8 12.9886C61.6721 12.9886 61.5021 13.0885 61.4228 13.2107ZM43.5826 13.4049C43.5826 13.5194 43.3115 13.6143 42.9804 13.616C42.6492 13.6174 42.1317 13.6872 41.8306 13.7707C41.3601 13.9012 41.4219 13.9374 42.2686 14.0282C43.2513 14.1333 43.2544 14.136 43.3214 15.0182L43.3888 15.9029H42.3838C41.7485 15.9029 41.3376 16.0049 41.2668 16.1804C41.2051 16.3332 41.0358 16.4669 40.8904 16.4777C40.745 16.4885 40.418 16.5585 40.1635 16.6332C39.6013 16.7985 39.2776 16.2146 39.6773 15.7566C39.8645 15.5424 39.8716 15.4142 39.702 15.3147C39.5382 15.2183 39.5873 14.9454 39.8584 14.4458C40.2323 13.7565 40.3409 13.7045 41.8634 13.4838C42.7487 13.3556 43.4979 13.2386 43.5279 13.2236C43.5579 13.2088 43.5826 13.2904 43.5826 13.4049ZM66.0014 14.0321C66.52 14.5005 66.8275 15.9933 66.4942 16.4234C66.3037 16.6692 66.0938 16.6954 65.5382 16.5433C65.1466 16.4361 64.8264 16.4001 64.8264 16.4633C64.8264 16.5266 64.6942 16.4742 64.5325 16.3466C64.3709 16.2192 64.171 16.179 64.0882 16.2577C63.6471 16.6769 63.3438 16.4421 63.3326 15.6727C63.3214 14.9046 63.3576 14.8604 64.019 14.8288L64.7169 14.7955L64.0052 14.7116C63.5958 14.6633 63.2934 14.5078 63.2934 14.3454C63.2934 14.1903 63.2327 13.9133 63.1585 13.7294C63.0409 13.4378 63.1858 13.4124 64.3083 13.5294C65.0765 13.6093 65.7572 13.8115 66.0014 14.0321ZM52.343 14.054C52.343 14.3402 52.4877 14.7561 52.6645 14.9785C52.9748 15.3684 52.986 15.3644 52.986 14.8621C52.986 14.5759 52.8414 14.1597 52.6645 13.9376C52.3541 13.5475 52.343 13.5517 52.343 14.054ZM49.4959 14.2376C49.4959 14.3521 49.3973 14.4458 49.2769 14.4458C49.1564 14.4458 49.0579 14.3521 49.0579 14.2376C49.0579 14.1231 49.1564 14.0294 49.2769 14.0294C49.3973 14.0294 49.4959 14.1231 49.4959 14.2376ZM54.7083 14.2792C54.8653 14.4285 54.9608 15.0784 54.9457 15.8925C54.9317 16.6426 54.8749 17.091 54.8195 16.8893C54.7641 16.6875 54.6167 16.5824 54.4921 16.6557C54.3673 16.729 54.1881 16.6707 54.0942 16.526C53.968 16.3322 53.859 16.3769 53.6794 16.6959C53.4706 17.0666 53.5381 17.22 54.1487 17.764C54.6702 18.2286 54.763 18.3993 54.4943 18.3999C54.2921 18.4006 53.913 18.1433 53.6516 17.8285C53.1152 17.1824 53.15 16.1925 53.7578 14.8101C54.1242 13.9767 54.2917 13.8833 54.7083 14.2792ZM61.0376 14.3211C60.9178 14.6627 60.5074 14.6893 60.3762 14.3644C60.291 14.1533 60.3863 14.0667 60.6804 14.0877C60.9158 14.1046 61.0766 14.2097 61.0376 14.3211ZM45.6987 15.5386C45.638 15.6819 45.5883 15.5647 45.5883 15.2784C45.5883 14.9922 45.638 14.8752 45.6987 15.0182C45.7596 15.1614 45.7596 15.3956 45.6987 15.5386ZM46.4298 15.2907C46.4298 15.5264 46.3312 15.6615 46.2107 15.5907C46.0903 15.5199 45.9917 15.3271 45.9917 15.1621C45.9917 14.997 46.0903 14.8621 46.2107 14.8621C46.3312 14.8621 46.4298 15.0551 46.4298 15.2907ZM47.0868 15.1621C47.0868 15.3271 46.9882 15.5199 46.8678 15.5907C46.7473 15.6615 46.6488 15.5264 46.6488 15.2907C46.6488 15.0551 46.7473 14.8621 46.8678 14.8621C46.9882 14.8621 47.0868 14.997 47.0868 15.1621ZM47.7405 15.1223C47.7423 14.9793 47.8424 14.8621 47.9628 14.8621C48.0833 14.8621 48.1818 15.0407 48.1818 15.2589C48.1818 15.5532 48.0686 15.6277 47.7438 15.547C47.5029 15.487 47.3073 15.2851 47.3091 15.0979C47.3121 14.8023 47.3402 14.7988 47.5248 15.0703C47.6663 15.2784 47.7381 15.2957 47.7405 15.1223ZM58.2562 15.3948C58.2562 15.5599 58.1576 15.6948 58.0372 15.6948C57.9167 15.6948 57.8182 15.5018 57.8182 15.2662C57.8182 15.0305 57.9167 14.8954 58.0372 14.9662C58.1576 15.037 58.2562 15.2297 58.2562 15.3948ZM58.6202 15.5386C58.5595 15.6819 58.5098 15.5647 58.5098 15.2784C58.5098 14.9922 58.5595 14.8752 58.6202 15.0182C58.6811 15.1614 58.6811 15.3956 58.6202 15.5386ZM59.3512 15.3825C59.3512 15.6688 59.2527 15.9029 59.1322 15.9029C59.0118 15.9029 58.9132 15.6688 58.9132 15.3825C58.9132 15.0963 59.0118 14.8621 59.1322 14.8621C59.2527 14.8621 59.3512 15.0963 59.3512 15.3825ZM60.0083 15.3825C60.0083 15.5407 59.9097 15.7281 59.7893 15.7989C59.6646 15.8721 59.5702 15.6929 59.5702 15.3825C59.5702 15.0721 59.6646 14.8929 59.7893 14.9662C59.9097 15.037 60.0083 15.2243 60.0083 15.3825ZM61.1033 15.2791C61.1033 15.7864 60.6701 16.0462 60.65 15.5509C60.6362 15.2147 60.6143 15.2191 60.4463 15.5907C60.2746 15.9704 60.2566 15.9606 60.2426 15.4789C60.2314 15.0944 60.3464 14.9422 60.6653 14.9193C60.9596 14.8983 61.1033 15.0163 61.1033 15.2791ZM48.8388 15.2784C48.8388 15.3929 48.7403 15.4866 48.6198 15.4866C48.4994 15.4866 48.4008 15.3929 48.4008 15.2784C48.4008 15.1639 48.4994 15.0703 48.6198 15.0703C48.7403 15.0703 48.8388 15.1639 48.8388 15.2784ZM44.6048 15.6255C44.3527 15.8649 44.4451 16.1111 44.7872 16.1111C44.9679 16.1111 45.1157 15.9706 45.1157 15.7989C45.1157 15.4737 44.8566 15.3859 44.6048 15.6255ZM61.7603 15.7989C61.7603 15.9897 61.8663 16.1122 61.9958 16.0711C62.1252 16.0301 62.2312 15.9075 62.2312 15.7989C62.2312 15.6902 62.1252 15.5676 61.9958 15.5266C61.8663 15.4856 61.7603 15.608 61.7603 15.7989ZM44.6777 17.4865C44.6777 17.5315 44.5299 17.5683 44.3492 17.5683C44.1685 17.5683 44.0207 17.4775 44.0207 17.3666C44.0207 17.2558 44.1685 17.219 44.3492 17.2848C44.5299 17.3508 44.6777 17.4415 44.6777 17.4865ZM52.562 19.009C52.562 19.2888 52.3533 19.4522 51.8658 19.554L51.1693 19.6995L51.7015 19.9725L52.2335 20.2454L51.7057 20.4329C51.2672 20.5889 51.2394 20.6432 51.5414 20.7533C52.0208 20.9282 52.0079 21.3108 51.5217 21.3322C51.2718 21.3433 51.362 21.443 51.7808 21.6185L52.4229 21.8876L51.9041 22.0442C51.4109 22.193 51.405 22.2147 51.7882 22.4809C52.1695 22.7461 52.1704 22.7686 51.8051 22.9018C51.4369 23.0363 51.4372 23.0523 51.8077 23.2495C52.1787 23.4468 52.1783 23.4689 51.7974 23.7337C51.4201 23.996 51.4266 24.0207 51.9218 24.195L52.4453 24.379L51.9411 24.5312C51.4632 24.6752 51.4575 24.6979 51.8351 24.9621C52.2195 25.231 52.219 25.2462 51.8246 25.3915C51.4431 25.5318 51.4494 25.5593 51.9172 25.7973L52.4188 26.0523L51.905 26.2074L51.3912 26.3624L51.905 26.6237L52.4188 26.885L51.9277 27.0332C51.4615 27.1739 51.4569 27.1953 51.8351 27.4601C52.2195 27.7291 52.219 27.7443 51.8246 27.8896C51.4431 28.0299 51.4494 28.0574 51.9172 28.2953L52.4188 28.5503L51.905 28.7054L51.3912 28.8605L51.905 29.1217L52.4188 29.383L51.9277 29.5312C51.4615 29.6719 51.4569 29.6934 51.8351 29.9582C52.2195 30.2271 52.219 30.2423 51.8246 30.3876C51.4431 30.5279 51.4494 30.5554 51.9172 30.7933L52.4188 31.0483L51.9277 31.1966C51.4615 31.3373 51.4569 31.3587 51.8351 31.6235C52.2153 31.8896 52.2157 31.9089 51.8439 32.0459C51.4702 32.1835 51.4702 32.2008 51.8439 32.4622C52.2157 32.7227 52.2149 32.7418 51.8246 32.8857C51.4431 33.026 51.4494 33.0534 51.9172 33.2914L52.4188 33.5464L51.9277 33.6946C51.4615 33.8353 51.4569 33.8568 51.8351 34.1216C52.2153 34.3876 52.2157 34.407 51.8439 34.5439C51.4702 34.6815 51.4702 34.6988 51.8439 34.9603C52.2157 35.2207 52.2149 35.2398 51.8246 35.3837C51.4431 35.524 51.4494 35.5515 51.9172 35.7894L52.4188 36.0444L51.9277 36.1926C51.4615 36.3334 51.4569 36.3548 51.8351 36.6196C52.2153 36.8856 52.2157 36.905 51.8439 37.042C51.4792 37.1762 51.4779 37.2021 51.8252 37.4435C52.1719 37.6846 52.1702 37.7156 51.7961 37.9146C51.424 38.1124 51.4319 38.1384 51.9072 38.2818L52.4188 38.4363L51.905 38.6976L51.3912 38.9588L51.9028 39.1133C52.378 39.2567 52.3859 39.2827 52.0138 39.4805C51.6397 39.6795 51.638 39.7105 51.9847 39.9516C52.332 40.193 52.3307 40.2189 51.9661 40.3531C51.5927 40.4907 51.5927 40.508 51.9661 40.7695C52.3397 41.0309 52.3397 41.0482 51.9661 41.1858C51.5927 41.3234 51.5927 41.3407 51.9661 41.6021C52.3397 41.8636 52.3397 41.8809 51.9661 42.0185C51.5927 42.1561 51.5927 42.1734 51.9661 42.4348C52.3397 42.6963 52.3397 42.7136 51.9661 42.8512C51.5927 42.9888 51.5927 43.006 51.9661 43.2675C52.3397 43.529 52.3397 43.5462 51.9661 43.6838C51.5927 43.8214 51.5927 43.8387 51.9661 44.1002C52.3268 44.3527 52.3283 44.3831 51.9873 44.5074C51.6468 44.6316 51.6487 44.6627 52.0116 44.915C52.3894 45.1775 52.3894 45.1935 52.0116 45.3313C51.6338 45.4691 51.6338 45.4849 52.0116 45.7476C52.3894 46.0101 52.3894 46.0262 52.0116 46.164C51.6382 46.3001 51.6395 46.3222 52.0357 46.6072C52.4163 46.8811 52.4194 46.9076 52.0692 46.9136C51.8585 46.9173 51.686 47.004 51.686 47.1062C51.686 47.2084 51.8585 47.3551 52.0692 47.4324C52.4306 47.5648 52.4297 47.585 52.0539 47.7854C51.6686 47.9911 51.6686 48.0075 52.0539 48.2852C52.4262 48.5534 52.4271 48.5727 52.0692 48.579C51.8585 48.5827 51.686 48.6693 51.686 48.7715C51.686 48.8737 51.8585 49.0205 52.0692 49.0977C52.4306 49.2301 52.4297 49.2503 52.0539 49.4508C51.6686 49.6565 51.6686 49.6729 52.0539 49.9506C52.4262 50.2187 52.4271 50.2381 52.0692 50.2443C51.5243 50.2537 51.5942 50.6115 52.1752 50.7868L52.6643 50.9344L52.1408 51.1184C51.6492 51.2914 51.6413 51.3189 52.011 51.576C52.3892 51.8389 52.3892 51.8549 52.0116 51.9927C51.6382 52.1289 51.6395 52.151 52.0357 52.4359C52.4163 52.7099 52.4194 52.7363 52.0692 52.7424C51.8585 52.7461 51.686 52.809 51.686 52.8823C51.686 52.9555 51.8585 53.1398 52.0692 53.2919C52.4343 53.5553 52.4343 53.5688 52.0692 53.575C51.523 53.5846 51.5955 53.8921 52.2065 54.1567C52.6949 54.3682 52.7254 54.4847 52.7011 56.0469C52.6857 57.0375 52.5859 57.6972 52.4545 57.6764C52.3329 57.6568 51.9978 57.3221 51.7098 56.9322C50.4503 55.2279 47.1102 52.0579 44.3776 49.9741C42.0505 48.1995 38.9178 45.5611 38.6133 45.1198C38.4259 44.8477 38.2474 44.3465 38.2169 44.0061L38.1615 43.3872L38.9559 43.9982C40.7592 45.3858 41.0691 45.6946 40.7743 45.8105C40.2625 46.0114 41.3685 46.934 41.9539 46.7943C42.3308 46.7044 42.8492 46.9802 44.1494 47.9624C46.3809 49.6479 48.7749 51.1669 49.6468 51.4505C50.9799 51.8841 50.9269 52.6104 50.8441 35.0435C50.7716 19.6954 50.7845 19.0594 51.1726 18.845C51.8471 18.4722 52.562 18.5565 52.562 19.009ZM57.8261 19.1945C57.8304 19.3877 58.0863 19.8269 58.3944 20.1704C58.9481 20.7872 58.9537 20.7885 58.8528 20.2745C58.7965 19.9883 58.6824 19.5667 58.5989 19.3377C58.5155 19.1088 58.604 19.1779 58.7954 19.4912C59.065 19.9327 59.1298 20.5447 59.083 22.2072C59.0251 24.2672 59.0462 24.3798 59.6064 25.015L60.1898 25.6767L60.687 24.5368C61.2229 23.3076 61.3359 23.2232 61.7741 23.7251C62.008 23.9931 62.0087 24.0838 61.7776 24.2195C61.5829 24.3338 61.5435 24.5978 61.6513 25.0641C61.766 25.5606 61.8593 25.6653 61.9997 25.4544C62.1517 25.2265 62.1924 25.2429 62.1951 25.5339C62.1968 25.7359 61.844 26.2511 61.411 26.6789C60.9778 27.1064 60.6712 27.3119 60.7295 27.1354C60.7879 26.9588 60.6988 26.6366 60.5315 26.4191C60.3081 26.1287 60.2231 26.1033 60.2119 26.3237C60.2025 26.5071 60.1241 26.4619 60.01 26.2074C59.8845 25.9267 59.8462 26.1516 59.8928 26.8966C59.931 27.5047 60.0148 28.0524 60.0792 28.1138C60.1438 28.175 60.6414 27.8024 61.1852 27.2855C61.729 26.7686 62.2075 26.4415 62.2485 26.5587C62.2897 26.6759 62.3466 26.2094 62.3753 25.5223C62.4198 24.4494 62.349 24.1846 61.8746 23.6487C61.5709 23.3055 61.3157 22.804 61.3076 22.5344C61.2982 22.2236 61.1896 22.3872 61.0111 22.9807C60.6075 24.3236 60.2665 25.0624 60.0501 25.0624C59.6379 25.0624 59.6281 24.7993 60.0264 24.4206C60.556 23.9173 60.5575 23.6668 60.0319 23.5082C59.5065 23.3498 59.3826 22.8908 59.514 21.5912C59.6419 20.3266 59.0043 18.9281 58.2764 18.876C57.9761 18.8546 57.8208 18.9643 57.8261 19.1945ZM53.673 19.65C53.7847 19.65 53.8876 19.8607 53.9019 20.1184C53.9229 20.497 53.9599 20.4671 54.095 19.9623C54.2302 19.4574 54.2672 19.4275 54.2882 19.8061C54.3024 20.0638 54.4126 20.2745 54.5331 20.2745C54.6769 20.2745 54.7521 25.4486 54.7521 35.3806C54.7521 45.3954 54.8285 50.6222 54.9787 50.8892C55.1036 51.1107 55.4327 51.2918 55.7104 51.2918C56.2212 51.2918 58.8758 49.86 60.6434 48.631C61.1734 48.2625 61.7154 47.9619 61.8479 47.963C61.9804 47.964 62.3457 47.6678 62.6598 47.3048C63.1007 46.7947 63.3249 46.6836 63.6453 46.8156C63.8733 46.9094 64.1585 46.9717 64.2789 46.9536C64.3994 46.9357 63.3674 47.9513 61.9855 49.2106C60.6035 50.4698 59.3622 51.5 59.2271 51.5C59.0917 51.5 58.8026 51.6874 58.5847 51.9163C58.3668 52.1453 58.2737 52.3327 58.3782 52.3327C58.4827 52.3327 58.083 52.8011 57.4897 53.3735C56.8964 53.946 56.2996 54.4144 56.1631 54.4144C55.8959 54.4144 55.2273 55.0397 55.212 55.3039C55.1984 55.5373 53.359 57.7197 53.1643 57.7334C53.0738 57.7399 53 56.29 53 54.5118C53 51.3532 53.0114 51.2741 53.4928 51.0901C53.9847 50.9021 53.9844 50.9019 53.438 50.874C52.9336 50.8484 52.9249 50.8322 53.3285 50.6673L53.7665 50.4885L53.3285 50.4573C53.085 50.44 53.0127 50.3794 53.1656 50.3209C53.3169 50.2628 53.3782 50.1192 53.3018 50.0018C53.2254 49.8842 53.2987 49.7064 53.4647 49.6065C53.6964 49.4668 53.6649 49.4206 53.3285 49.4069L52.8905 49.389L53.3285 49.2101L53.7665 49.0313L53.3285 49.0134C52.9641 48.9986 52.9457 48.9616 53.219 48.7938C53.3997 48.6828 53.4614 48.5906 53.3565 48.5887C53.2514 48.5871 53.288 48.4451 53.438 48.2734C53.6636 48.015 53.6399 47.9586 53.3005 47.9465C52.919 47.9328 52.9209 47.9195 53.3285 47.7529L53.7665 47.5741L53.3285 47.5448L52.8905 47.5154L53.3285 47.3366C53.5694 47.2381 53.6375 47.1511 53.4799 47.143C53.3222 47.1351 53.2608 47.0244 53.3436 46.8969C53.4264 46.7698 53.3583 46.5839 53.1923 46.4839C52.9606 46.3443 52.9921 46.298 53.3285 46.2843L53.7665 46.2664L53.3285 46.0876L52.8905 45.9088L53.3285 45.8909C53.5707 45.8811 53.6686 45.8047 53.5475 45.7202C53.4271 45.6361 53.3285 45.4266 53.3285 45.2549C53.3285 45.0832 53.4271 44.8738 53.5475 44.7896C53.6686 44.7051 53.5707 44.6287 53.3285 44.6189L52.8905 44.601L53.3285 44.4222C53.5694 44.3238 53.6645 44.2367 53.5396 44.2286C53.415 44.2207 53.313 44.0267 53.313 43.7977C53.313 43.5687 53.415 43.3747 53.5396 43.3668C53.6645 43.3587 53.5694 43.2717 53.3285 43.1732L52.8905 42.9944L53.3285 42.965L53.7665 42.9357L53.3285 42.7569C53.0876 42.6584 53.0138 42.5714 53.1643 42.5633C53.3149 42.5554 53.438 42.4082 53.438 42.2364C53.438 42.0647 53.5613 41.9148 53.7118 41.9034C53.8625 41.8919 53.7392 41.8076 53.438 41.716C53.1121 41.6167 53.0372 41.5409 53.2532 41.5287C53.5107 41.5139 53.581 41.3809 53.4956 41.0703C53.4251 40.8138 53.5015 40.5565 53.6805 40.4489C53.9354 40.2953 53.9317 40.2642 53.657 40.2588C53.3651 40.2532 53.3651 40.2301 53.657 40.0507C53.876 39.9162 53.8942 39.8479 53.7118 39.8456C53.5613 39.8439 53.445 39.6318 53.4534 39.3741C53.468 38.9272 53.4774 38.9249 53.657 39.3221C53.7862 39.6079 53.85 39.2656 53.8607 38.2292C53.8695 37.3715 53.9706 36.7199 54.095 36.7199C54.2372 36.7199 54.2976 34.581 54.2676 30.631C54.2262 25.215 54.2072 24.9217 54.095 27.9768L53.9691 31.4116L53.8771 28.2891L53.7854 25.1665L53.657 28.0809L53.5287 30.9953L53.4347 28.6013C53.3587 26.6674 53.3173 27.1477 53.219 31.0993C53.0986 35.9389 53.0968 35.9122 53.0506 28.6013C53.0092 22.0567 53.1489 18.2099 53.389 19.2857C53.4336 19.4862 53.5615 19.65 53.673 19.65ZM55.4091 19.9369C55.4091 19.98 55.5817 20.144 55.7924 20.3012C56.1397 20.5599 56.1474 20.5526 55.8751 20.2225C55.5889 19.8757 55.4091 19.7655 55.4091 19.9369ZM60.5433 21.1536C61.0777 21.8785 60.9426 22.0252 60.3359 21.3791C59.9145 20.9305 59.8219 20.8915 59.9362 21.2113C60.0181 21.4403 60.2341 21.8487 60.4161 22.1189L60.7472 22.6102L60.9299 22.1412C61.0972 21.7109 60.6677 20.6909 60.3193 20.6909C60.2551 20.6909 60.3558 20.899 60.5433 21.1536ZM57.8182 21.2756C57.8182 21.5329 58.4255 22.2655 58.5413 22.1476C58.7069 21.979 58.2904 21.1072 58.0442 21.1072C57.92 21.1072 57.8182 21.183 57.8182 21.2756ZM62.1243 24.9063C62.0637 25.0495 62.0139 24.9323 62.0139 24.6461C62.0139 24.3598 62.0637 24.2429 62.1243 24.3859C62.1852 24.5291 62.1852 24.7633 62.1243 24.9063ZM62.4174 27.6739C62.4174 28.5776 61.8076 29.2104 60.2474 29.9259L59.1322 30.4372L59.1476 29.8836C59.16 29.4334 59.1927 29.4017 59.3221 29.7144C59.4531 30.0304 59.5251 30.0487 59.7273 29.8172C59.8624 29.6624 60.0451 29.2552 60.1329 28.9123L60.2928 28.2891L59.7844 28.7054C59.5048 28.9344 59.3574 28.9902 59.457 28.8293C59.5768 28.6359 59.5554 28.5855 59.3935 28.6806C59.2593 28.7595 59.0884 29.1721 59.0142 29.5974C58.9399 30.0227 58.8215 30.5113 58.7507 30.683C58.5946 31.0635 58.5383 31.2484 58.5026 31.5005C58.4875 31.6065 58.3026 31.7361 58.0919 31.7886C57.8813 31.8409 58.1522 31.8881 58.6942 31.8933C59.3593 31.8998 59.542 31.8515 59.2562 31.7451C58.9651 31.6368 58.9139 31.5398 59.0919 31.4351C59.4905 31.2011 59.3992 30.8906 58.968 31.0134C58.7573 31.0733 59.1268 30.8406 59.7893 30.4961C61.1953 29.7652 61.4283 29.719 61.2054 30.2146C61.1154 30.4149 61.0308 30.8104 61.0177 31.0933C61.003 31.4097 60.7969 31.701 60.4815 31.8502C60.1395 32.0124 60.0667 32.1244 60.2625 32.1872C60.7133 32.3321 61.5413 31.1154 61.5413 30.3083C61.5413 29.8545 61.7391 29.3749 62.0888 28.9798C62.4395 28.5836 62.6364 28.105 62.6364 27.6485C62.6364 27.2565 62.5871 26.936 62.5269 26.936C62.4666 26.936 62.4174 27.268 62.4174 27.6739ZM62.022 27.6645C62.0264 28.008 62.0755 28.1233 62.1311 27.9208C62.1867 27.7182 62.183 27.4372 62.123 27.2963C62.063 27.1554 62.0177 27.3211 62.022 27.6645ZM59.5659 32.8738C59.4134 33.0482 59.3442 33.2437 59.4117 33.308C59.4794 33.3724 59.6447 33.2295 59.7792 32.9908C60.0661 32.4812 59.9596 32.4229 59.5659 32.8738ZM60.2273 32.7399C60.2273 32.879 59.9561 33.2356 59.625 33.5324C59.2939 33.8293 59.1646 34.0298 59.3379 33.9777C59.7612 33.8509 60.5648 32.808 60.3769 32.6294C60.2945 32.5511 60.2273 32.6009 60.2273 32.7399ZM57.9277 35.0546C57.8532 35.1691 57.675 35.2613 57.5315 35.2596C57.3747 35.2575 57.4018 35.1757 57.5992 35.0546C58.0199 34.796 58.0957 34.796 57.9277 35.0546ZM53.5876 36.7591C53.5177 36.925 53.4658 36.8756 53.4553 36.6331C53.4459 36.4137 53.4976 36.2909 53.5703 36.36C53.643 36.4291 53.6509 36.6088 53.5876 36.7591ZM36.9029 39.255C37.7461 39.8129 38.7642 40.5378 39.1652 40.8656L39.8948 41.462L38.6462 42.0054C37.9594 42.3041 37.3175 42.5487 37.2196 42.5487C37.0367 42.5487 33.2893 37.4825 33.2893 37.2349C33.2893 37.0453 35.0545 38.032 36.9029 39.255ZM53.5889 38.1251C53.5339 38.3253 53.4888 38.1615 53.4888 37.7608C53.4888 37.3601 53.5339 37.1962 53.5889 37.3965C53.6441 37.5967 53.6441 37.9248 53.5889 38.1251ZM73.0719 37.2945C73.0152 37.3813 72.907 38.4821 72.8314 39.7405C72.7556 40.9987 72.599 42.0595 72.4832 42.0976C72.3676 42.1359 72.2727 42.3326 72.2727 42.535C72.2727 43.271 71.7894 44.2422 71.4793 44.1289C71.25 44.0452 71.2642 44.146 71.538 44.5432C71.8076 44.9343 71.8365 45.1283 71.6516 45.304C71.4668 45.4797 71.2103 45.3311 70.6464 44.721C69.5244 43.5073 69.479 43.011 70.3698 41.6862C70.7819 41.073 71.5277 39.7984 72.027 38.8537C72.5261 37.909 72.9887 37.1363 73.0546 37.1363C73.1205 37.1363 73.1284 37.2075 73.0719 37.2945ZM49.5397 37.8024C49.207 38.1186 49.2026 38.5252 49.5298 38.7173C49.6766 38.8037 49.7234 38.775 49.6417 38.6493C49.5642 38.53 49.6474 38.3168 49.8268 38.1753C50.1783 37.898 50.262 37.5526 49.9777 37.5526C49.8813 37.5526 49.6842 37.665 49.5397 37.8024ZM33.6881 39.6418C34.0394 40.6108 34.4542 41.859 34.6099 42.4157C34.7656 42.9723 35.0845 43.5972 35.3186 43.8046C35.7389 44.1768 35.7362 44.1909 35.1302 44.9131C34.7925 45.3155 34.4261 45.5917 34.316 45.527C33.8582 45.2582 33.2884 43.5431 33.0788 41.8045C32.848 39.8891 32.7755 37.6192 32.9505 37.7856C33.0048 37.8374 33.3368 38.6728 33.6881 39.6418ZM69.4898 39.8217C67.6079 41.5459 67.1663 41.8538 66.6974 41.7687C66.3911 41.7131 66.1405 41.5928 66.1405 41.5016C66.1405 41.1263 71.0925 37.7408 71.6028 37.767C71.6702 37.7706 70.7193 38.6951 69.4898 39.8217ZM36.7934 40.8388C36.7934 41.5541 37.0932 41.7341 37.3256 41.1585C37.4053 40.961 37.3203 40.6706 37.13 40.4895C36.8271 40.2018 36.7934 40.2368 36.7934 40.8388ZM38.6006 40.7961C38.8118 41.0345 38.9184 41.292 38.8381 41.3686C38.7575 41.4452 38.8065 41.5078 38.9469 41.5078C39.3477 41.5078 39.2478 41.1925 38.7097 40.7595C38.2174 40.3633 38.2172 40.3633 38.6006 40.7961ZM50.5147 41.8721C50.4378 42.6449 50.3743 44.9868 50.3734 47.0764C50.3717 51.4534 50.4578 51.3193 48.2961 50.3118C47.2975 49.8461 47.0868 49.6548 47.0868 49.2131C47.0868 48.9189 46.9302 48.4657 46.7388 48.2059C46.5327 47.9266 46.4554 47.5889 46.5491 47.3791C46.6363 47.184 46.7394 46.6093 46.7782 46.1017C46.8294 45.4321 47.004 45.0424 47.4146 44.6804C47.7258 44.406 48.0366 43.9153 48.1052 43.59C48.1772 43.2473 48.5806 42.73 49.0633 42.3613C49.5557 41.9852 49.9567 41.467 50.0425 41.0957C50.1222 40.7499 50.2926 40.467 50.421 40.467C50.5767 40.467 50.6078 40.9337 50.5147 41.8721ZM66.7301 44.9722C65.791 45.818 65.1537 46.2423 64.9397 46.1642C64.757 46.0976 64.6074 45.9704 64.6074 45.8815C64.6074 45.5973 67.7542 43.4043 67.9756 43.5342C68.0925 43.6029 67.5321 44.2501 66.7301 44.9722ZM36.7097 43.9126C36.6351 44.0979 36.6718 44.1814 36.7958 44.1085C36.9149 44.0386 37.0124 44.1329 37.0124 44.3181C37.0124 44.5034 37.1007 44.6031 37.2084 44.5398C37.4607 44.3916 37.7167 45.0138 37.5247 45.309C37.4329 45.4502 37.5102 45.4858 37.7318 45.405C37.9918 45.3101 38.0494 45.3648 37.9495 45.6119C37.8593 45.8355 37.8996 45.8975 38.0702 45.7972C38.2255 45.706 38.3264 45.7793 38.3264 45.9835C38.3264 46.1688 38.4003 46.2779 38.4907 46.2258C38.7242 46.0915 39.2071 46.6351 39.0251 46.8272C38.9419 46.9149 39.0415 46.9296 39.2461 46.8599C39.5235 46.7656 39.5838 46.8187 39.4826 47.0691C39.4037 47.2642 39.4377 47.3516 39.5634 47.2779C39.6823 47.208 39.9143 47.3281 40.0785 47.5448C40.2428 47.7615 40.4747 47.8816 40.5936 47.8116C40.7193 47.738 40.7533 47.8254 40.6744 48.0204C40.5746 48.2675 40.6322 48.3223 40.8921 48.2274C41.0864 48.1566 41.193 48.1847 41.1289 48.29C41.0647 48.3954 41.2456 48.6955 41.531 48.9572C41.8161 49.2189 42.0496 49.3792 42.0496 49.3134C42.0496 49.2476 42.1871 49.3144 42.3551 49.4622C42.5231 49.6098 42.6321 49.7774 42.5971 49.8346C42.5621 49.8919 42.6711 50.0595 42.8391 50.2071C43.0071 50.3549 43.1446 50.4217 43.1446 50.3559C43.1446 50.2901 43.3781 50.4504 43.6632 50.7121C43.9486 50.9738 44.156 51.2346 44.1243 51.2918C44.0925 51.3491 44.2042 51.5167 44.3722 51.6642C44.5402 51.812 44.6777 51.8678 44.6777 51.7885C44.6777 51.7094 44.8601 51.8445 45.0833 52.0889C45.3062 52.3333 45.5526 52.4726 45.6308 52.3983C45.7088 52.3239 45.7727 52.3627 45.7727 52.4842C45.7727 52.6056 46.0684 53.0059 46.4298 53.3735C46.7911 53.7412 47.0868 53.9816 47.0868 53.9077C47.0868 53.8338 47.2243 53.8942 47.3923 54.042C47.5603 54.1896 47.6693 54.3571 47.6343 54.4144C47.5993 54.4716 47.7083 54.6392 47.8763 54.7868C48.0443 54.9346 48.1818 55.0014 48.1818 54.9356C48.1818 54.8699 48.4153 55.0302 48.7004 55.2918C48.9858 55.5535 49.1932 55.8143 49.1614 55.8716C49.1297 55.9288 49.2414 56.0964 49.4094 56.244C49.5773 56.3918 49.7149 56.4582 49.7149 56.3918C49.7149 56.3254 50.1091 56.6535 50.5909 57.1206C51.0727 57.5877 51.4669 58.0182 51.4669 58.0771C51.4669 58.359 47.4098 55.4821 45.6503 53.9529C42.6928 51.3824 37.8954 46.4698 36.6477 44.7345C36.2016 44.1139 36.1872 43.5895 36.616 43.5895C36.7393 43.5895 36.7816 43.7348 36.7097 43.9126ZM44.555 44.0998C44.2057 44.6067 44.2885 45.4631 44.6869 45.4631C44.921 45.4631 45.5568 44.3548 45.5467 43.9642C45.543 43.8154 45.2966 43.9566 44.9992 44.2778C44.3998 44.9256 44.2668 44.7753 44.7997 44.0523C44.9871 43.7977 45.0879 43.5895 45.0237 43.5895C44.9593 43.5895 44.7484 43.8192 44.555 44.0998ZM69.6396 43.8498C69.6326 44.2024 68.204 45.6898 68.0305 45.5249C67.8074 45.3126 67.8726 45.0105 68.1116 45.1508C68.232 45.2216 68.3306 45.1279 68.3306 44.9427C68.3306 44.7574 68.4291 44.6637 68.5496 44.7345C68.67 44.8053 68.7686 44.783 68.7686 44.6849C68.7686 44.5221 69.4626 43.5987 69.5899 43.5923C69.6201 43.5908 69.6424 43.7067 69.6396 43.8498ZM46.5014 46.5454C46.6691 46.6444 46.5828 46.9026 46.2307 47.3555C45.9462 47.7213 45.8242 47.9555 45.9595 47.876C46.1142 47.7852 46.1597 47.8456 46.082 48.0381C46.0136 48.207 46.0717 48.5467 46.2105 48.7934C46.4453 49.2103 46.43 49.2249 45.9913 49.0018C45.7086 48.8579 45.5695 48.6389 45.6437 48.4547C45.7134 48.2821 45.6729 48.2034 45.5513 48.2748C45.4322 48.3448 45.3347 48.3027 45.3347 48.1816C45.3347 48.0604 45.1475 47.7831 44.9186 47.5656C44.6021 47.2648 44.4383 47.2273 44.2349 47.4095C44.0248 47.5972 44.0187 47.5531 44.2064 47.2057C44.338 46.9617 44.8183 46.4769 45.2736 46.1282C46.0802 45.5101 46.1032 45.5055 46.1781 45.9469C46.2204 46.196 46.3658 46.4652 46.5014 46.5454ZM67.1074 46.8403C66.238 47.8152 65.8946 47.9882 65.7342 47.5315C65.6777 47.3701 65.7485 47.3391 65.9302 47.4459C66.1249 47.5602 66.1773 47.5196 66.0956 47.3177C65.9675 47.0002 66.444 46.4456 66.6646 46.6553C66.7377 46.7246 66.7975 46.6199 66.7975 46.4223C66.7975 46.2248 66.8961 46.1209 67.0165 46.1917C67.137 46.2625 67.2355 46.2156 67.2355 46.0876C67.2355 45.9596 67.3341 45.9127 67.4545 45.9835C67.575 46.0543 67.6736 45.9972 67.6736 45.8569C67.6736 45.7166 67.739 45.6642 67.8192 45.7404C67.8993 45.8163 67.5789 46.3114 67.1074 46.8403ZM65.812 48.3329C65.6915 48.4147 65.2314 48.8717 64.7892 49.3484C64.3473 49.8251 63.9285 50.1606 63.8584 50.0942C63.7886 50.0278 63.7314 50.0684 63.7314 50.1844C63.7314 50.5033 62.9408 51.3037 62.7783 51.1492C62.7003 51.0749 62.6348 51.1469 62.6326 51.3091C62.6289 51.6214 60.6708 53.5295 60.6576 53.2341C60.6532 53.1389 60.5089 53.2955 60.3368 53.5817C60.1646 53.8679 60.0203 54.0176 60.0159 53.9141C60.0118 53.8107 59.8258 53.9262 59.6027 54.1706C59.3797 54.415 59.1423 54.5628 59.0753 54.4989C59.0081 54.4352 58.8883 54.5774 58.809 54.8151C58.678 55.2071 58.4375 55.3399 57.9824 55.2716C57.892 55.2581 57.8166 55.4109 57.8149 55.6114C57.812 55.9228 57.7805 55.9303 57.5992 55.6634C57.4115 55.3872 57.3865 55.3878 57.3835 55.6692C57.3817 55.8441 57.1892 56.1426 56.9555 56.3327C56.5598 56.6549 56.5245 56.6545 56.4334 56.327C56.3581 56.0552 56.3302 56.0729 56.3105 56.4049C56.2812 56.8999 54.5331 58.2616 54.5331 57.7892C54.5331 57.4868 55.33 56.6986 55.4862 56.8468C55.5641 56.9212 55.6281 56.867 55.6281 56.7267C55.6281 56.5864 55.7161 56.5231 55.8237 56.5864C55.9314 56.6497 56.0821 56.464 56.1588 56.1738C56.2352 55.8836 56.3935 55.7025 56.5105 55.7712C56.6274 55.8399 56.7231 55.7914 56.7231 55.6634C56.7231 55.5354 56.8217 55.4885 56.9422 55.5593C57.0626 55.6301 57.1612 55.5364 57.1612 55.3512C57.1612 55.1659 57.235 55.0568 57.3254 55.1088C57.4159 55.1609 57.6167 55.0726 57.772 54.9129C57.9275 54.7533 57.9978 54.6226 57.9286 54.6226C57.8594 54.6226 58.028 54.4023 58.3033 54.1329C58.5786 53.8638 58.9515 53.6912 59.1322 53.7499C59.3129 53.8084 59.3928 53.7845 59.3096 53.6968C59.1101 53.4862 59.6219 52.9674 59.8812 53.1173C59.9921 53.1814 60.0216 53.0825 59.9472 52.8979C59.8517 52.6612 59.906 52.5964 60.1314 52.6787C60.3655 52.7642 60.4112 52.6964 60.302 52.4257C60.1999 52.1726 60.2336 52.1037 60.409 52.2067C60.5501 52.2896 60.6653 52.2525 60.6653 52.1245C60.6653 51.9965 60.7533 51.9434 60.8609 52.0067C60.9686 52.07 61.1204 51.8799 61.1986 51.5843C61.3133 51.149 61.3994 51.0934 61.6508 51.2918C61.9022 51.4902 61.9883 51.4346 62.1031 50.9994C62.1813 50.7038 62.333 50.5137 62.4408 50.577C62.5483 50.6403 62.6364 50.5872 62.6364 50.4592C62.6364 50.3311 62.7349 50.2843 62.8554 50.3551C62.9758 50.4258 63.0744 50.3322 63.0744 50.1469C63.0744 49.9427 63.1753 49.8694 63.3306 49.9606C63.5012 50.0609 63.5415 49.9989 63.4513 49.7753C63.3558 49.5386 63.4101 49.4739 63.6355 49.5561C63.8696 49.6417 63.9154 49.5738 63.8061 49.3032C63.7167 49.0815 63.7435 48.9845 63.8733 49.0607C63.9922 49.1306 64.2242 49.0105 64.3884 48.7938C64.5527 48.5771 64.7846 48.457 64.9035 48.5269C65.0292 48.6006 65.0632 48.5132 64.9844 48.3181C64.8889 48.0814 64.9432 48.0167 65.1685 48.0989C65.404 48.1849 65.4506 48.1133 65.3453 47.8281C65.2077 47.4557 65.2182 47.4551 65.6166 47.8125C65.8705 48.0402 65.946 48.2419 65.812 48.3329ZM46.7937 49.2622C46.7331 49.4054 46.6834 49.2882 46.6834 49.002C46.6834 48.7157 46.7331 48.5987 46.7937 48.7418C46.8546 48.885 46.8546 49.1192 46.7937 49.2622ZM59.4726 49.9462C59.1524 50.1763 59.1088 50.312 59.2969 50.4908C59.4853 50.6698 59.6885 50.6415 60.1136 50.3769C60.4246 50.1831 60.621 49.935 60.5499 49.8255C60.3672 49.5445 59.9693 49.589 59.4726 49.9462ZM47.5822 51.2273C47.7859 51.4209 48.0259 51.5096 48.1155 51.4242C48.2052 51.3389 48.1336 51.1821 47.9565 51.0755C47.4232 50.755 47.1864 50.8511 47.5822 51.2273ZM57.1612 51.302C56.7396 51.5158 56.4439 51.7017 56.5041 51.7155C57.166 51.8643 57.406 51.8179 57.7293 51.4784C58.265 50.9157 58.0527 50.8497 57.1612 51.302ZM50.0434 52.9572C50.2613 53.1862 50.597 53.3704 50.7891 53.3667C51.0546 53.3613 51.0143 53.2613 50.6214 52.9503C49.947 52.4164 49.5331 52.4212 50.0434 52.9572ZM49.8244 53.3735C50.0423 53.6025 50.2701 53.7899 50.3303 53.7899C50.3905 53.7899 50.2613 53.6025 50.0434 53.3735C49.8255 53.1445 49.5977 52.9572 49.5375 52.9572C49.4773 52.9572 49.6065 53.1445 49.8244 53.3735ZM54.6723 53.7491C53.949 54.7414 53.9428 54.935 54.6494 54.4952C54.9542 54.3051 55.1577 54.1061 55.1014 54.0526C55.0451 53.9991 55.0889 53.7308 55.1986 53.4562C55.4787 52.7559 55.3403 52.8329 54.6723 53.7491ZM12.9762 66.217L11.3884 66.2984V70.4526V74.6069H12.0455H12.7025V73.2538V71.9007L14.9473 71.869C17.448 71.8336 17.4339 71.8347 18.1253 71.6134C19.6317 71.1311 19.8205 67.6515 18.3932 66.6773C17.787 66.2636 15.6335 66.0806 12.9762 66.217ZM25.9525 66.2545C23.8309 66.7847 22.901 68.0926 22.9006 70.5476C22.9002 73.2461 24.1713 74.5786 26.9247 74.7659C30.3916 75.0016 32.1723 73.3216 31.9259 70.0475C31.7945 68.3031 31.2021 67.2774 29.9849 66.687C29.0346 66.2264 26.9569 66.0034 25.9525 66.2545ZM87.0499 66.3762C87.0135 66.4951 86.8915 67.971 86.779 69.656C86.5687 72.7989 86.3915 73.3578 85.6055 73.3578C85.2398 73.3578 85.1942 73.5306 85.1942 74.9191V76.4804H85.9607C86.706 76.4804 86.7273 76.4579 86.7273 75.6665V74.8525L88.5341 74.7141C89.5279 74.6381 91.0308 74.6062 91.874 74.6435L93.407 74.711L93.4743 75.5957C93.5373 76.4215 93.5846 76.4804 94.186 76.4804H94.8306V74.9191C94.8306 73.4967 94.7916 73.3578 94.3926 73.3578C93.9716 73.3578 93.9545 73.219 93.9545 69.819V66.2801L91.1622 66.2632C89.6263 66.2538 88.0878 66.2268 87.7428 66.2033C87.3981 66.1795 87.0862 66.2574 87.0499 66.3762ZM0 70.4435V74.6069H0.648266H1.29631L1.36004 72.8895L1.42355 71.1721L2.19928 71.11C2.92902 71.0517 3.07794 71.1592 4.71788 72.9296C6.4349 74.7832 6.91738 75.0609 7.65215 74.6189C7.98679 74.4176 7.9638 74.387 5.39527 71.6019L4.32979 70.4466L6.10705 68.5962C7.08448 67.5784 7.8843 66.641 7.8843 66.513C7.8843 66.3848 7.5514 66.2801 7.1447 66.2801C6.49469 66.2801 6.19881 66.4959 4.70473 68.0603C3.10729 69.7328 2.95639 69.8369 2.21395 69.7777L1.42355 69.7149L1.36004 67.9975L1.29631 66.2801H0.648266H0V70.4435ZM35.9079 66.4362C35.9027 66.5222 35.8782 68.3955 35.8532 70.5996L35.8078 74.6069H36.5196H37.2314V72.8374V71.068H40.0785H42.9256V72.8374V74.6069H43.5826H44.2397V70.4435V66.2801H43.5826H42.9256V68.0495V69.819H40.0785H37.2314V68.0495V66.2801H36.5744C36.213 66.2801 35.9132 66.3502 35.9079 66.4362ZM48.4008 70.4435V74.6069H53.6616H58.9224L58.8631 70.4955L58.8037 66.3842L58.0919 66.319L57.3802 66.2536V69.8058V73.3578H55.8471H54.314V69.8058V66.2536L53.6023 66.319L52.8905 66.3842L52.8305 69.871L52.7705 73.3578H51.2427H49.7149V69.819V66.2801H49.0579H48.4008V70.4435ZM62.3444 66.4189C62.264 66.4951 62.1983 66.7724 62.1983 67.0349C62.1983 67.4891 62.2859 67.5151 64.0052 67.5728L65.812 67.6332L65.872 71.12L65.932 74.6069H66.5838H67.2355V71.068V67.5291H68.8547C70.1291 67.5291 70.5021 67.4589 70.6067 67.1998C70.9758 66.2857 70.9515 66.2801 66.6151 66.2801C64.3464 66.2801 62.4246 66.3425 62.3444 66.4189ZM74.274 70.4576L72.0047 74.6348L72.8505 74.5688C73.5736 74.5124 73.7598 74.3897 74.1343 73.7228L74.5723 72.9426L77.1124 72.9421L79.6524 72.9415L80.0475 73.7742C80.4052 74.5282 80.5193 74.6069 81.2536 74.6069H82.0646L80.0996 70.9118C77.6678 66.339 77.6286 66.2801 77.0311 66.2803C76.6185 66.2803 76.1941 66.9231 74.274 70.4576ZM97.6777 66.8958V67.5116L99.375 67.5724L101.072 67.6332L101.132 71.12L101.192 74.6069H101.839H102.485L102.545 71.12L102.605 67.6332L104.303 67.5724L106 67.5116V66.8958V66.2801H101.839H97.6777V66.8958ZM17.0012 67.6536C17.2576 67.7192 17.5778 68.0033 17.7129 68.2852C18.5432 70.0171 17.0268 70.927 13.9243 70.5586L12.7025 70.4135V68.9713V67.5291L14.6188 67.532C15.6729 67.5335 16.7449 67.5882 17.0012 67.6536ZM29.1281 67.7931C29.9789 68.1938 30.7148 69.7347 30.5694 70.8113C30.3992 72.0726 29.9172 72.8391 29.0891 73.1651C28.2175 73.5082 26.3296 73.5086 25.6557 73.1657C24.834 72.7479 24.3117 71.7066 24.3108 70.4851C24.3097 69.184 24.7418 68.2831 25.5721 67.8549C26.3042 67.4773 28.3808 67.4412 29.1281 67.7931ZM92.4215 70.4435V73.3578H90.0963C87.7873 73.3578 87.7722 73.3545 87.9189 72.8895C88.0365 72.5162 88.4169 68.9836 88.4682 67.7893C88.4763 67.6011 89.0256 67.5291 90.4504 67.5291H92.4215V70.4435ZM77.9225 69.9181C78.3944 70.774 78.7289 71.5235 78.6658 71.5834C78.5215 71.7206 75.3388 71.7287 75.3388 71.5919C75.3388 71.4654 76.9505 68.3618 77.0162 68.3618C77.0427 68.3618 77.4505 69.0621 77.9225 69.9181ZM27.6671 80.9473C25.9849 81.6428 26.1542 83.8867 27.9244 84.3565C29.3348 84.731 30.6612 83.9114 30.6612 82.6655C30.6612 81.8041 30.2871 81.2725 29.4461 80.9383C28.5554 80.5847 28.5438 80.5847 27.6671 80.9473ZM33.1522 80.7831C31.77 81.0535 31.2082 82.8729 32.1977 83.874C32.6504 84.332 32.8841 84.4006 33.8122 84.3482C34.409 84.3145 34.934 84.1808 34.9789 84.0511C35.035 83.8894 34.756 83.8482 34.091 83.9193C33.3042 84.0037 33.0341 83.9402 32.6579 83.5825C32.4029 83.3402 32.1942 82.9076 32.1942 82.6214C32.1942 82.3352 32.4029 81.9026 32.6579 81.6603C33.0328 81.3039 33.305 81.2394 34.0814 81.3224C34.803 81.3999 35.0413 81.3541 35.0413 81.1386C35.0413 80.981 34.9182 80.8507 34.7676 80.8491C34.6171 80.8476 34.2967 80.8116 34.0558 80.7691C33.8149 80.7266 33.4082 80.7329 33.1522 80.7831ZM36.1898 80.782C35.7636 80.9454 36.1004 81.2683 36.6968 81.2683C37.2161 81.2683 37.2314 81.3131 37.2314 82.8296C37.2314 84.0786 37.2971 84.3909 37.5599 84.3909C37.8227 84.3909 37.8884 84.0786 37.8884 82.8296V81.2683H38.5455C38.9835 81.2683 39.2025 81.1642 39.2025 80.9561C39.2025 80.71 38.9121 80.6473 37.8337 80.6602C37.0809 80.6692 36.3411 80.7242 36.1898 80.782ZM40.1906 80.8149C40.1289 80.8734 40.0785 81.7019 40.0785 82.6562C40.0785 84.0592 40.1414 84.3909 40.407 84.3909C40.6344 84.3909 40.7355 84.1737 40.7355 83.6854C40.7355 83.0444 40.8054 82.9676 41.4994 82.8437C41.9195 82.7688 42.363 82.5304 42.485 82.3137C42.7791 81.7914 42.4053 80.8586 41.8908 80.8314C41.6771 80.8199 41.2322 80.7876 40.9024 80.7595C40.5726 80.7314 40.2522 80.7562 40.1906 80.8149ZM44.7839 80.8692C44.0791 81.0587 43.3636 81.9821 43.3636 82.7024C43.3636 82.9403 43.6348 83.4129 43.9659 83.752C45.2616 85.0791 47.5248 84.3734 47.5248 82.6424C47.5248 81.3135 46.2351 80.4789 44.7839 80.8692ZM48.8936 80.7795C48.7052 80.8532 48.6198 81.433 48.6198 82.6387V84.3909H49.6711C50.2493 84.3909 50.8406 84.2784 50.9851 84.141C51.3526 83.7917 51.3128 83.0357 50.9102 82.7182C50.6759 82.5334 50.6422 82.3854 50.8007 82.2346C51.1115 81.9392 51.0883 81.3647 50.7552 81.1097C50.4076 80.8434 49.253 80.6388 48.8936 80.7795ZM56.0661 80.8218C56.0661 80.9198 55.7459 81.087 55.3543 81.1936C54.3892 81.4563 53.8995 82.3781 54.3366 83.1094C54.5048 83.3908 54.7904 83.686 54.9711 83.7655C55.1518 83.8448 55.5331 84.0257 55.8182 84.1675C56.1901 84.3521 56.4038 84.3613 56.5738 84.1997C56.7041 84.0759 56.9728 83.9745 57.171 83.9745C57.724 83.9745 58.2562 83.2849 58.2562 82.5681C58.2562 81.9086 57.4386 81.0601 56.8031 81.0601C56.6386 81.0601 56.5041 80.9665 56.5041 80.852C56.5041 80.7375 56.4056 80.6438 56.2851 80.6438C56.1647 80.6438 56.0661 80.7239 56.0661 80.8218ZM60.7244 80.7901C60.0212 80.9192 59.3512 81.831 59.3512 82.6589C59.3512 84.7618 62.8828 85.0816 63.425 83.028C63.6355 82.2309 63.1035 81.2585 62.2772 80.9305C61.8801 80.7729 61.4783 80.6565 61.3841 80.6721C61.2899 80.6877 60.9929 80.7408 60.7244 80.7901ZM64.7318 80.8031C64.5082 81.0158 64.5971 84.3909 64.8264 84.3909C64.9469 84.3909 65.0455 84.0734 65.0455 83.6854C65.0455 83.0444 65.1153 82.9676 65.8093 82.8437C66.7509 82.6759 67.1676 82.0612 66.8247 81.3462C66.6814 81.0474 66.3913 80.8457 66.0903 80.8359C65.8168 80.8272 65.4272 80.7897 65.2246 80.7525C65.022 80.7152 64.8004 80.7381 64.7318 80.8031ZM67.8286 80.7741C67.5058 81.0807 67.6963 81.2683 68.3306 81.2683H68.9876V82.8296C68.9876 84.0786 69.0533 84.3909 69.3161 84.3909C69.5789 84.3909 69.6446 84.0786 69.6446 82.8296V81.2683H70.3198C70.7625 81.2683 70.9639 81.1786 70.9048 81.0081C70.806 80.7244 68.0976 80.5183 67.8286 80.7741ZM72.9889 80.7926C72.2868 80.918 71.6157 81.8299 71.6157 82.6589C71.6157 83.7122 72.4195 84.3909 73.6669 84.3909C74.4878 84.3909 74.7328 84.2891 75.2098 83.7503C75.8579 83.0182 75.9137 82.5402 75.4508 81.689C75.0635 80.9771 74.0412 80.6051 72.9889 80.7926ZM76.9996 80.7999C76.9293 80.8668 76.8719 81.7019 76.8719 82.6562V84.3909H77.8419C79.355 84.3909 79.9617 83.5667 79.0456 82.7555C78.7547 82.4982 78.6759 82.3033 78.8265 82.2149C79.159 82.0194 79.1189 81.3643 78.7569 81.0785C78.4128 80.8072 77.1952 80.6142 76.9996 80.7999ZM29.6036 81.6128C30.1027 82.0421 30.1228 83.0885 29.6417 83.5938C29.1901 84.0682 28.0891 84.0873 27.5576 83.63C27.0585 83.2007 27.0383 82.1543 27.5195 81.649C27.9711 81.1746 29.072 81.1555 29.6036 81.6128ZM41.9401 81.7887C41.9401 82.0881 41.771 82.2236 41.3378 82.2708C40.8157 82.3281 40.7355 82.2638 40.7355 81.7887C40.7355 81.3137 40.8157 81.2494 41.3378 81.3066C41.771 81.3539 41.9401 81.4894 41.9401 81.7887ZM46.5093 81.5818C47.096 82.1395 47.1632 82.7369 46.705 83.3229C45.4996 84.8646 43.2024 83.304 44.3617 81.7311C44.7666 81.1815 45.9981 81.0959 46.5093 81.5818ZM50.2624 81.7887C50.2624 82.0621 50.0931 82.228 49.7696 82.2717C49.3653 82.3262 49.2769 82.2394 49.2769 81.7887C49.2769 81.338 49.3653 81.2512 49.7696 81.3058C50.0931 81.3495 50.2624 81.5154 50.2624 81.7887ZM62.4548 81.6128C63.4064 82.4314 62.5803 84.0586 61.2763 83.9348C59.9697 83.8107 59.4463 82.4567 60.3668 81.5818C60.8046 81.1657 61.9548 81.1828 62.4548 81.6128ZM66.25 81.7887C66.25 82.0881 66.0809 82.2236 65.6477 82.2708C65.1256 82.3281 65.0455 82.2638 65.0455 81.7887C65.0455 81.3137 65.1256 81.2494 65.6477 81.3066C66.0809 81.3539 66.25 81.4894 66.25 81.7887ZM74.7788 81.7311C75.938 83.304 73.6409 84.8646 72.4354 83.3229C71.707 82.3912 72.3978 81.2683 73.6996 81.2683C74.2142 81.2683 74.5412 81.4084 74.7788 81.7311ZM78.4739 81.5552C78.62 81.9172 78.2199 82.3092 77.7041 82.3092C77.4297 82.3092 77.3099 82.1512 77.3099 81.7887C77.3099 81.3786 77.421 81.2683 77.834 81.2683C78.1222 81.2683 78.4102 81.3974 78.4739 81.5552ZM56.0661 82.6214C56.0661 83.3848 55.9932 83.5582 55.6719 83.5582C55.1454 83.5582 54.7521 83.1577 54.7521 82.6214C54.7521 82.0852 55.1454 81.6846 55.6719 81.6846C55.9932 81.6846 56.0661 81.8581 56.0661 82.6214ZM57.5915 82.0872C57.8994 82.6343 57.8775 82.8475 57.4741 83.2311C56.8331 83.8402 56.5041 83.6335 56.5041 82.6214C56.5041 81.8291 56.5705 81.6846 56.9345 81.6846C57.171 81.6846 57.4667 81.8658 57.5915 82.0872ZM50.6803 83.1477C50.9812 83.4272 50.3971 83.9745 49.7977 83.9745C49.361 83.9745 49.2769 83.87 49.2769 83.3275C49.2769 82.7261 49.3193 82.6903 49.8791 82.8217C50.2103 82.8995 50.5708 83.0463 50.6803 83.1477ZM78.4194 82.9409C79.2247 83.3506 78.8086 83.9745 77.73 83.9745C77.4359 83.9745 77.3099 83.8288 77.3099 83.4889C77.3099 82.7128 77.6452 82.5471 78.4194 82.9409Z" fill="white"/>
</svg>
