<svg width="130" height="47" viewBox="0 0 130 47" fill="none" xmlns="http://www.w3.org/2000/svg">
<g clip-path="url(#clip0)">
<path d="M69.9739 2.68945H73.6267V17.7997C73.6267 18.6592 73.7357 19.3523 73.9811 19.8791C74.2264 20.4059 74.7443 20.6554 75.5894 20.6554H75.862V21.5149H72.5091C72.0184 21.5149 71.6095 21.4594 71.2824 21.3485C70.9553 21.2376 70.6827 21.0436 70.4919 20.7386C70.3011 20.4613 70.1648 20.0732 70.083 19.6018C70.0012 19.1305 69.9739 18.5206 69.9739 17.7997V12.3933H62.3958V21.5149H58.7431V6.40463C58.7431 5.54515 58.634 4.85202 58.3887 4.32524C58.1434 3.79846 57.6254 3.54894 56.7804 3.54894H56.5078V2.68945H59.8607C60.3514 2.68945 60.7603 2.7449 61.0874 2.88353C61.4145 2.99443 61.6871 3.21623 61.8779 3.49349C62.0687 3.77074 62.205 4.15889 62.2868 4.63022C62.3686 5.10155 62.3958 5.68378 62.3958 6.40463V11.1179H69.9739V2.68945Z" fill="white"/>
<path d="M89.0867 2.68945C89.5774 2.68945 89.959 2.7449 90.2861 2.88353C90.586 3.02216 90.8313 3.18851 91.0221 3.41031C91.2129 3.63211 91.322 3.85391 91.3765 4.13117C91.431 4.40842 91.4855 4.68567 91.4855 4.96292V7.37502H90.6405C90.6405 6.15511 90.3406 5.29563 89.7409 4.74112C89.1412 4.21434 88.2689 3.93709 87.1513 3.93709H82.599V11.0902H89.9045V12.3656H82.599V20.2395H87.3966C88.4325 20.2395 89.3048 20.0177 90.0135 19.5464C90.7223 19.0751 91.3492 18.2156 91.8126 16.9957L92.5759 17.2729L91.7581 19.5187C91.5401 20.1286 91.2947 20.6 90.9676 20.9604C90.6405 21.3208 90.0953 21.5149 89.332 21.5149H78.9462V6.40463C78.9462 5.54515 78.8372 4.85202 78.5918 4.32524C78.3465 3.79846 77.8286 3.54894 76.9835 3.54894H76.7109V2.68945H89.0867Z" fill="white"/>
<path d="M95.786 6.40463C95.786 5.54515 95.677 4.85202 95.4317 4.32524C95.1863 3.79846 94.6684 3.54894 93.8234 3.54894H93.5508V2.68945H101.129C102.001 2.68945 102.928 2.7449 103.909 2.82808C104.891 2.91125 105.763 3.13306 106.581 3.49348C107.399 3.82619 108.08 4.35297 108.598 5.01837C109.143 5.68378 109.388 6.57099 109.388 7.70772C109.388 8.09587 109.307 8.51175 109.143 8.92763C108.98 9.34351 108.734 9.73166 108.407 10.1198C108.08 10.4802 107.671 10.8129 107.18 11.1179C106.69 11.4229 106.117 11.6447 105.463 11.8111C106.39 11.8942 107.153 12.0883 107.753 12.3656C108.353 12.6428 108.843 12.9755 109.225 13.3914C109.607 13.8073 109.852 14.2509 109.988 14.7499C110.124 15.249 110.206 15.7758 110.206 16.3303C110.206 17.4116 109.961 18.2988 109.47 18.9919C108.98 19.685 108.353 20.2118 107.562 20.6C106.772 20.9881 105.899 21.2376 104.891 21.3763C103.909 21.5149 102.901 21.5703 101.919 21.5703H95.7588V6.40463H95.786ZM101.129 3.82619C100.911 3.82619 100.693 3.82619 100.475 3.85391C100.257 3.88164 100.093 3.90936 99.9295 3.93709C99.7387 3.96481 99.5751 3.99254 99.4115 4.02026V11.2011H101.511C102.655 11.2011 103.582 10.9238 104.318 10.3693C105.054 9.81484 105.436 8.87218 105.436 7.51364C105.436 6.82051 105.3 6.21056 105.054 5.73923C104.809 5.2679 104.482 4.87975 104.073 4.60249C103.664 4.32524 103.201 4.10344 102.683 3.99254C102.192 3.88164 101.674 3.82619 101.129 3.82619ZM101.538 20.3782C103.092 20.3782 104.264 20.0454 105.081 19.3523C105.899 18.6592 106.308 17.6888 106.308 16.4412C106.308 13.8073 104.727 12.5042 101.538 12.5042H99.4388V20.1009C99.6024 20.1563 99.7932 20.2118 100.011 20.2395C100.393 20.3227 100.856 20.3782 101.401 20.3782H101.538Z" fill="white"/>
<path d="M127.084 17.9106C127.411 18.7424 127.82 19.4078 128.311 19.9068C128.801 20.4059 129.346 20.6831 130.001 20.7663V21.4872C129.864 21.5149 129.646 21.5703 129.374 21.5981C129.101 21.6258 128.856 21.6535 128.665 21.6535C128.229 21.6535 127.738 21.5981 127.22 21.5149C126.702 21.4317 126.212 21.2654 125.694 20.9881C125.203 20.7386 124.74 20.3504 124.303 19.8791C123.867 19.4078 123.486 18.7424 123.131 17.9383L122.477 16.3303H114.981L112.664 21.5149H111.273L119.56 2.68945H120.814L127.084 17.9106ZM115.553 15.0549H121.932L118.824 7.59682L115.553 15.0549Z" fill="white"/>
<path d="M67.6567 27.7251V28.64H63.4314V41.3105H60.7873V28.64H59.3425C58.6338 28.64 58.0613 28.8341 57.6525 29.1945C57.2436 29.555 57.0255 30.1926 57.0255 31.1076H56.4258V29.3886C56.4258 29.1945 56.453 28.9727 56.5076 28.7787C56.5621 28.5846 56.6439 28.4182 56.7802 28.2519C56.9165 28.1133 57.08 27.9746 57.2981 27.8914C57.5162 27.8083 57.816 27.7528 58.1704 27.7528H67.6567V27.7251Z" fill="#0095DB"/>
<path d="M73.6272 27.7251C73.9271 27.7251 74.2815 27.7528 74.6631 27.7528C75.0447 27.7805 75.4536 27.836 75.8625 27.9469C76.2714 28.0578 76.653 28.1964 77.0347 28.3628C77.4163 28.5291 77.7707 28.7787 78.0705 29.0836C78.3704 29.3886 78.6157 29.7768 78.8065 30.2204C78.9973 30.664 79.0791 31.2185 79.0791 31.8284C79.0791 32.4107 78.9973 32.9374 78.8065 33.3533C78.6157 33.7692 78.3976 34.1296 78.0978 34.4346C77.7979 34.7396 77.4708 34.9614 77.1164 35.1555C76.7621 35.3218 76.3804 35.4604 76.0261 35.5713C75.6717 35.6545 75.3173 35.7377 75.0175 35.7654C74.6904 35.7931 74.445 35.7931 74.2269 35.7931H72.2915V41.2827H69.6474V30.359C69.6474 29.749 69.5656 29.25 69.402 28.8618C69.2385 28.4737 68.8568 28.3073 68.2299 28.3073H68.0391V27.7251H73.6272ZM73.6272 28.5569C73.4637 28.5569 73.3001 28.5569 73.1366 28.5846C72.973 28.5846 72.8367 28.6123 72.7004 28.64C72.5641 28.6678 72.4278 28.6955 72.2915 28.6955V34.9891H73.5182C73.8453 34.9891 74.1997 34.9337 74.5268 34.8505C74.8539 34.7673 75.1538 34.5732 75.3991 34.3237C75.6444 34.0742 75.8625 33.7415 76.0261 33.3256C76.1896 32.9097 76.2714 32.3829 76.2714 31.7453C76.2714 31.1076 76.1896 30.5808 76.0261 30.1926C75.8625 29.7768 75.6717 29.4441 75.4264 29.1945C75.181 28.945 74.9084 28.7787 74.5813 28.6678C74.2542 28.6123 73.9271 28.5569 73.6272 28.5569Z" fill="#0095DB"/>
<path d="M88.6716 27.7251C89.026 27.7251 89.2986 27.7805 89.5439 27.8637C89.762 27.9469 89.9528 28.0855 90.0619 28.2242C90.1982 28.3628 90.2799 28.5569 90.3345 28.7509C90.389 28.945 90.4162 29.1391 90.4162 29.3609V31.1076H89.8165C89.8165 30.2204 89.5985 29.6104 89.1623 29.2223C88.7262 28.8341 88.0992 28.64 87.2814 28.64H84.0103V33.7969H89.2713V34.7119H84.0103V40.3678H87.4722C88.2082 40.3678 88.8352 40.2015 89.3531 39.8688C89.8711 39.536 90.3072 38.9261 90.6616 38.0389L91.2068 38.233L90.6071 39.8688C90.4708 40.3124 90.2527 40.6451 90.0346 40.9223C89.7893 41.1718 89.4076 41.3105 88.8625 41.3105H81.3661V30.3867C81.3661 29.7768 81.2843 29.2777 81.1208 28.8896C80.9572 28.5014 80.5756 28.3351 79.9486 28.3351H79.7578V27.7251H88.6716Z" fill="#0095DB"/>
<path d="M93.4989 30.4144C93.4989 29.8045 93.4172 29.3054 93.2536 28.9173C93.09 28.5291 92.7084 28.3628 92.0814 28.3628H91.8906V27.7251H97.3698C97.9967 27.7251 98.6782 27.7528 99.387 27.836C100.096 27.8914 100.723 28.0578 101.322 28.3073C101.922 28.5569 102.385 28.9173 102.767 29.3886C103.149 29.8599 103.34 30.5253 103.34 31.3294C103.34 31.6066 103.285 31.9116 103.176 32.2166C103.067 32.5216 102.876 32.7988 102.658 33.0761C102.413 33.3533 102.14 33.5751 101.786 33.7969C101.431 34.0187 101.023 34.1851 100.559 34.296C101.213 34.3514 101.759 34.4901 102.222 34.6841C102.658 34.8782 103.012 35.1277 103.285 35.405C103.558 35.6822 103.721 36.0149 103.83 36.3754C103.939 36.7358 103.994 37.124 103.994 37.5121C103.994 38.2884 103.83 38.9261 103.476 39.4251C103.121 39.9242 102.658 40.3124 102.086 40.5896C101.513 40.8669 100.886 41.0609 100.15 41.1441C99.4415 41.2273 98.7055 41.2827 97.9967 41.2827H93.4989V30.4144ZM97.3425 28.5569C97.1789 28.5569 97.0154 28.5569 96.8791 28.5846C96.7428 28.5846 96.6065 28.6123 96.4975 28.64C96.3612 28.6678 96.2521 28.6955 96.1431 28.6955V33.8801H97.6696C98.4874 33.8801 99.1689 33.686 99.7141 33.2701C100.259 32.882 100.505 32.1889 100.505 31.2185C100.505 30.7194 100.423 30.2758 100.232 29.9431C100.041 29.6104 99.8231 29.3332 99.5233 29.1114C99.2234 28.9173 98.8963 28.7509 98.5147 28.6678C98.133 28.6123 97.7514 28.5569 97.3425 28.5569ZM97.6424 40.5064C98.76 40.5064 99.605 40.2569 100.205 39.7578C100.804 39.2588 101.077 38.5657 101.077 37.6507C101.077 35.7654 99.9321 34.795 97.6424 34.795H96.1158V40.2846C96.2249 40.3124 96.3612 40.3678 96.5247 40.3955C96.7973 40.451 97.1244 40.5064 97.5333 40.5064H97.6424Z" fill="#0095DB"/>
<path d="M113.859 27.7251C114.214 27.7251 114.486 27.7805 114.731 27.8637C114.95 27.9469 115.14 28.0855 115.249 28.2242C115.386 28.3628 115.467 28.5569 115.522 28.7509C115.576 28.945 115.604 29.1391 115.604 29.3609V31.1076H115.004C115.004 30.2204 114.786 29.6104 114.35 29.2223C113.914 28.8341 113.287 28.64 112.469 28.64H109.198V33.7969H114.459V34.7119H109.198V40.3678H112.66C113.396 40.3678 114.023 40.2015 114.541 39.8688C115.059 39.536 115.495 38.9261 115.849 38.0389L116.394 38.233L115.795 39.8688C115.658 40.3124 115.44 40.6451 115.222 40.9223C114.977 41.1718 114.595 41.3105 114.05 41.3105H106.554V30.3867C106.554 29.7768 106.472 29.2777 106.308 28.8896C106.145 28.5014 105.763 28.3351 105.136 28.3351H104.945V27.7251H113.859Z" fill="#0095DB"/>
<path d="M119.803 30.4144C119.803 29.8045 119.721 29.3054 119.557 28.9173C119.394 28.5291 119.012 28.3628 118.385 28.3628H118.194V27.7251H129.016V41.3105H126.372V28.64H122.011V30.3867C122.011 32.577 121.902 34.3792 121.683 35.8486C121.465 37.2903 121.193 38.4548 120.811 39.2865C120.43 40.146 119.993 40.7282 119.475 41.0887C118.957 41.4491 118.412 41.6154 117.785 41.6154C117.54 41.6154 117.295 41.5877 117.104 41.56C116.913 41.5323 116.722 41.4768 116.586 41.4214V40.7837C117.022 40.7005 117.431 40.4787 117.813 40.1737C118.194 39.8687 118.521 39.342 118.821 38.5934C119.121 37.8448 119.339 36.819 119.53 35.5159C119.721 34.2405 119.803 32.5216 119.803 30.4144Z" fill="#0095DB"/>
<path d="M41.5479 38.2887C41.5479 38.2887 32.2524 32.5219 27.2094 30.4425C22.6299 28.5572 15.6242 27.4481 12.0805 29.4721C8.26418 31.6624 8.01884 35.0726 10.036 36.8193C11.399 38.0115 14.0432 37.0134 15.4061 35.7103C17.6141 33.5754 20.5309 33.4091 27.5366 34.7676C35.0601 36.237 37.459 37.152 41.5479 38.2887Z" fill="white"/>
<path d="M42.3089 41.089C42.3089 41.089 30.969 37.6511 25.8715 36.9857C21.2374 36.3757 14.0682 36.1817 11.5603 41.8099C9.67944 46.0796 14.5861 47.8817 17.0667 44.8042C19.302 42.0317 22.137 40.895 27.18 40.7009C31.4869 40.5623 36.748 41.0336 42.3089 41.089Z" fill="white"/>
<path d="M9.8679 9.87024C9.8679 11.3119 9.8679 29.5274 9.8679 29.5274C9.8679 29.5274 7.00566 27.6976 0 27.1431C1.96268 26.5886 2.45334 25.0637 2.99853 22.4852C3.57098 19.8513 4.27972 10.0366 5.04299 7.26407C5.91529 4.13111 9.84064 1.88537 14.502 5.656C19.1906 9.39891 23.4703 13.1418 24.9151 14.6944C24.9151 13.0864 24.9151 10.7297 24.9151 10.7297H30.9394V29.9156C28.6769 26.8658 21.0988 16.053 17.446 12.2823C11.8306 6.46003 9.8679 7.54132 9.8679 9.87024Z" fill="white"/>
<path d="M28.1304 8.92768C28.1304 8.92768 27.0401 2.82812 32.9281 2.82812C38.8434 2.82812 41.6783 3.21628 43.0958 1.46959C44.7314 -0.554355 49.5563 -1.02568 49.8016 3.4658C50.047 7.95729 47.0484 9.09403 43.4229 9.09403C39.7974 9.09403 31.7559 7.65231 28.1304 8.92768Z" fill="#0095DB"/>
<path d="M32.9556 21.8474C33.0374 17.8272 33.1191 10.48 37.4534 10.6186C39.9612 10.7018 39.8249 12.5317 39.8249 15.0269C39.8249 17.5222 38.571 23.5386 40.0703 24.3149C41.5695 25.1189 42.987 25.7566 41.1061 27.032C39.2252 28.3073 37.1535 29.6659 35.8996 30.0818C34.6184 30.4976 32.792 30.8303 32.9556 21.8474Z" fill="#0095DB"/>
</g>
<defs>
<clipPath id="clip0">
<rect width="130" height="46.3566" fill="white"/>
</clipPath>
</defs>
</svg>
