<svg width="120" height="33" viewBox="0 0 120 33" fill="none" xmlns="http://www.w3.org/2000/svg">
<g clip-path="url(#clip0)">
<path d="M0 28.7703H15.8473V32.0483H0V28.7703ZM114.604 18.2474L119.6 12.7502H115.876L111.782 17.3191V12.7502H108.815V24.303H111.796V19.4367L116.175 24.303H120L114.604 18.2474ZM17.5927 19.0089C17.5127 21.1845 17.2364 21.5979 16.0291 21.5979V24.3102H16.48C19.5127 24.3102 20.2327 22.751 20.3418 19.2772L20.4727 15.4335H23.2727V24.303H26.24V12.7502H17.7964L17.5927 19.0089ZM4.71273 20.996H10.9673L12.0073 24.303H15.4764L10.8 10.4077C10.3491 9.06608 9.82545 8 8.03636 8C6.24727 8 5.70182 9.06608 5.22182 10.4077L0.32 24.303H3.57818L4.71273 20.996V20.996ZM7.88364 11.6261H7.96364L10.0582 18.2111H5.65091L7.88364 11.6261ZM77.2 14.3892H73.8909V11.1257H81.5709V8.22482H70.7782V24.303H77.2C80.7564 24.303 82.8 22.5334 82.8 19.299C82.8 16.2313 80.7273 14.3892 77.2 14.3892V14.3892ZM77.0473 21.3948H73.8909V17.2176H77.0473C78.6909 17.2176 79.6145 17.9428 79.6145 19.3062C79.6145 20.6696 78.6909 21.3948 77.0473 21.3948ZM47.7018 12.4819V8.20306H44.7418V12.4819C43.1876 12.533 41.7172 13.1972 40.6535 14.3284C39.59 15.4598 39.0201 16.9658 39.0691 18.5157C39.0161 20.0688 39.584 21.5793 40.6479 22.715C41.7116 23.8507 43.1843 24.5184 44.7418 24.5713V28.9226H47.7091V24.5713C48.4806 24.546 49.2396 24.3693 49.9424 24.051C50.6453 23.7329 51.2783 23.2795 51.8053 22.7171C52.3322 22.1545 52.7427 21.4939 53.0132 20.773C53.2838 20.052 53.409 19.285 53.3818 18.5157C53.4129 17.746 53.29 16.9777 53.0202 16.2559C52.7504 15.534 52.3391 14.873 51.8104 14.3113C51.2817 13.7497 50.646 13.2986 49.9407 12.9845C49.2352 12.6704 48.4742 12.4996 47.7018 12.4819V12.4819ZM44.7491 21.7792C43.9638 21.6932 43.2439 21.3028 42.7446 20.6923C42.2452 20.0818 42.0065 19.3001 42.08 18.5157C42.016 17.7333 42.2581 16.9565 42.7557 16.3482C43.2532 15.7398 43.9676 15.3471 44.7491 15.2522V21.7792ZM47.7164 21.7792V15.2522C48.4978 15.3471 49.2122 15.7398 49.7097 16.3482C50.2073 16.9565 50.4495 17.7333 50.3855 18.5157C50.4551 19.2993 50.215 20.079 49.7164 20.6887C49.2178 21.2983 48.5001 21.6896 47.7164 21.7792ZM64.5018 20.7566V16.8622C64.5018 14.0193 62.6909 12.2425 59.6509 12.2425C56.6109 12.2425 54.8364 14.1281 54.6909 16.0935H57.6945C57.7964 15.6728 58.2473 14.9259 59.6436 14.9259C59.9047 14.8924 60.1695 14.9198 60.4175 15.0061C60.6662 15.0924 60.8909 15.235 61.0742 15.4229C61.2575 15.6108 61.3949 15.8386 61.4749 16.0884C61.5549 16.3382 61.5753 16.6032 61.5345 16.8622H58.6255C55.9927 16.8622 54.4291 18.2474 54.4291 20.5391C54.4086 21.086 54.5034 21.631 54.7075 22.1391C54.9116 22.6471 55.2204 23.1067 55.614 23.4881C56.0074 23.8696 56.4769 24.1644 56.9919 24.3535C57.5069 24.5426 58.056 24.6217 58.6036 24.5858C59.2219 24.6182 59.8385 24.4982 60.3993 24.2364C60.96 23.9745 61.4473 23.579 61.8182 23.0846C62.0596 23.4918 62.4116 23.8224 62.8342 24.038C63.256 24.2537 63.7309 24.3456 64.2036 24.303H65.2291V21.6342C64.7273 21.6342 64.5018 21.3948 64.5018 20.7566V20.7566ZM61.5345 20.0314C61.5469 20.3171 61.4982 20.6021 61.3913 20.8676C61.2851 21.1331 61.1236 21.3732 60.9178 21.5719C60.7113 21.7706 60.4655 21.9235 60.1956 22.0205C59.9258 22.1175 59.6385 22.1563 59.3527 22.1346C58.2836 22.1346 57.44 21.7502 57.44 20.5971C57.44 19.444 58.3782 19.2772 59.1709 19.2772H61.5345V20.0314V20.0314ZM33.6291 16.2603H31.4982V12.7502H28.5309V24.303H33.68C36.9018 24.303 38.0436 22.2143 38.0436 20.2417C38.0582 17.6962 36.4582 16.2603 33.6291 16.2603ZM33.4109 21.7792H31.4982V18.8783H33.4109C34.4364 18.8783 35.0545 19.3425 35.0545 20.3288C35.0545 21.3151 34.4655 21.7792 33.4109 21.7792V21.7792ZM94.1236 20.7566V16.8622C94.1236 14.0193 92.3127 12.2425 89.2727 12.2425C86.2327 12.2425 84.4582 14.1281 84.3127 16.0935H87.3164C87.4182 15.6728 87.8691 14.9259 89.2655 14.9259C89.5266 14.8924 89.7913 14.9198 90.0393 15.0061C90.288 15.0924 90.5127 15.235 90.696 15.4229C90.8793 15.6108 91.0167 15.8386 91.0967 16.0884C91.1767 16.3382 91.1971 16.6032 91.1564 16.8622H88.2473C85.6145 16.8622 84.0509 18.2474 84.0509 20.5391C84.0306 21.086 84.1251 21.631 84.3295 22.1391C84.5331 22.6471 84.8422 23.1067 85.2356 23.4881C85.6291 23.8696 86.0989 24.1644 86.6138 24.3535C87.1287 24.5426 87.6778 24.6217 88.2255 24.5858C88.8495 24.6243 89.4735 24.5073 90.0415 24.2453C90.6087 23.9832 91.1018 23.5843 91.4764 23.0846C91.7142 23.4847 92.0596 23.8107 92.4735 24.0259C92.8873 24.2412 93.3527 24.3371 93.8182 24.303H94.8436V21.6342C94.3273 21.6342 94.1236 21.3948 94.1236 20.7566ZM91.1709 20.0314C91.1818 20.3168 91.1324 20.6012 91.0255 20.8662C90.9186 21.1312 90.7571 21.3708 90.5513 21.5693C90.3455 21.7677 90.0996 21.9206 89.8305 22.0181C89.5615 22.1155 89.2749 22.1552 88.9891 22.1346C87.92 22.1346 87.0764 21.7502 87.0764 20.5971C87.0764 19.444 88.0145 19.2772 88.8073 19.2772H91.1709V20.0314V20.0314ZM103.6 17.0508H99.5055V12.7502H96.5382V24.3102H99.5055V19.7558H103.6V24.303H106.567V12.7502H103.6V17.0508Z" fill="#EF3124"/>
</g>
<defs>
<clipPath id="clip0">
<rect width="120" height="24.6575" fill="white" transform="translate(0 8)"/>
</clipPath>
</defs>
</svg>
