<svg width="24" height="24" viewBox="0 0 24 24" fill="none" xmlns="http://www.w3.org/2000/svg">
<path d="M22.4295 18.0659H19.5085C18.555 18.0659 18.4423 17.3725 16.6914 15.7082C15.2178 14.252 14.5937 14.1393 14.2297 14.1393C13.9176 14.1393 13.7009 14.3734 13.7009 14.9281V17.1558C13.7009 17.8059 13.3195 18.0659 11.7766 18.0659C9.23694 18.0659 6.41986 16.497 4.27021 13.6019C1.08041 9.29395 0.265625 6.07815 0.265625 5.38471C0.265625 5.01199 0.542999 4.75195 0.924388 4.75195H3.5161C4.1922 4.75195 4.45224 4.95132 4.68627 5.66209C5.88245 9.15527 8.0061 12.2324 8.89889 12.2324C9.23694 12.2324 9.27161 11.955 9.27161 11.2356V7.69038C9.27161 5.96546 8.30081 5.82678 8.30081 5.18535C8.30081 4.93398 8.50017 4.75195 8.82088 4.75195H12.9815C13.5362 4.75195 13.6143 4.95132 13.6143 5.62742V10.4468C13.6143 10.9929 13.7269 11.2009 13.9783 11.2009C14.2817 11.2009 14.5591 11.0189 15.1051 10.4034C16.8127 8.52251 18.2256 5.5234 18.2256 5.5234C18.399 5.15068 18.6157 4.89064 19.2137 4.89064H21.8141C22.3255 4.89064 22.5509 5.16801 22.4469 5.66209C22.1522 7.05762 19.1531 11.2789 19.1531 11.2789C18.8757 11.7123 18.7543 11.955 19.1531 12.3711C19.4304 12.7265 20.3059 13.4979 20.8433 14.2173C22.1522 15.6042 23.0016 16.7744 23.0016 17.4331C23.0016 17.9272 22.7243 18.0659 22.4295 18.0659Z" fill="#2D5FA6"/>
</svg>
