<svg width="80" height="80" viewBox="0 0 80 80" fill="none" xmlns="http://www.w3.org/2000/svg">
<path d="M22 57.0645C22 58.9629 21.3747 61.1209 20.3147 63.3775C19.2631 65.6165 17.8418 67.8306 16.3886 69.8073C14.9394 71.7785 13.4857 73.477 12.3927 74.6835C12.2557 74.8347 12.1246 74.978 12 75.113C11.8754 74.978 11.7443 74.8347 11.6073 74.6835C10.5143 73.477 9.06061 71.7785 7.61139 69.8073C6.15818 67.8306 4.73687 65.6165 3.68526 63.3775C2.62532 61.1209 2 58.9629 2 57.0645C2 51.4959 6.48725 47 12 47C17.5128 47 22 51.4959 22 57.0645Z" stroke="#2D5FA6" stroke-width="4"/>
<circle cx="12" cy="57" r="4" fill="#2D5FA6"/>
<path d="M51 28C51 28 55.2162 36 64.3514 36C73.4865 36 77 28 77 28" stroke="#2D5FA6" stroke-width="4"/>
<path d="M64 36.9286L64 17" stroke="#2D5FA6" stroke-width="4"/>
<path d="M54.1719 28.8818L50.8813 28.0001L49.9996 31.2907" stroke="#2D5FA6" stroke-width="4"/>
<path d="M73 28.936L76.4931 28.0001L77.429 31.4931" stroke="#2D5FA6" stroke-width="4"/>
<line x1="58" y1="24" x2="70" y2="24" stroke="#2D5FA6" stroke-width="4"/>
<circle cx="64" cy="13" r="4" stroke="#2D5FA6" stroke-width="4"/>
<path d="M29 64H47.5806C50.5737 64 53 61.5737 53 58.5806V58.5806C53 55.5876 50.5737 53.1613 47.5806 53.1613H39.6333C36.5512 53.1613 34.0526 50.6627 34.0526 47.5806V47.5806C34.0526 44.4985 36.5512 42 39.6333 42H51.9895" stroke="#2D5FA6" stroke-width="4"/>
</svg>
