<svg width="80" height="80" viewBox="0 0 80 80" fill="none" xmlns="http://www.w3.org/2000/svg">
<path d="M3.55859 68.3968C3.55859 68.3968 9.63193 71.9216 15.7053 71.9216C21.7786 71.9216 27.8519 68.3968 27.8519 68.3968C27.8519 68.3968 33.9253 71.9213 39.9986 71.9213C46.0719 71.9213 52.1453 68.3965 52.1453 68.3965C52.1453 68.3965 58.2186 71.9215 64.292 71.9215C70.3653 71.9215 76.4386 68.3966 76.4386 68.3966" stroke="#2D5FA6" stroke-width="4"/>
<path d="M22 62V45C22 42.2386 19.7614 40 17 40H10C7.23858 40 5 42.2386 5 45V64" stroke="#2D5FA6" stroke-width="4"/>
<path d="M75 64V45C75 42.2386 72.7614 40 70 40H63C60.2386 40 58 42.2386 58 45V62" stroke="#2D5FA6" stroke-width="4"/>
<path d="M15 40L30.7909 30.8831L34.6856 37.6289C25.3546 43.0161 21.5 47 21.5 47" stroke="#2D5FA6" stroke-width="4"/>
<path d="M29 32.5L24 24" stroke="#2D5FA6" stroke-width="4"/>
<path d="M51 32.5L56 24" stroke="#2D5FA6" stroke-width="4"/>
<path d="M64.9258 40.0464L49.257 31L45.3526 37.7625C54.6115 43.1081 58.501 47 58.501 47" stroke="#2D5FA6" stroke-width="4"/>
<circle cx="23" cy="22" r="4" fill="#2D5FA6"/>
<circle cx="56" cy="23" r="4" fill="#2D5FA6"/>
</svg>
