<svg width="112" height="24" viewBox="0 0 112 24" fill="none" xmlns="http://www.w3.org/2000/svg">
<path d="M0 19.4405H14.7908V22.5086H0V19.4405ZM106.963 9.59127L111.627 4.44606H108.151L104.33 8.72242V4.44606H101.56V15.2592H104.343V10.7045L108.43 15.2592H112L106.963 9.59127ZM16.4199 10.304C16.3452 12.3404 16.0873 12.7273 14.9605 12.7273V15.2659H15.3813C18.2119 15.2659 18.8839 13.8065 18.9857 10.5552L19.1079 6.95758H21.7212V15.2592H24.4907V4.44606H16.6099L16.4199 10.304ZM4.39855 12.1639H10.2361L11.2068 15.2592H14.4446L10.08 2.25358C9.65915 0.997818 9.17042 0 7.50061 0C5.83079 0 5.3217 0.997818 4.8737 2.25358L0.298667 15.2592H3.33964L4.39855 12.1639V12.1639ZM7.35806 3.39394H7.43273L9.38764 9.55733H5.27418L7.35806 3.39394ZM72.0533 5.98012H68.9648V2.92558H76.1329V0.210425H66.0596V15.2592H72.0533C75.3726 15.2592 77.28 13.6029 77.28 10.5755C77.28 7.70424 75.3455 5.98012 72.0533 5.98012V5.98012ZM71.9108 12.5372H68.9648V8.62739H71.9108C73.4449 8.62739 74.3069 9.30618 74.3069 10.5823C74.3069 11.8584 73.4449 12.5372 71.9108 12.5372ZM44.5217 4.19491V0.19006H41.759V4.19491C40.3084 4.24276 38.936 4.8644 37.9433 5.92324C36.9506 6.98215 36.4187 8.39172 36.4645 9.84242C36.4151 11.2961 36.9451 12.7099 37.938 13.7728C38.9309 14.8358 40.3053 15.4608 41.759 15.5103V19.583H44.5285V15.5103C45.2485 15.4866 45.9569 15.3212 46.6129 15.0233C47.269 14.7256 47.8598 14.3012 48.3516 13.7748C48.8434 13.2482 49.2265 12.6299 49.479 11.9552C49.7315 11.2804 49.8484 10.5624 49.823 9.84242C49.8521 9.12196 49.7373 8.40292 49.4855 7.72732C49.2337 7.05166 48.8499 6.43294 48.3564 5.90722C47.8629 5.38157 47.2696 4.95936 46.6113 4.66538C45.9529 4.37139 45.2426 4.21147 44.5217 4.19491V4.19491ZM41.7658 12.897C41.0329 12.8165 40.3609 12.4511 39.8949 11.8797C39.4289 11.3083 39.2061 10.5766 39.2747 9.84242C39.2149 9.11008 39.4409 8.38303 39.9053 7.81366C40.3697 7.24423 41.0365 6.87666 41.7658 6.78788V12.897ZM44.5353 12.897V6.78788C45.2646 6.87666 45.9314 7.24423 46.3958 7.81366C46.8602 8.38303 47.0862 9.11008 47.0264 9.84242C47.0914 10.5759 46.8673 11.3056 46.4019 11.8763C45.9366 12.4469 45.2668 12.8131 44.5353 12.897ZM60.2017 11.9399V8.29479C60.2017 5.63394 58.5115 3.97091 55.6742 3.97091C52.8368 3.97091 51.1806 5.73576 51.0448 7.57527H53.8482C53.9433 7.18158 54.3641 6.48242 55.6674 6.48242C55.9111 6.45106 56.1582 6.47672 56.3896 6.5575C56.6218 6.63827 56.8315 6.77179 57.0026 6.94767C57.1736 7.12347 57.3019 7.33675 57.3766 7.57052C57.4512 7.80436 57.4703 8.05232 57.4322 8.29479H54.7171C52.2599 8.29479 50.8005 9.59127 50.8005 11.7362C50.7813 12.2481 50.8699 12.7583 51.0603 13.2338C51.2509 13.7093 51.5391 14.1394 51.9064 14.4965C52.2736 14.8535 52.7117 15.1294 53.1925 15.3065C53.6731 15.4834 54.1856 15.5575 54.6967 15.5239C55.2738 15.5542 55.8493 15.4419 56.3727 15.1968C56.896 14.9517 57.3508 14.5815 57.697 14.1188C57.9223 14.4999 58.2509 14.8093 58.6452 15.0111C59.0389 15.213 59.4822 15.299 59.9234 15.2592H60.8805V12.7612C60.4121 12.7612 60.2017 12.5372 60.2017 11.9399V11.9399ZM57.4322 11.2611C57.4438 11.5285 57.3983 11.7952 57.2985 12.0437C57.1994 12.2922 57.0487 12.5169 56.8566 12.7029C56.6639 12.8889 56.4344 13.032 56.1826 13.1228C55.9308 13.2136 55.6626 13.2499 55.3959 13.2296C54.3981 13.2296 53.6107 12.8698 53.6107 11.7905C53.6107 10.7113 54.4863 10.5552 55.2262 10.5552H57.4322V11.2611V11.2611ZM31.3872 7.73139H29.3983V4.44606H26.6288V15.2592H31.4347C34.4417 15.2592 35.5074 13.3042 35.5074 11.4579C35.521 9.07539 34.0276 7.73139 31.3872 7.73139ZM31.1835 12.897H29.3983V10.1818H31.1835C32.1406 10.1818 32.7176 10.6162 32.7176 11.5394C32.7176 12.4625 32.1678 12.897 31.1835 12.897V12.897ZM87.8487 11.9399V8.29479C87.8487 5.63394 86.1585 3.97091 83.3212 3.97091C80.4839 3.97091 78.8276 5.73576 78.6919 7.57527H81.4953C81.5903 7.18158 82.0112 6.48242 83.3144 6.48242C83.5581 6.45106 83.8052 6.47672 84.0367 6.5575C84.2688 6.63827 84.4785 6.77179 84.6496 6.94767C84.8207 7.12347 84.9489 7.33675 85.0236 7.57052C85.0983 7.80436 85.1173 8.05232 85.0793 8.29479H82.3641C79.9069 8.29479 78.4475 9.59127 78.4475 11.7362C78.4285 12.2481 78.5168 12.7583 78.7075 13.2338C78.8976 13.7093 79.186 14.1394 79.5533 14.4965C79.9205 14.8535 80.359 15.1294 80.8396 15.3065C81.3201 15.4834 81.8326 15.5575 82.3438 15.5239C82.9262 15.5599 83.5086 15.4504 84.0387 15.2051C84.5682 14.9598 85.0284 14.5865 85.3779 14.1188C85.5999 14.4933 85.9223 14.7984 86.3086 14.9999C86.6948 15.2013 87.1292 15.2911 87.5636 15.2592H88.5207V12.7612C88.0388 12.7612 87.8487 12.5372 87.8487 11.9399ZM85.0928 11.2611C85.103 11.5282 85.0569 11.7944 84.9571 12.0424C84.8573 12.2905 84.7066 12.5147 84.5145 12.7005C84.3224 12.8862 84.093 13.0293 83.8418 13.1206C83.5907 13.2117 83.3232 13.2489 83.0565 13.2296C82.0587 13.2296 81.2713 12.8698 81.2713 11.7905C81.2713 10.7113 82.1469 10.5552 82.8868 10.5552H85.0928V11.2611V11.2611ZM96.6933 8.47127H92.8718V4.44606H90.1023V15.2659H92.8718V11.0032H96.6933V15.2592H99.4628V4.44606H96.6933V8.47127Z" fill="#EF3124"/>
</svg>
