<svg width="210" height="25" viewBox="0 0 210 25" fill="none" xmlns="http://www.w3.org/2000/svg">
<g clip-path="url(#clip0)">
<path d="M28.1795 22.7291H22.9141L26.2075 2.36523H31.4726L28.1795 22.7291Z" fill="#00579F"/>
<path d="M47.2559 2.86697C46.2173 2.45494 44.57 2 42.5332 2C37.3334 2 33.6717 4.77281 33.6492 8.73709C33.606 11.6619 36.2709 13.2864 38.264 14.2617C40.3011 15.2582 40.9936 15.9087 40.9936 16.7969C40.9728 18.1612 39.3475 18.79 37.8315 18.79C35.7293 18.79 34.6029 18.4658 32.8911 17.7068L32.1978 17.3815L31.4609 21.9527C32.6959 22.5153 34.9711 23.0146 37.3334 23.0365C42.8582 23.0365 46.4551 20.3066 46.4977 16.082C46.5187 13.7638 45.1116 11.9876 42.0779 10.5361C40.2363 9.60434 39.1085 8.97607 39.1085 8.02272C39.1301 7.15604 40.0624 6.26834 42.1413 6.26834C43.853 6.22486 45.1107 6.63632 46.0635 7.04806L46.5398 7.2643L47.2559 2.86697V2.86697Z" fill="#00579F"/>
<path d="M54.2481 15.5149C54.6817 14.345 56.3503 9.81726 56.3503 9.81726C56.3284 9.86074 56.7831 8.62579 57.0431 7.86766L57.4111 9.62233C57.4111 9.62233 58.4082 14.4968 58.6247 15.5149C57.8018 15.5149 55.2881 15.5149 54.2481 15.5149ZM60.7476 2.36523H56.6748C55.4188 2.36523 54.4646 2.73321 53.9227 4.05483L46.1016 22.7288H51.6264C51.6264 22.7288 52.536 20.2154 52.7315 19.6741C53.3376 19.6741 58.7122 19.6741 59.4919 19.6741C59.6431 20.3891 60.1202 22.7288 60.1202 22.7288H64.9955L60.7476 2.36523V2.36523Z" fill="#00579F"/>
<path d="M18.4999 2.36523L13.3433 16.2514L12.7798 13.4352C11.8265 10.1855 8.83658 6.65488 5.5 4.89934L10.2233 22.7075H15.7913L24.0677 2.36523H18.4999V2.36523Z" fill="#00579F"/>
<path d="M8.55827 2.36523H0.0866679L0 2.77669C6.60838 4.46658 10.985 8.53998 12.7831 13.436L10.9415 4.077C10.6383 2.7764 9.70655 2.40814 8.55827 2.36523Z" fill="#FAA61A"/>
</g>
<path d="M90.6468 23.9744V22.378C90.6562 22.2437 90.6368 22.109 90.59 21.9828C90.5432 21.8566 90.47 21.7418 90.3753 21.6462C90.2806 21.5505 90.1667 21.4761 90.041 21.428C89.9153 21.3798 89.7808 21.359 89.6464 21.367C89.4706 21.3555 89.2949 21.3914 89.1376 21.471C88.9804 21.5505 88.8474 21.6708 88.7524 21.8193C88.6659 21.6752 88.5422 21.5572 88.3942 21.4776C88.2462 21.398 88.0796 21.3598 87.9117 21.367C87.7654 21.3596 87.6197 21.3906 87.489 21.4569C87.3583 21.5231 87.2472 21.6224 87.1667 21.7448V21.4308H86.6133V23.9744H87.172V22.5642C87.1599 22.4772 87.1673 22.3886 87.1935 22.3048C87.2197 22.2209 87.2642 22.1439 87.3237 22.0793C87.3833 22.0147 87.4564 21.9641 87.5378 21.9311C87.6192 21.8981 87.7069 21.8835 87.7946 21.8884C88.1618 21.8884 88.348 22.1279 88.348 22.5589V23.9744H88.9068V22.5642C88.8956 22.4774 88.9036 22.3891 88.9301 22.3057C88.9567 22.2222 89.0012 22.1456 89.0606 22.0812C89.1199 22.0168 89.1926 21.9662 89.2736 21.9329C89.3546 21.8996 89.4419 21.8844 89.5294 21.8884C89.9071 21.8884 90.0881 22.1279 90.0881 22.5589V23.9744H90.6468ZM98.916 21.4308H98.0114V20.6593H97.4527V21.4308H96.9365V21.9363H97.4527V23.0964C97.4527 23.687 97.6815 24.0382 98.336 24.0382C98.5805 24.039 98.8203 23.9707 99.0277 23.8413L98.8681 23.3677C98.7197 23.4563 98.5513 23.5057 98.3786 23.5114C98.1019 23.5114 98.0114 23.3411 98.0114 23.0857V21.9363H98.916V21.4308ZM103.636 21.367C103.501 21.363 103.368 21.3955 103.25 21.461C103.132 21.5266 103.033 21.6228 102.966 21.7395V21.4308H102.417V23.9744H102.971V22.5483C102.971 22.1279 103.152 21.8938 103.514 21.8938C103.632 21.8921 103.749 21.9138 103.859 21.9576L104.03 21.4361C103.903 21.3909 103.77 21.3675 103.636 21.367V21.367ZM96.5002 21.633C96.1869 21.4468 95.8268 21.3544 95.4625 21.367C94.8187 21.367 94.4036 21.6756 94.4036 22.1811C94.4036 22.5962 94.7122 22.8516 95.2816 22.9314L95.5423 22.9686C95.8456 23.0112 95.9893 23.091 95.9893 23.2347C95.9893 23.4316 95.7871 23.5434 95.4093 23.5434C95.1054 23.5521 94.8074 23.4584 94.5632 23.2773L94.3025 23.7083C94.6248 23.9334 95.011 24.0491 95.404 24.0382C96.1383 24.0382 96.564 23.6923 96.564 23.2081C96.564 22.7611 96.2288 22.527 95.6754 22.4471L95.4147 22.4099C95.1752 22.378 94.9836 22.3301 94.9836 22.1599C94.9836 21.9736 95.1645 21.8618 95.4679 21.8618C95.7464 21.866 96.0193 21.9411 96.2607 22.08L96.5002 21.633ZM111.325 21.367C111.19 21.363 111.057 21.3955 110.939 21.461C110.821 21.5266 110.723 21.6228 110.655 21.7395V21.4308H110.107V23.9744H110.66V22.5483C110.66 22.1279 110.841 21.8938 111.203 21.8938C111.321 21.8921 111.439 21.9138 111.549 21.9576L111.719 21.4361C111.593 21.3909 111.459 21.3675 111.325 21.367V21.367ZM104.195 22.7025C104.187 22.8817 104.218 23.0605 104.283 23.2273C104.349 23.3941 104.449 23.5453 104.577 23.6711C104.705 23.7969 104.858 23.8945 105.026 23.9578C105.193 24.021 105.373 24.0484 105.552 24.0382C105.884 24.0549 106.21 23.9467 106.467 23.7349L106.201 23.2879C106.009 23.4338 105.776 23.514 105.536 23.5167C105.328 23.5041 105.133 23.4129 104.991 23.2616C104.849 23.1103 104.769 22.9104 104.769 22.7026C104.769 22.4948 104.849 22.2949 104.991 22.1436C105.133 21.9923 105.328 21.901 105.536 21.8884C105.776 21.8912 106.009 21.9714 106.201 22.1173L106.467 21.6703C106.21 21.4585 105.884 21.3503 105.552 21.367C105.373 21.3568 105.193 21.3842 105.026 21.4474C104.858 21.5106 104.705 21.6083 104.577 21.7341C104.449 21.8599 104.349 22.011 104.283 22.1778C104.218 22.3446 104.187 22.5234 104.195 22.7025V22.7025ZM109.378 22.7025V21.4308H108.824V21.7395C108.73 21.6177 108.607 21.5204 108.468 21.4556C108.328 21.3908 108.175 21.3604 108.021 21.367C107.678 21.3838 107.354 21.5318 107.118 21.7805C106.881 22.0291 106.749 22.3593 106.749 22.7026C106.749 23.0459 106.881 23.3761 107.118 23.6247C107.354 23.8734 107.678 24.0214 108.021 24.0382C108.175 24.0448 108.328 24.0144 108.468 23.9496C108.607 23.8848 108.73 23.7874 108.824 23.6657V23.9744H109.378V22.7025ZM107.318 22.7025C107.327 22.5524 107.379 22.4081 107.469 22.2874C107.558 22.1667 107.681 22.0749 107.823 22.0232C107.964 21.9716 108.117 21.9624 108.263 21.9968C108.41 22.0312 108.543 22.1076 108.646 22.2167C108.75 22.3259 108.819 22.4629 108.845 22.6109C108.872 22.7588 108.854 22.9113 108.795 23.0496C108.736 23.1878 108.638 23.3057 108.512 23.3887C108.387 23.4717 108.24 23.5162 108.09 23.5167C107.984 23.5181 107.88 23.4977 107.783 23.4568C107.686 23.4158 107.598 23.3551 107.526 23.2786C107.453 23.2021 107.397 23.1115 107.362 23.0123C107.326 22.9132 107.311 22.8077 107.318 22.7025V22.7025ZM100.64 21.367C100.295 21.3851 99.9703 21.5363 99.7342 21.7886C99.4981 22.041 99.3689 22.375 99.3738 22.7205C99.3786 23.0661 99.517 23.3964 99.7601 23.642C100.003 23.8877 100.332 24.0297 100.677 24.0382C101.057 24.0516 101.428 23.9246 101.72 23.6817L101.449 23.272C101.239 23.4404 100.979 23.534 100.709 23.538C100.526 23.5534 100.345 23.497 100.203 23.3808C100.061 23.2646 99.9695 23.0977 99.9483 22.9154H101.837C101.843 22.8463 101.848 22.7771 101.848 22.7025C101.843 21.9097 101.353 21.367 100.64 21.367V21.367ZM100.629 21.8618C100.797 21.8586 100.958 21.9217 101.079 22.0374C101.2 22.1531 101.27 22.312 101.273 22.4791H99.9537C99.9634 22.3083 100.04 22.1482 100.166 22.0328C100.292 21.9174 100.459 21.8561 100.629 21.8618V21.8618ZM114.513 22.7025V20.4092H113.959V21.7395C113.865 21.6177 113.742 21.5204 113.603 21.4556C113.463 21.3908 113.31 21.3604 113.156 21.367C112.813 21.3838 112.489 21.5318 112.253 21.7805C112.016 22.0291 111.884 22.3593 111.884 22.7026C111.884 23.0459 112.016 23.3761 112.253 23.6248C112.489 23.8734 112.813 24.0214 113.156 24.0382C113.31 24.0448 113.463 24.0144 113.603 23.9496C113.742 23.8848 113.865 23.7874 113.959 23.6657V23.9744H114.513V22.7025ZM115.435 23.6058C115.469 23.6055 115.504 23.6123 115.535 23.6256C115.566 23.6383 115.593 23.6567 115.617 23.6798C115.64 23.7029 115.659 23.7302 115.672 23.7604C115.685 23.7913 115.692 23.8247 115.692 23.8584C115.692 23.8921 115.685 23.9255 115.672 23.9565C115.659 23.9865 115.64 24.0138 115.617 24.0367C115.593 24.0598 115.566 24.0783 115.535 24.0912C115.504 24.1048 115.469 24.1116 115.435 24.1114C115.384 24.1119 115.335 24.0975 115.292 24.0699C115.25 24.0424 115.216 24.0029 115.196 23.9565C115.183 23.9255 115.176 23.8921 115.176 23.8584C115.176 23.8247 115.183 23.7914 115.196 23.7604C115.209 23.7303 115.228 23.7029 115.251 23.6798C115.275 23.6565 115.303 23.6381 115.333 23.6256C115.366 23.6122 115.4 23.6055 115.435 23.6058V23.6058ZM115.435 24.0556C115.461 24.0558 115.487 24.0506 115.511 24.0401C115.534 24.0301 115.555 24.0158 115.573 23.998C115.61 23.9609 115.631 23.9108 115.631 23.8586C115.631 23.8063 115.61 23.7562 115.573 23.7191C115.556 23.7014 115.534 23.6872 115.511 23.6773C115.487 23.6671 115.461 23.6619 115.435 23.6621C115.408 23.6619 115.382 23.6671 115.357 23.6773C115.334 23.687 115.312 23.7012 115.294 23.7191C115.258 23.7562 115.237 23.8063 115.237 23.8586C115.237 23.9108 115.258 23.9609 115.294 23.998C115.313 24.0159 115.334 24.0303 115.357 24.0401C115.382 24.0505 115.408 24.0558 115.435 24.0556V24.0556ZM115.45 23.7402C115.475 23.7386 115.5 23.7457 115.52 23.7604C115.528 23.767 115.534 23.7754 115.538 23.7849C115.543 23.7944 115.545 23.8048 115.544 23.8152C115.544 23.8241 115.543 23.833 115.539 23.8413C115.536 23.8495 115.531 23.857 115.525 23.8632C115.509 23.8769 115.49 23.885 115.469 23.8864L115.546 23.975H115.486L115.415 23.8871H115.392V23.975H115.342V23.7402H115.45ZM115.392 23.7842V23.8468H115.449C115.46 23.8474 115.471 23.8447 115.481 23.839C115.485 23.8364 115.488 23.8329 115.49 23.8287C115.492 23.8245 115.493 23.8199 115.493 23.8152C115.493 23.8106 115.492 23.8061 115.49 23.802C115.488 23.7979 115.485 23.7944 115.481 23.7919C115.471 23.7864 115.46 23.7837 115.449 23.7842H115.392ZM112.453 22.7025C112.462 22.5525 112.514 22.4082 112.604 22.2875C112.693 22.1668 112.816 22.0749 112.958 22.0233C113.099 21.9717 113.252 21.9625 113.398 21.9969C113.545 22.0312 113.678 22.1077 113.781 22.2168C113.885 22.3259 113.954 22.4629 113.98 22.6109C114.007 22.7589 113.989 22.9114 113.93 23.0496C113.871 23.1878 113.773 23.3057 113.647 23.3887C113.522 23.4717 113.375 23.5162 113.225 23.5167C113.119 23.5181 113.015 23.4977 112.918 23.4567C112.821 23.4158 112.733 23.3551 112.661 23.2786C112.588 23.2021 112.532 23.1115 112.497 23.0123C112.461 22.9132 112.446 22.8077 112.453 22.7025V22.7025ZM93.7651 22.7025V21.4308H93.2116V21.7395C93.1172 21.6177 92.9949 21.5204 92.8551 21.4556C92.7153 21.3908 92.5621 21.3604 92.4081 21.367C92.0652 21.3838 91.7419 21.5318 91.5052 21.7805C91.2684 22.0291 91.1364 22.3593 91.1364 22.7026C91.1364 23.0459 91.2684 23.3761 91.5052 23.6247C91.7419 23.8734 92.0652 24.0214 92.4081 24.0382C92.5621 24.0448 92.7153 24.0144 92.8551 23.9496C92.9949 23.8848 93.1172 23.7874 93.2116 23.6657V23.9744H93.7651V22.7025ZM91.7057 22.7025C91.7143 22.5525 91.7667 22.4082 91.8563 22.2875C91.9459 22.1668 92.0689 22.0749 92.2101 22.0233C92.3513 21.9717 92.5045 21.9625 92.6508 21.9969C92.7972 22.0312 92.9303 22.1077 93.0337 22.2168C93.1371 22.3259 93.2063 22.463 93.2328 22.6109C93.2592 22.7589 93.2418 22.9114 93.1827 23.0496C93.1235 23.1878 93.0252 23.3057 92.8999 23.3887C92.7745 23.4717 92.6276 23.5162 92.4773 23.5167C92.3719 23.5181 92.2674 23.4977 92.1703 23.4567C92.0732 23.4158 91.9857 23.3551 91.9132 23.2786C91.8407 23.2021 91.7849 23.1115 91.7492 23.0123C91.7134 22.9132 91.6987 22.8077 91.7057 22.7025V22.7025Z" fill="#231F20"/>
<path d="M104.671 2.04492H96.2891V17.1078H104.671V2.04492Z" fill="#FF5F00"/>
<path d="M96.8406 9.57954C96.8393 8.12888 97.168 6.69693 97.8019 5.3921C98.4358 4.08726 99.3583 2.94374 100.499 2.04811C99.0863 0.937318 97.3891 0.246534 95.6019 0.0547106C93.8146 -0.137112 92.0095 0.177767 90.3928 0.963357C88.7761 1.74895 87.413 2.97355 86.4594 4.4972C85.5057 6.02085 85 7.78206 85 9.57954C85 11.377 85.5057 13.1382 86.4594 14.6619C87.413 16.1855 88.7761 17.4101 90.3928 18.1957C92.0095 18.9813 93.8146 19.2962 95.6019 19.1044C97.3891 18.9126 99.0863 18.2218 100.499 17.111C99.3583 16.2153 98.4358 15.0718 97.8019 13.767C97.168 12.4622 96.8393 11.0302 96.8406 9.57954V9.57954Z" fill="#EB001B"/>
<path d="M115.999 9.57954C115.999 11.377 115.493 13.1382 114.54 14.6619C113.586 16.1855 112.223 17.4101 110.606 18.1957C108.99 18.9813 107.185 19.2962 105.397 19.1044C103.61 18.9126 101.913 18.2218 100.5 17.111C101.64 16.2144 102.562 15.0707 103.196 13.7661C103.829 12.4615 104.159 11.03 104.159 9.57954C104.159 8.12911 103.829 6.69761 103.196 5.39298C102.562 4.08835 101.64 2.94464 100.5 2.04811C101.913 0.937314 103.61 0.24653 105.397 0.054709C107.185 -0.137112 108.99 0.177773 110.606 0.963372C112.223 1.74897 113.586 2.97358 114.54 4.49723C115.493 6.02088 115.999 7.78209 115.999 9.57954V9.57954Z" fill="#F79E1B"/>
<path d="M115.102 15.5236V15.2092H115.229V15.1452H114.906V15.2092H115.033V15.5236H115.102ZM115.729 15.5236V15.1445H115.63L115.516 15.4053L115.402 15.1445H115.303V15.5236H115.373V15.2377L115.48 15.4842H115.553L115.659 15.237V15.5236H115.729Z" fill="#F79E1B"/>
<path fill-rule="evenodd" clip-rule="evenodd" d="M142.823 2.00343C143.482 1.99949 145.441 1.82306 146.27 4.62348C146.829 6.50987 147.72 9.59987 148.941 13.8935H149.439C150.749 9.36685 151.649 6.27686 152.139 4.62348C152.978 1.79389 155.074 2.00349 155.912 2.00349L162.38 2.0035V22.125H155.788V10.267H155.345L151.67 22.125H146.71L143.035 10.2583H142.593V22.125H136V2.0035L142.823 2.00343ZM171.847 2.0035V13.8702H172.373L176.844 4.1123C177.712 2.17044 179.561 2.0035 179.561 2.0035H185.941V22.125H179.211V10.2583H178.685L174.302 20.0162C173.434 21.9493 171.497 22.125 171.497 22.125H165.117V2.0035H171.847ZM209.205 11.5654C208.266 14.2258 205.318 16.1311 202.053 16.1311H194.995V22.125H188.595V11.5654H209.205Z" fill="#0F754E"/>
<path fill-rule="evenodd" clip-rule="evenodd" d="M202.361 2.00293H188.258C188.593 6.48266 192.451 10.3176 196.445 10.3176H209.648C210.41 6.59442 207.787 2.00293 202.361 2.00293Z" fill="url(#paint0_linear)"/>
<defs>
<linearGradient id="paint0_linear" x1="209.777" y1="7.23322" x2="188.258" y2="7.23322" gradientUnits="userSpaceOnUse">
<stop stop-color="#1F5CD7"/>
<stop offset="1" stop-color="#02AEFF"/>
</linearGradient>
<clipPath id="clip0">
<rect width="65" height="21.0365" fill="white" transform="translate(0 2)"/>
</clipPath>
</defs>
</svg>
