<svg width="239" height="24" viewBox="0 0 239 24" fill="none" xmlns="http://www.w3.org/2000/svg">
<path d="M19 3H5C3.89 3 3 3.89 3 5V19C3 19.5304 3.21071 20.0391 3.58579 20.4142C3.96086 20.7893 4.46957 21 5 21H19C19.5304 21 20.0391 20.7893 20.4142 20.4142C20.7893 20.0391 21 19.5304 21 19V5C21 3.89 20.1 3 19 3ZM19 5V19H5V5H19Z" fill="#E8EBEF"/>
<path d="M10 17L5 12L6.41 10.58L10 14.17L17.59 6.58L19 8L10 17ZM19 3H5C3.89 3 3 3.89 3 5V19C3 19.5304 3.21071 20.0391 3.58579 20.4142C3.96086 20.7893 4.46957 21 5 21H19C19.5304 21 20.0391 20.7893 20.4142 20.4142C20.7893 20.0391 21 19.5304 21 19V5C21 3.89 20.1 3 19 3Z" fill="#2D5FA6"/>
<path d="M43.4844 12.2734C43.4844 14.1016 43.0208 15.5391 42.0938 16.5859C41.1719 17.6328 39.888 18.1562 38.2422 18.1562C36.5599 18.1562 35.2604 17.6432 34.3438 16.6172C33.4323 15.5859 32.9766 14.1328 32.9766 12.2578C32.9766 10.3984 33.4349 8.95833 34.3516 7.9375C35.2682 6.91146 36.5703 6.39844 38.2578 6.39844C39.8984 6.39844 41.1797 6.91927 42.1016 7.96094C43.0234 9.0026 43.4844 10.4401 43.4844 12.2734ZM34.3828 12.2734C34.3828 13.8203 34.7109 14.9948 35.3672 15.7969C36.0286 16.5938 36.987 16.9922 38.2422 16.9922C39.5078 16.9922 40.4635 16.5938 41.1094 15.7969C41.7552 15 42.0781 13.8255 42.0781 12.2734C42.0781 10.737 41.7552 9.57292 41.1094 8.78125C40.4688 7.98438 39.5182 7.58594 38.2578 7.58594C36.9922 7.58594 36.0286 7.98698 35.3672 8.78906C34.7109 9.58594 34.3828 10.7474 34.3828 12.2734ZM45.3984 12.8672C45.3984 10.9922 45.6745 9.53125 46.2266 8.48438C46.7786 7.43229 47.6536 6.77604 48.8516 6.51562C50.3411 6.19792 51.6536 5.9401 52.7891 5.74219L53.0312 6.88281C51.224 7.1849 49.9323 7.42448 49.1562 7.60156C48.401 7.77344 47.8333 8.17969 47.4531 8.82031C47.0781 9.46094 46.8724 10.3333 46.8359 11.4375H46.9297C47.2526 11 47.6693 10.6562 48.1797 10.4062C48.6901 10.1562 49.224 10.0312 49.7812 10.0312C50.8333 10.0312 51.6536 10.3724 52.2422 11.0547C52.8307 11.737 53.125 12.6823 53.125 13.8906C53.125 15.2292 52.7839 16.276 52.1016 17.0312C51.4193 17.7812 50.4688 18.1562 49.25 18.1562C48.0469 18.1562 47.1042 17.6953 46.4219 16.7734C45.7396 15.8516 45.3984 14.5495 45.3984 12.8672ZM49.3672 17.0703C50.9557 17.0703 51.75 16.0573 51.75 14.0312C51.75 12.099 51.0286 11.1328 49.5859 11.1328C49.1901 11.1328 48.8073 11.2161 48.4375 11.3828C48.0729 11.5443 47.737 11.7604 47.4297 12.0312C47.1276 12.3021 46.8932 12.5807 46.7266 12.8672C46.7266 14.237 46.9427 15.2812 47.375 16C47.8073 16.7135 48.4714 17.0703 49.3672 17.0703ZM59.375 18.1562C58.8177 18.1562 58.3073 18.0547 57.8438 17.8516C57.3854 17.6432 57 17.3255 56.6875 16.8984H56.5938C56.6562 17.3984 56.6875 17.8724 56.6875 18.3203V21.8438H55.3906V9.4375H56.4453L56.625 10.6094H56.6875C57.0208 10.1406 57.4089 9.80208 57.8516 9.59375C58.2943 9.38542 58.8021 9.28125 59.375 9.28125C60.5104 9.28125 61.3854 9.66927 62 10.4453C62.6198 11.2214 62.9297 12.3099 62.9297 13.7109C62.9297 15.1172 62.6146 16.2109 61.9844 16.9922C61.3594 17.7682 60.4896 18.1562 59.375 18.1562ZM59.1875 10.3828C58.3125 10.3828 57.6797 10.625 57.2891 11.1094C56.8984 11.5938 56.6979 12.3646 56.6875 13.4219V13.7109C56.6875 14.9141 56.888 15.776 57.2891 16.2969C57.6901 16.8125 58.3333 17.0703 59.2188 17.0703C59.9583 17.0703 60.5365 16.7708 60.9531 16.1719C61.375 15.5729 61.5859 14.7474 61.5859 13.6953C61.5859 12.6276 61.375 11.8099 60.9531 11.2422C60.5365 10.6693 59.9479 10.3828 59.1875 10.3828ZM70.4688 18L70.2109 16.7812H70.1484C69.7214 17.3177 69.2943 17.6823 68.8672 17.875C68.4453 18.0625 67.9167 18.1562 67.2812 18.1562C66.4323 18.1562 65.7656 17.9375 65.2812 17.5C64.8021 17.0625 64.5625 16.4401 64.5625 15.6328C64.5625 13.9036 65.9453 12.9974 68.7109 12.9141L70.1641 12.8672V12.3359C70.1641 11.6641 70.0182 11.1693 69.7266 10.8516C69.4401 10.5286 68.9792 10.3672 68.3438 10.3672C67.6302 10.3672 66.8229 10.5859 65.9219 11.0234L65.5234 10.0312C65.9453 9.80208 66.4062 9.6224 66.9062 9.49219C67.4115 9.36198 67.9167 9.29688 68.4219 9.29688C69.4427 9.29688 70.1979 9.52344 70.6875 9.97656C71.1823 10.4297 71.4297 11.1562 71.4297 12.1562V18H70.4688ZM67.5391 17.0859C68.3464 17.0859 68.9792 16.8646 69.4375 16.4219C69.901 15.9792 70.1328 15.3594 70.1328 14.5625V13.7891L68.8359 13.8438C67.8047 13.8802 67.0599 14.0417 66.6016 14.3281C66.1484 14.6094 65.9219 15.0495 65.9219 15.6484C65.9219 16.1172 66.0625 16.474 66.3438 16.7188C66.6302 16.9635 67.0286 17.0859 67.5391 17.0859ZM79.8828 10.5469H77.1016V18H75.8047V10.5469H73.0547V9.4375H79.8828V10.5469ZM82.875 9.4375V13.0234H87.6719V9.4375H88.9688V18H87.6719V14.1406H82.875V18H81.5781V9.4375H82.875ZM93.0156 12.9766H95.3516C96.4401 12.9766 97.2448 13.1797 97.7656 13.5859C98.2917 13.987 98.5547 14.5885 98.5547 15.3906C98.5547 16.25 98.276 16.901 97.7188 17.3438C97.1667 17.7812 96.3516 18 95.2734 18H91.7188V9.4375H93.0156V12.9766ZM101.289 18H99.9922V9.4375H101.289V18ZM93.0156 14.0938V16.9141H95.2109C96.5859 16.9141 97.2734 16.4323 97.2734 15.4688C97.2734 14.9896 97.1146 14.6406 96.7969 14.4219C96.4792 14.2031 95.9375 14.0938 95.1719 14.0938H93.0156ZM105.266 9.4375V14.8672L105.211 16.2891L105.188 16.7344L109.82 9.4375H111.438V18H110.227V12.7656L110.25 11.7344L110.289 10.7188L105.664 18H104.047V9.4375H105.266ZM107.711 8.30469C106.747 8.30469 106.044 8.11979 105.602 7.75C105.159 7.375 104.911 6.76042 104.859 5.90625H106.078C106.125 6.44792 106.266 6.82552 106.5 7.03906C106.74 7.2526 107.154 7.35938 107.742 7.35938C108.279 7.35938 108.674 7.24479 108.93 7.01562C109.19 6.78646 109.349 6.41667 109.406 5.90625H110.633C110.57 6.72917 110.307 7.33594 109.844 7.72656C109.38 8.11198 108.669 8.30469 107.711 8.30469ZM117.898 12.8672C117.898 10.9922 118.174 9.53125 118.727 8.48438C119.279 7.43229 120.154 6.77604 121.352 6.51562C122.841 6.19792 124.154 5.9401 125.289 5.74219L125.531 6.88281C123.724 7.1849 122.432 7.42448 121.656 7.60156C120.901 7.77344 120.333 8.17969 119.953 8.82031C119.578 9.46094 119.372 10.3333 119.336 11.4375H119.43C119.753 11 120.169 10.6562 120.68 10.4062C121.19 10.1562 121.724 10.0312 122.281 10.0312C123.333 10.0312 124.154 10.3724 124.742 11.0547C125.331 11.737 125.625 12.6823 125.625 13.8906C125.625 15.2292 125.284 16.276 124.602 17.0312C123.919 17.7812 122.969 18.1562 121.75 18.1562C120.547 18.1562 119.604 17.6953 118.922 16.7734C118.24 15.8516 117.898 14.5495 117.898 12.8672ZM121.867 17.0703C123.456 17.0703 124.25 16.0573 124.25 14.0312C124.25 12.099 123.529 11.1328 122.086 11.1328C121.69 11.1328 121.307 11.2161 120.938 11.3828C120.573 11.5443 120.237 11.7604 119.93 12.0312C119.628 12.3021 119.393 12.5807 119.227 12.8672C119.227 14.237 119.443 15.2812 119.875 16C120.307 16.7135 120.971 17.0703 121.867 17.0703ZM129.109 9.4375V14.8672L129.055 16.2891L129.031 16.7344L133.664 9.4375H135.281V18H134.07V12.7656L134.094 11.7344L134.133 10.7188L129.508 18H127.891V9.4375H129.109ZM144.414 18H143.102V10.5469H140.531C140.391 12.401 140.195 13.8724 139.945 14.9609C139.695 16.0495 139.37 16.8464 138.969 17.3516C138.573 17.8568 138.068 18.1094 137.453 18.1094C137.172 18.1094 136.948 18.0781 136.781 18.0156V17.0547C136.896 17.0859 137.026 17.1016 137.172 17.1016C137.771 17.1016 138.247 16.4688 138.602 15.2031C138.956 13.9375 139.224 12.0156 139.406 9.4375H144.414V18ZM150.789 18.1562C149.523 18.1562 148.523 17.7708 147.789 17C147.06 16.2292 146.695 15.1589 146.695 13.7891C146.695 12.4089 147.034 11.3125 147.711 10.5C148.393 9.6875 149.307 9.28125 150.453 9.28125C151.526 9.28125 152.375 9.63542 153 10.3438C153.625 11.0469 153.938 11.9766 153.938 13.1328V13.9531H148.039C148.065 14.9583 148.318 15.7214 148.797 16.2422C149.281 16.763 149.961 17.0234 150.836 17.0234C151.758 17.0234 152.669 16.8307 153.57 16.4453V17.6016C153.112 17.7995 152.677 17.9401 152.266 18.0234C151.859 18.112 151.367 18.1562 150.789 18.1562ZM150.438 10.3672C149.75 10.3672 149.201 10.5911 148.789 11.0391C148.383 11.487 148.143 12.1068 148.07 12.8984H152.547C152.547 12.0807 152.365 11.4557 152 11.0234C151.635 10.5859 151.115 10.3672 150.438 10.3672ZM161.93 10.5469H159.148V18H157.852V10.5469H155.102V9.4375H161.93V10.5469ZM169.078 9.4375V13.0234H173.875V9.4375H175.172V18H173.875V14.1406H169.078V18H167.781V9.4375H169.078ZM181.539 18.1562C180.273 18.1562 179.273 17.7708 178.539 17C177.81 16.2292 177.445 15.1589 177.445 13.7891C177.445 12.4089 177.784 11.3125 178.461 10.5C179.143 9.6875 180.057 9.28125 181.203 9.28125C182.276 9.28125 183.125 9.63542 183.75 10.3438C184.375 11.0469 184.688 11.9766 184.688 13.1328V13.9531H178.789C178.815 14.9583 179.068 15.7214 179.547 16.2422C180.031 16.763 180.711 17.0234 181.586 17.0234C182.508 17.0234 183.419 16.8307 184.32 16.4453V17.6016C183.862 17.7995 183.427 17.9401 183.016 18.0234C182.609 18.112 182.117 18.1562 181.539 18.1562ZM181.188 10.3672C180.5 10.3672 179.951 10.5911 179.539 11.0391C179.133 11.487 178.893 12.1068 178.82 12.8984H183.297C183.297 12.0807 183.115 11.4557 182.75 11.0234C182.385 10.5859 181.865 10.3672 181.188 10.3672ZM192.359 9.4375V13.0234H197.156V9.4375H198.453V18H197.156V14.1406H192.359V18H191.062V9.4375H192.359ZM199.844 9.4375H201.234L203.109 14.3203C203.521 15.4349 203.776 16.2396 203.875 16.7344H203.938C204.005 16.4688 204.146 16.0156 204.359 15.375C204.578 14.7292 205.286 12.75 206.484 9.4375H207.875L204.195 19.1875C203.831 20.151 203.404 20.8333 202.914 21.2344C202.43 21.6406 201.833 21.8438 201.125 21.8438C200.729 21.8438 200.339 21.7995 199.953 21.7109V20.6719C200.24 20.7344 200.56 20.7656 200.914 20.7656C201.805 20.7656 202.44 20.2656 202.82 19.2656L203.297 18.0469L199.844 9.4375ZM213.172 9.45312H214.367V13.6016L217.906 9.45312H219.328L215.75 13.6016L219.633 18H218.133L214.367 13.6641V18H213.172V13.6641L209.414 18H207.922L211.797 13.6016L208.227 9.45312H209.648L213.172 13.6016V9.45312ZM224.664 18.1562C223.398 18.1562 222.398 17.7708 221.664 17C220.935 16.2292 220.57 15.1589 220.57 13.7891C220.57 12.4089 220.909 11.3125 221.586 10.5C222.268 9.6875 223.182 9.28125 224.328 9.28125C225.401 9.28125 226.25 9.63542 226.875 10.3438C227.5 11.0469 227.812 11.9766 227.812 13.1328V13.9531H221.914C221.94 14.9583 222.193 15.7214 222.672 16.2422C223.156 16.763 223.836 17.0234 224.711 17.0234C225.633 17.0234 226.544 16.8307 227.445 16.4453V17.6016C226.987 17.7995 226.552 17.9401 226.141 18.0234C225.734 18.112 225.242 18.1562 224.664 18.1562ZM224.312 10.3672C223.625 10.3672 223.076 10.5911 222.664 11.0391C222.258 11.487 222.018 12.1068 221.945 12.8984H226.422C226.422 12.0807 226.24 11.4557 225.875 11.0234C225.51 10.5859 224.99 10.3672 224.312 10.3672ZM231.328 9.4375V13.0234H236.125V9.4375H237.422V18H236.125V14.1406H231.328V18H230.031V9.4375H231.328Z" fill="black"/>
</svg>
