<svg width="54" height="67" viewBox="0 0 54 67" fill="none" xmlns="http://www.w3.org/2000/svg">
<g filter="url(#filter0_d)">
<path d="M44 17C44 30 27 46.5 27 46.5C27 46.5 10 30 10 17C10 7.61116 17.6112 0 27 0C36.3888 0 44 7.61116 44 17Z" fill="#D87265"/>
<path fill-rule="evenodd" clip-rule="evenodd" d="M28.009 11C28.009 11.5523 27.5613 12 27.009 12C26.4567 12 26.009 11.5523 26.009 11C26.009 10.4477 26.4567 10 27.009 10C27.5613 10 28.009 10.4477 28.009 11ZM28.009 13.8293C29.1742 13.4175 30.009 12.3062 30.009 11C30.009 9.34315 28.6659 8 27.009 8C25.3522 8 24.009 9.34315 24.009 11C24.009 12.3062 24.8438 13.4175 26.009 13.8293V17H24.009V19H26.009V23.9706C22.9261 23.7842 21.4827 22.7411 20.7899 21.8751C20.3928 21.3787 20.197 20.8861 20.1002 20.5234C20.0841 20.4628 20.0708 20.4061 20.0598 20.354L21.7854 19.8916L18.5089 17.9999L16.6172 21.2764L18.1262 20.8721C18.1387 20.9258 18.1525 20.9814 18.1678 21.0387C18.3211 21.6135 18.6253 22.3709 19.2281 23.1245C20.363 24.5431 22.4147 25.7803 26.009 25.9736V26L27.009 27L28.009 26V25.9736C31.6033 25.7803 33.655 24.5431 34.7899 23.1245C35.3928 22.3709 35.697 21.6135 35.8502 21.0387C35.8651 20.983 35.8786 20.9288 35.8908 20.8765L37.3833 21.2764L35.4916 17.9999L32.2151 19.8916L33.9573 20.3584C33.9465 20.4094 33.9335 20.4645 33.9178 20.5234C33.8211 20.8861 33.6253 21.3787 33.2281 21.8751C32.5353 22.7411 31.0919 23.7842 28.009 23.9706V19H30.009V17H28.009V13.8293Z" fill="white"/>
</g>
<defs>
<filter id="filter0_d" x="0" y="0" width="54" height="66.5" filterUnits="userSpaceOnUse" color-interpolation-filters="sRGB">
<feFlood flood-opacity="0" result="BackgroundImageFix"/>
<feColorMatrix in="SourceAlpha" type="matrix" values="0 0 0 0 0 0 0 0 0 0 0 0 0 0 0 0 0 0 127 0"/>
<feOffset dy="10"/>
<feGaussianBlur stdDeviation="5"/>
<feColorMatrix type="matrix" values="0 0 0 0 0 0 0 0 0 0 0 0 0 0 0 0 0 0 0.25 0"/>
<feBlend mode="normal" in2="BackgroundImageFix" result="effect1_dropShadow"/>
<feBlend mode="normal" in="SourceGraphic" in2="effect1_dropShadow" result="shape"/>
</filter>
</defs>
</svg>
