<svg width="24" height="24" viewBox="0 0 24 24" fill="none" xmlns="http://www.w3.org/2000/svg">
<path fill-rule="evenodd" clip-rule="evenodd" d="M12 4C9.82737 4 9.55487 4.00925 8.70162 4.04812C7.85012 4.087 7.2685 4.22225 6.75975 4.42C6.23362 4.62437 5.7875 4.898 5.34275 5.34275C4.898 5.7875 4.62437 6.23362 4.42 6.75975C4.22225 7.26863 4.087 7.85012 4.04812 8.70162C4.00925 9.55487 4 9.82737 4 12C4 14.1726 4.00925 14.4451 4.04812 15.2984C4.087 16.1499 4.22225 16.7314 4.42 17.2402C4.62437 17.7664 4.898 18.2125 5.34275 18.6572C5.7875 19.102 6.23362 19.3755 6.75975 19.58C7.26863 19.7778 7.85012 19.913 8.70162 19.9519C9.55487 19.9907 9.82737 20 12 20C14.1726 20 14.4451 19.9907 15.2984 19.9519C16.1499 19.913 16.7314 19.7778 17.2402 19.58C17.7664 19.3755 18.2125 19.102 18.6572 18.6572C19.102 18.2125 19.3755 17.7664 19.58 17.2402C19.7778 16.7314 19.913 16.1499 19.9519 15.2984C19.9907 14.4451 20 14.1726 20 12C20 9.82737 19.9907 9.55487 19.9519 8.70162C19.913 7.85012 19.7778 7.26863 19.58 6.75975C19.3755 6.23362 19.102 5.7875 18.6572 5.34275C18.2125 4.898 17.7664 4.6245 17.2402 4.42C16.7314 4.22225 16.1499 4.087 15.2984 4.04812C14.4451 4.00925 14.1726 4 12 4ZM12.0003 14.4C13.3258 14.4 14.4003 13.3255 14.4003 12C14.4003 10.6745 13.3258 9.59999 12.0003 9.59999C10.6748 9.59999 9.6003 10.6745 9.6003 12C9.6003 13.3255 10.6748 14.4 12.0003 14.4ZM12.0003 15.7333C14.0622 15.7333 15.7336 14.0619 15.7336 12C15.7336 9.93813 14.0622 8.26665 12.0003 8.26665C9.93844 8.26665 8.26697 9.93813 8.26697 12C8.26697 14.0619 9.93844 15.7333 12.0003 15.7333ZM17.9164 7.65869C17.9164 8.20661 17.4722 8.65069 16.9244 8.65069C16.3766 8.65069 15.9324 8.20661 15.9324 7.65869C15.9324 7.11076 16.3766 6.66669 16.9244 6.66669C17.4723 6.66669 17.9164 7.11076 17.9164 7.65869Z" fill="#2D5FA6"/>
</svg>
