<svg width="33" height="26" viewBox="0 0 33 26" fill="none" xmlns="http://www.w3.org/2000/svg">
<path d="M6.01248 25.5218V23.8224C6.02245 23.6795 6.00183 23.536 5.95199 23.4017C5.90216 23.2674 5.82426 23.1452 5.72348 23.0434C5.62271 22.9415 5.50137 22.8623 5.36758 22.8111C5.23378 22.7598 5.0906 22.7377 4.94757 22.7461C4.76038 22.7339 4.57335 22.7722 4.40597 22.8569C4.23859 22.9415 4.09699 23.0696 3.99593 23.2276C3.90382 23.0743 3.77208 22.9487 3.61457 22.8639C3.45706 22.7792 3.27962 22.7385 3.10093 22.7461C2.94516 22.7383 2.79005 22.7713 2.65096 22.8419C2.51186 22.9124 2.3936 23.018 2.30789 23.1483V22.8141H1.71875V25.5218H2.31352V24.0206C2.30066 23.928 2.30848 23.8337 2.33641 23.7444C2.36433 23.6552 2.41168 23.5732 2.47504 23.5045C2.5384 23.4357 2.61621 23.3818 2.70288 23.3467C2.78954 23.3115 2.88292 23.296 2.97629 23.3013C3.36714 23.3013 3.56543 23.5562 3.56543 24.015V25.5218H4.1602V24.0206C4.14831 23.9282 4.1568 23.8342 4.18508 23.7454C4.21336 23.6566 4.26075 23.575 4.32391 23.5065C4.38707 23.4379 4.46448 23.384 4.5507 23.3486C4.63691 23.3131 4.72984 23.297 4.82296 23.3013C5.22511 23.3013 5.41771 23.5562 5.41771 24.015V25.5218H6.01248ZM14.8152 22.8141H13.8522V21.9928H13.2575V22.8141H12.708V23.3523H13.2575V24.5871C13.2575 25.2159 13.501 25.5898 14.1978 25.5898C14.4581 25.5905 14.7133 25.5179 14.9341 25.3801L14.7642 24.876C14.6063 24.9702 14.427 25.0229 14.2431 25.029C13.9485 25.029 13.8522 24.8476 13.8522 24.5758V23.3523H14.8152V22.8141ZM19.8397 22.7461C19.696 22.7419 19.5539 22.7765 19.4283 22.8463C19.3027 22.9161 19.1982 23.0185 19.126 23.1427V22.8141H18.5425V25.5218H19.1316V24.0036C19.1316 23.5562 19.3242 23.3069 19.7094 23.3069C19.8354 23.3052 19.9605 23.3283 20.0776 23.3749L20.2588 22.8198C20.1243 22.7716 19.9826 22.7467 19.8397 22.7461V22.7461ZM12.2435 23.0294C11.9101 22.8311 11.5266 22.7328 11.1389 22.7461C10.4535 22.7461 10.0117 23.0747 10.0117 23.6128C10.0117 24.0547 10.3402 24.3266 10.9463 24.4115L11.2239 24.4511C11.5467 24.4964 11.6997 24.5814 11.6997 24.7344C11.6997 24.944 11.4844 25.0629 11.0823 25.0629C10.7588 25.0722 10.4415 24.9725 10.1816 24.7797L9.90405 25.2385C10.2472 25.4782 10.6582 25.6013 11.0766 25.5898C11.8583 25.5898 12.3114 25.2215 12.3114 24.7061C12.3114 24.2302 11.9546 23.981 11.3655 23.896L11.088 23.8564C10.833 23.8224 10.6291 23.7715 10.6291 23.5902C10.6291 23.3919 10.8217 23.2729 11.1446 23.2729C11.4411 23.2774 11.7316 23.3573 11.9886 23.5052L12.2435 23.0294ZM28.0249 22.7461C27.8813 22.7419 27.7392 22.7765 27.6136 22.8463C27.488 22.9161 27.3835 23.0185 27.3112 23.1427V22.8141H26.7278V25.5218H27.3168V24.0036C27.3168 23.5562 27.5095 23.3069 27.8946 23.3069C28.0206 23.3052 28.1458 23.3283 28.2629 23.3749L28.4441 22.8198C28.3096 22.7716 28.1678 22.7467 28.0249 22.7461V22.7461ZM20.4344 24.1679C20.4266 24.3586 20.4588 24.5489 20.5289 24.7265C20.599 24.904 20.7056 25.065 20.8416 25.1989C20.9777 25.3328 21.1403 25.4368 21.3189 25.5041C21.4976 25.5714 21.6883 25.6006 21.8789 25.5898C22.2326 25.6075 22.5801 25.4923 22.8532 25.2668L22.57 24.791C22.3663 24.9463 22.118 25.0317 21.8619 25.0346C21.6411 25.0212 21.4338 24.9241 21.2822 24.763C21.1307 24.6019 21.0462 24.3891 21.0462 24.1679C21.0462 23.9468 21.1307 23.7339 21.2822 23.5729C21.4338 23.4118 21.6411 23.3147 21.8619 23.3013C22.118 23.3042 22.3663 23.3896 22.57 23.5449L22.8532 23.069C22.5801 22.8436 22.2326 22.7284 21.8789 22.7461C21.6883 22.7353 21.4976 22.7645 21.3189 22.8318C21.1403 22.8991 20.9777 23.003 20.8417 23.137C20.7056 23.2709 20.5991 23.4318 20.5289 23.6093C20.4588 23.7869 20.4266 23.9771 20.4344 24.1679V24.1679ZM25.9517 24.1679V22.8141H25.3626V23.1427C25.262 23.0131 25.1319 22.9095 24.9831 22.8405C24.8343 22.7715 24.6711 22.7391 24.5072 22.7461C24.1422 22.764 23.798 22.9217 23.546 23.1863C23.294 23.451 23.1534 23.8025 23.1534 24.168C23.1534 24.5334 23.294 24.8849 23.546 25.1496C23.798 25.4143 24.1422 25.5719 24.5072 25.5898C24.6711 25.5968 24.8343 25.5644 24.9831 25.4954C25.1319 25.4264 25.262 25.3228 25.3626 25.1932V25.5218H25.9517V24.1679ZM23.7595 24.1679C23.7687 24.0081 23.8244 23.8545 23.9198 23.726C24.0152 23.5975 24.1461 23.4997 24.2964 23.4448C24.4467 23.3898 24.6098 23.38 24.7656 23.4166C24.9214 23.4532 25.063 23.5346 25.1731 23.6507C25.2832 23.7669 25.3569 23.9127 25.3851 24.0703C25.4133 24.2278 25.3948 24.3902 25.3318 24.5373C25.2688 24.6844 25.1642 24.8099 25.0308 24.8983C24.8973 24.9866 24.741 25.034 24.5809 25.0346C24.4687 25.0361 24.3575 25.0144 24.2541 24.9708C24.1508 24.9271 24.0575 24.8626 23.9804 24.7811C23.9032 24.6997 23.8437 24.6032 23.8057 24.4976C23.7677 24.3921 23.752 24.2798 23.7595 24.1679V24.1679ZM16.6505 22.7461C16.2832 22.7655 15.9375 22.9264 15.6862 23.195C15.4349 23.4636 15.2973 23.8192 15.3025 24.187C15.3076 24.5549 15.455 24.9065 15.7137 25.168C15.9725 25.4295 16.3224 25.5807 16.6902 25.5898C17.0943 25.6039 17.4896 25.4688 17.8004 25.2102L17.5115 24.774C17.2878 24.9533 17.0108 25.053 16.7242 25.0573C16.5295 25.0736 16.3361 25.0136 16.1849 24.8899C16.0337 24.7662 15.9366 24.5885 15.9141 24.3945H17.9251C17.9307 24.3209 17.9364 24.2472 17.9364 24.1679C17.9307 23.3239 17.4096 22.7461 16.6505 22.7461V22.7461ZM16.6392 23.2729C16.8171 23.2695 16.9892 23.3367 17.1177 23.4599C17.2461 23.583 17.3206 23.7521 17.3246 23.93H15.9198C15.9301 23.7482 16.0112 23.5777 16.1456 23.4549C16.2801 23.3321 16.4572 23.2668 16.6392 23.2729V23.2729ZM31.418 24.1679V21.7266H30.8289V23.1427C30.7283 23.0131 30.5982 22.9095 30.4494 22.8405C30.3006 22.7715 30.1374 22.7391 29.9735 22.7461C29.6085 22.764 29.2643 22.9216 29.0123 23.1863C28.7603 23.451 28.6197 23.8025 28.6197 24.168C28.6197 24.5334 28.7603 24.8849 29.0123 25.1496C29.2643 25.4143 29.6085 25.5719 29.9735 25.5898C30.1374 25.5967 30.3006 25.5644 30.4494 25.4954C30.5982 25.4264 30.7283 25.3228 30.8289 25.1932V25.5218H31.418V24.1679ZM32.4 25.1294C32.4366 25.1291 32.4729 25.1363 32.5066 25.1505C32.539 25.164 32.5686 25.1836 32.5937 25.2082C32.6186 25.2327 32.6385 25.2619 32.6523 25.294C32.6665 25.3269 32.6738 25.3624 32.6738 25.3983C32.6738 25.4342 32.6665 25.4698 32.6523 25.5027C32.6384 25.5347 32.6185 25.5637 32.5937 25.5882C32.5685 25.6127 32.539 25.6324 32.5066 25.6462C32.4729 25.6606 32.4366 25.6679 32.4 25.6676C32.3461 25.6682 32.2933 25.6528 32.2481 25.6235C32.2028 25.5942 32.1673 25.5522 32.1458 25.5027C32.1316 25.4698 32.1244 25.4342 32.1244 25.3983C32.1244 25.3625 32.1316 25.3269 32.1458 25.294C32.1596 25.2619 32.1794 25.2328 32.2042 25.2082C32.2293 25.1834 32.2589 25.1638 32.2916 25.1505C32.3259 25.1363 32.3628 25.1291 32.4 25.1294V25.1294ZM32.4 25.6083C32.4279 25.6085 32.4556 25.6029 32.4812 25.5918C32.5058 25.5811 32.5282 25.5659 32.5471 25.5469C32.5862 25.5074 32.6082 25.4541 32.6082 25.3985C32.6082 25.3429 32.5862 25.2895 32.5471 25.25C32.5282 25.2311 32.5058 25.216 32.4812 25.2056C32.4556 25.1947 32.4279 25.1892 32.4 25.1894C32.3716 25.1892 32.3435 25.1947 32.3173 25.2056C32.2923 25.2159 32.2695 25.231 32.2503 25.25C32.2112 25.2895 32.1892 25.3429 32.1892 25.3985C32.1892 25.4541 32.2112 25.5074 32.2503 25.5469C32.2696 25.566 32.2923 25.5813 32.3173 25.5918C32.3434 25.6028 32.3716 25.6085 32.4 25.6083V25.6083ZM32.4159 25.2725C32.4424 25.2708 32.4686 25.2784 32.4901 25.294C32.4987 25.301 32.5055 25.3099 32.51 25.3201C32.5145 25.3302 32.5166 25.3412 32.5161 25.3523C32.5164 25.3618 32.5147 25.3713 32.5112 25.3801C32.5076 25.3889 32.5022 25.3968 32.4954 25.4034C32.479 25.418 32.4582 25.4267 32.4363 25.4282L32.5181 25.5225H32.4542L32.3783 25.4288H32.3539V25.5225H32.3005V25.2725H32.4159ZM32.3539 25.3194V25.386H32.4152C32.427 25.3866 32.4387 25.3837 32.4489 25.3777C32.453 25.3749 32.4564 25.3711 32.4585 25.3667C32.4607 25.3622 32.4617 25.3573 32.4614 25.3523C32.4617 25.3475 32.4606 25.3426 32.4585 25.3383C32.4563 25.3339 32.453 25.3302 32.4489 25.3275C32.4387 25.3216 32.427 25.3188 32.4152 25.3194H32.3539ZM29.2258 24.1679C29.235 24.0081 29.2907 23.8545 29.3861 23.726C29.4815 23.5975 29.6124 23.4998 29.7627 23.4448C29.913 23.3898 30.0761 23.3801 30.2319 23.4167C30.3877 23.4533 30.5293 23.5347 30.6394 23.6508C30.7495 23.767 30.8232 23.9128 30.8514 24.0704C30.8795 24.2279 30.861 24.3902 30.798 24.5373C30.7351 24.6845 30.6304 24.8099 30.497 24.8983C30.3636 24.9867 30.2072 25.034 30.0472 25.0346C29.935 25.0361 29.8237 25.0144 29.7204 24.9707C29.617 24.9271 29.5238 24.8626 29.4467 24.7811C29.3695 24.6997 29.31 24.6032 29.272 24.4976C29.234 24.3921 29.2183 24.2798 29.2258 24.1679V24.1679ZM9.33193 24.1679V22.8141H8.74279V23.1427C8.64223 23.0131 8.51211 22.9095 8.3633 22.8405C8.21449 22.7715 8.05132 22.7391 7.88744 22.7461C7.52241 22.764 7.17824 22.9217 6.92622 23.1863C6.6742 23.451 6.53364 23.8025 6.53364 24.168C6.53364 24.5334 6.6742 24.8849 6.92622 25.1496C7.17824 25.4143 7.52241 25.5719 7.88744 25.5898C8.05132 25.5968 8.21449 25.5644 8.3633 25.4954C8.51211 25.4264 8.64224 25.3228 8.74279 25.1932V25.5218H9.33193V24.1679ZM7.13976 24.1679C7.14891 24.0081 7.20462 23.8545 7.30002 23.726C7.39542 23.5975 7.52634 23.4998 7.67663 23.4448C7.82693 23.3898 7.99002 23.3801 8.14581 23.4167C8.3016 23.4533 8.44327 23.5347 8.55334 23.6508C8.66342 23.767 8.7371 23.9128 8.76528 24.0704C8.79347 24.2279 8.77493 24.3902 8.71196 24.5373C8.649 24.6845 8.54434 24.8099 8.41092 24.8983C8.27749 24.9867 8.12112 25.034 7.96109 25.0346C7.84892 25.0361 7.73765 25.0144 7.6343 24.9707C7.53095 24.9271 7.43776 24.8626 7.3606 24.7811C7.28343 24.6997 7.22397 24.6032 7.18597 24.4976C7.14796 24.3921 7.13223 24.2798 7.13976 24.1679V24.1679Z" fill="#231F20"/>
<path d="M20.9424 2.17676H12.0195V18.2114H20.9424V2.17676Z" fill="#FF5F00"/>
<path d="M12.6045 10.1976C12.6031 8.65332 12.9531 7.12899 13.6279 5.73997C14.3026 4.35096 15.2846 3.13366 16.4994 2.18024C14.9951 0.99779 13.1884 0.262439 11.2858 0.0582403C9.38333 -0.145958 7.46174 0.189236 5.74072 1.02551C4.0197 1.86178 2.56867 3.16539 1.55351 4.78734C0.538349 6.40929 0 8.28413 0 10.1976C0 12.111 0.538349 13.9859 1.55351 15.6078C2.56867 17.2298 4.0197 18.5334 5.74072 19.3696C7.46174 20.2059 9.38333 20.5411 11.2858 20.3369C13.1884 20.1327 14.9951 19.3974 16.4994 18.2149C15.2846 17.2615 14.3027 16.0442 13.6279 14.6552C12.9531 13.2662 12.6031 11.7418 12.6045 10.1976V10.1976Z" fill="#EB001B"/>
<path d="M32.9989 10.1976C32.999 12.111 32.4607 13.9858 31.4456 15.6078C30.4305 17.2297 28.9795 18.5333 27.2585 19.3696C25.5375 20.2059 23.616 20.5411 21.7135 20.3369C19.811 20.1327 18.0043 19.3974 16.5 18.2149C17.7137 17.2605 18.6949 16.043 19.3696 14.6542C20.0443 13.2654 20.3949 11.7416 20.3949 10.1976C20.3949 8.65357 20.0443 7.12972 19.3696 5.74092C18.6949 4.35212 17.7137 3.13462 16.5 2.18024C18.0043 0.997786 19.811 0.262435 21.7135 0.0582386C23.616 -0.145958 25.5375 0.189243 27.2585 1.02553C28.9795 1.86181 30.4305 3.16542 31.4456 4.78737C32.4607 6.40932 32.999 8.28416 32.9989 10.1976V10.1976Z" fill="#F79E1B"/>
<path d="M32.0447 16.5256V16.1909H32.1796V16.1227H31.8359V16.1909H31.9709V16.5256H32.0447ZM32.7119 16.5256V16.1221H32.6066L32.4854 16.3996L32.3642 16.1221H32.2588V16.5256H32.3332V16.2212L32.4468 16.4836H32.5239L32.6376 16.2205V16.5256H32.7119Z" fill="#F79E1B"/>
</svg>
