<svg width="73" height="21" viewBox="0 0 73 21" fill="none" xmlns="http://www.w3.org/2000/svg">
<g clip-path="url(#clip0)">
<path fill-rule="evenodd" clip-rule="evenodd" d="M7.04354 0.483841C7.69081 0.479969 9.61446 0.306715 10.4293 3.05673C10.9781 4.90918 11.8525 7.94357 13.0522 12.1599H13.5409C14.8275 7.71475 15.7114 4.68036 16.1924 3.05673C17.0157 0.278069 19.074 0.483896 19.8973 0.483896L26.2493 0.483904V20.2433H19.7752V8.59874H19.3411L15.732 20.2433H10.8611L7.25204 8.59011H6.8179V20.2433H0.34375V0.483904L7.04354 0.483841ZM35.5461 0.483904V12.1371H36.0626L40.4526 2.55476C41.3048 0.647846 43.1211 0.483904 43.1211 0.483904H49.3861V20.2433H42.7767V8.59011H42.2603L37.9563 18.1724C37.1041 20.0707 35.2018 20.2433 35.2018 20.2433H28.9367V0.483904H35.5461ZM72.231 9.8737C71.3091 12.4862 68.4138 14.3573 65.2084 14.3573H58.2772V20.2433H51.9921V9.8737H72.231Z" fill="#0F754E"/>
<path fill-rule="evenodd" clip-rule="evenodd" d="M65.5131 0.484375H51.6641C51.9937 4.88349 55.7821 8.64941 59.7038 8.64941H72.6693C73.4175 4.99323 70.8418 0.484375 65.5131 0.484375Z" fill="url(#paint0_linear)"/>
</g>
<defs>
<linearGradient id="paint0_linear" x1="72.7965" y1="5.62054" x2="51.6641" y2="5.62054" gradientUnits="userSpaceOnUse">
<stop stop-color="#1F5CD7"/>
<stop offset="1" stop-color="#02AEFF"/>
</linearGradient>
<clipPath id="clip0">
<rect width="73" height="20.3083" fill="white"/>
</clipPath>
</defs>
</svg>
