<svg width="64" height="21" viewBox="0 0 64 21" fill="none" xmlns="http://www.w3.org/2000/svg">
<g clip-path="url(#clip0)">
<path d="M27.7469 20.41H22.5625L25.8052 0.359375H30.9894L27.7469 20.41Z" fill="#00579F"/>
<path d="M46.5324 0.853633C45.5098 0.447938 43.8879 0 41.8824 0C36.7625 0 33.1572 2.73015 33.1351 6.63344C33.0926 9.51328 35.7164 11.1128 37.6788 12.073C39.6846 13.0542 40.3665 13.6947 40.3665 14.5693C40.346 15.9125 38.7457 16.5317 37.253 16.5317C35.1831 16.5317 34.0741 16.2125 32.3886 15.4652L31.706 15.1448L30.9805 19.6457C32.1964 20.1997 34.4367 20.6913 36.7625 20.7128C42.2024 20.7128 45.744 18.0249 45.7859 13.8654C45.8066 11.5829 44.4211 9.83392 41.4341 8.40478C39.6208 7.48735 38.5103 6.86875 38.5103 5.93006C38.5316 5.07672 39.4496 4.20267 41.4965 4.20267C43.1819 4.15986 44.4203 4.56499 45.3584 4.9704L45.8273 5.18331L46.5324 0.853633V0.853633Z" fill="#00579F"/>
<path d="M53.4196 13.3067C53.8466 12.1549 55.4895 7.69675 55.4895 7.69675C55.468 7.73956 55.9156 6.52361 56.1716 5.77714L56.5339 7.50482C56.5339 7.50482 57.5157 12.3043 57.7289 13.3067C56.9186 13.3067 54.4437 13.3067 53.4196 13.3067ZM59.8192 0.359375H55.809C54.5724 0.359375 53.6328 0.721694 53.0993 2.02298L45.3984 20.4097H50.8383C50.8383 20.4097 51.7339 17.9349 51.9264 17.402C52.5232 17.402 57.8151 17.402 58.5828 17.402C58.7317 18.1059 59.2014 20.4097 59.2014 20.4097H64.0017L59.8192 0.359375V0.359375Z" fill="#00579F"/>
<path d="M18.214 0.359375L13.1367 14.0319L12.5819 11.259C11.6432 8.05935 8.69931 4.58302 5.41406 2.8545L10.0647 20.3887H15.5471L23.6961 0.359375H18.214V0.359375Z" fill="#00579F"/>
<path d="M8.42661 0.359375H0.0853345L0 0.764503C6.50671 2.42839 10.816 6.43913 12.5865 11.2598L10.7732 2.04481C10.4746 0.764219 9.55722 0.401617 8.42661 0.359375Z" fill="#FAA61A"/>
</g>
<defs>
<clipPath id="clip0">
<rect width="64" height="20.7128" fill="white"/>
</clipPath>
</defs>
</svg>
