<svg width="24" height="24" viewBox="0 0 24 24" fill="none" xmlns="http://www.w3.org/2000/svg">
<path fill-rule="evenodd" clip-rule="evenodd" d="M13.009 5C13.009 5.55228 12.5613 6 12.009 6C11.4567 6 11.009 5.55228 11.009 5C11.009 4.44772 11.4567 4 12.009 4C12.5613 4 13.009 4.44772 13.009 5ZM13.009 7.82929C14.1742 7.41746 15.009 6.30622 15.009 5C15.009 3.34315 13.6659 2 12.009 2C10.3522 2 9.00901 3.34315 9.00901 5C9.00901 6.30622 9.84382 7.41746 11.009 7.82929V11H9.00901V13H11.009V17.9706C7.92611 17.7842 6.48269 16.7411 5.78988 15.8751C5.39275 15.3787 5.19696 14.8861 5.10025 14.5234C5.0841 14.4628 5.07078 14.4061 5.05981 14.354L6.78538 13.8916L3.50888 11.9999L1.61719 15.2764L3.1262 14.8721C3.13868 14.9258 3.15249 14.9814 3.16778 15.0387C3.32106 15.6135 3.62527 16.3709 4.22814 17.1245C5.36305 18.5431 7.41468 19.7803 11.009 19.9736V20L12.009 21L13.009 20V19.9736C16.6033 19.7803 18.655 18.5431 19.7899 17.1245C20.3928 16.3709 20.697 15.6135 20.8502 15.0387C20.8651 14.983 20.8786 14.9288 20.8908 14.8765L22.3833 15.2764L20.4916 11.9999L17.2151 13.8916L18.9573 14.3584C18.9465 14.4094 18.9335 14.4645 18.9178 14.5234C18.8211 14.8861 18.6253 15.3787 18.2281 15.8751C17.5353 16.7411 16.0919 17.7842 13.009 17.9706V13H15.009V11H13.009V7.82929Z" fill="white"/>
</svg>
