<svg width="228" height="81" viewBox="0 0 228 81" fill="none" xmlns="http://www.w3.org/2000/svg">
<g clip-path="url(#clip0)">
<path d="M122.269 4.69983H128.652V31.1023C128.652 32.6041 128.842 33.8153 129.271 34.7357C129.699 35.6562 130.604 36.0922 132.081 36.0922H132.557V37.594H126.699C125.841 37.594 125.127 37.4971 124.555 37.3033C123.984 37.1095 123.507 36.7704 123.174 36.2375C122.841 35.7531 122.602 35.0748 122.459 34.2513C122.317 33.4277 122.269 32.3619 122.269 31.1023V21.6556H109.028V37.594H102.645V11.1915C102.645 9.68966 102.454 8.47854 102.026 7.55808C101.597 6.63763 100.692 6.20162 99.2156 6.20162H98.7393V4.69983H104.598C105.455 4.69983 106.17 4.79672 106.741 5.03894C107.313 5.23272 107.789 5.62028 108.123 6.10473C108.456 6.58918 108.694 7.26741 108.837 8.09098C108.98 8.91454 109.028 9.93189 109.028 11.1915V19.4271H122.269V4.69983Z" fill="#1A3863"/>
<path d="M155.66 4.69983C156.517 4.69983 157.184 4.79672 157.755 5.03894C158.279 5.28117 158.708 5.57184 159.041 5.9594C159.375 6.34696 159.565 6.73452 159.661 7.21897C159.756 7.70342 159.851 8.18787 159.851 8.67232V12.887H158.375C158.375 10.7555 157.851 9.25366 156.803 8.28476C155.755 7.3643 154.231 6.87985 152.278 6.87985H144.323V19.3787H157.089V21.6071H144.323V35.3655H152.707C154.516 35.3655 156.041 34.9779 157.279 34.1544C158.518 33.3308 159.613 31.829 160.423 29.6974L161.756 30.1819L160.327 34.1059C159.946 35.1717 159.518 35.9953 158.946 36.6251C158.375 37.2549 157.422 37.594 156.088 37.594H137.941V11.1915C137.941 9.68966 137.75 8.47854 137.322 7.55808C136.893 6.63763 135.988 6.20162 134.511 6.20162H134.035V4.69983H155.66Z" fill="#1A3863"/>
<path d="M167.368 11.1915C167.368 9.68966 167.177 8.47854 166.748 7.55808C166.32 6.63763 165.415 6.20162 163.938 6.20162H163.462V4.69983H176.703C178.228 4.69983 179.847 4.79672 181.562 4.94205C183.276 5.08739 184.801 5.47495 186.23 6.10473C187.658 6.68607 188.849 7.60653 189.754 8.76921C190.707 9.93189 191.136 11.4821 191.136 13.4684C191.136 14.1466 190.993 14.8733 190.707 15.5999C190.421 16.3266 189.992 17.0049 189.421 17.6831C188.849 18.3129 188.135 18.8942 187.277 19.4271C186.42 19.96 185.42 20.3476 184.277 20.6382C185.896 20.7836 187.23 21.1227 188.278 21.6071C189.326 22.0916 190.183 22.6729 190.85 23.3996C191.517 24.1263 191.945 24.9014 192.183 25.7734C192.422 26.6454 192.564 27.5659 192.564 28.5348C192.564 30.4241 192.136 31.9744 191.278 33.1855C190.421 34.3966 189.326 35.3171 187.944 35.9953C186.563 36.6735 185.039 37.1095 183.276 37.3517C181.562 37.594 179.799 37.6909 178.085 37.6909H167.32V11.1915H167.368ZM176.703 6.68607C176.322 6.68607 175.941 6.68607 175.56 6.73452C175.179 6.78296 174.893 6.83141 174.608 6.87985C174.274 6.9283 173.988 6.97674 173.703 7.02519V19.5724H177.37C179.371 19.5724 180.99 19.088 182.276 18.1191C183.562 17.1502 184.229 15.5031 184.229 13.1293C184.229 11.9181 183.991 10.8523 183.562 10.0288C183.134 9.20521 182.562 8.52698 181.847 8.04253C181.133 7.55808 180.323 7.17052 179.418 6.97674C178.561 6.78296 177.656 6.68607 176.703 6.68607ZM177.418 35.6077C180.133 35.6077 182.181 35.0264 183.61 33.8153C185.039 32.6041 185.753 30.9086 185.753 28.7285C185.753 24.1263 182.991 21.8493 177.418 21.8493H173.75V35.1233C174.036 35.2202 174.369 35.3171 174.75 35.3655C175.417 35.5108 176.227 35.6077 177.18 35.6077H177.418Z" fill="#1A3863"/>
<path d="M222.058 31.2961C222.629 32.7495 223.344 33.9122 224.201 34.7842C225.058 35.6562 226.011 36.1406 227.154 36.286V37.5455C226.916 37.594 226.535 37.6909 226.059 37.7393C225.582 37.7878 225.154 37.8362 224.82 37.8362C224.058 37.8362 223.201 37.7393 222.296 37.594C221.391 37.4486 220.533 37.158 219.628 36.6735C218.771 36.2375 217.961 35.5593 217.199 34.7357C216.437 33.9122 215.77 32.7495 215.151 31.3446L214.008 28.5348H200.909L196.861 37.594H194.432L208.911 4.69983H211.102L222.058 31.2961ZM201.91 26.3063H213.055L207.625 13.2746L201.91 26.3063Z" fill="#1A3863"/>
<path d="M118.218 48.4453V50.044H110.835V72.1834H106.215V50.044H103.69C102.452 50.044 101.452 50.3831 100.737 51.0129C100.023 51.6427 99.6416 52.7569 99.6416 54.3556H98.5938V51.352C98.5938 51.0129 98.6414 50.6253 98.7366 50.2862C98.8319 49.9471 98.9748 49.6564 99.213 49.3658C99.4511 49.1235 99.7369 48.8813 100.118 48.736C100.499 48.5906 101.023 48.4938 101.642 48.4938H118.218V48.4453Z" fill="#0095DB"/>
<path d="M128.647 48.4453C129.171 48.4453 129.79 48.4938 130.457 48.4938C131.124 48.5422 131.838 48.6391 132.553 48.8329C133.267 49.0267 133.934 49.2689 134.601 49.5595C135.268 49.8502 135.887 50.2862 136.411 50.8191C136.935 51.352 137.364 52.0302 137.697 52.8054C138.03 53.5805 138.173 54.5494 138.173 55.6152C138.173 56.6325 138.03 57.553 137.697 58.2796C137.364 59.0063 136.983 59.6361 136.459 60.169C135.935 60.7019 135.363 61.0895 134.744 61.4286C134.125 61.7192 133.458 61.9615 132.839 62.1552C132.219 62.3006 131.6 62.4459 131.076 62.4944C130.505 62.5428 130.076 62.5428 129.695 62.5428H126.313V72.1349H121.693V53.0476C121.693 51.9818 121.55 51.1098 121.264 50.4316C120.979 49.7533 120.312 49.4627 119.216 49.4627H118.883V48.4453H128.647ZM128.647 49.8987C128.361 49.8987 128.076 49.8987 127.79 49.9471C127.504 49.9471 127.266 49.9956 127.028 50.044C126.79 50.0924 126.551 50.1409 126.313 50.1409V61.1379H128.457C129.028 61.1379 129.647 61.041 130.219 60.8957C130.791 60.7503 131.314 60.4112 131.743 59.9752C132.172 59.5392 132.553 58.9579 132.839 58.2312C133.124 57.5045 133.267 56.5841 133.267 55.4698C133.267 54.3556 133.124 53.4351 132.839 52.7569C132.553 52.0302 132.219 51.4489 131.791 51.0129C131.362 50.5769 130.886 50.2862 130.314 50.0924C129.743 49.9956 129.171 49.8987 128.647 49.8987Z" fill="#0095DB"/>
<path d="M154.935 48.4453C155.554 48.4453 156.03 48.5422 156.459 48.6875C156.84 48.8329 157.173 49.0751 157.364 49.3173C157.602 49.5595 157.745 49.8987 157.84 50.2378C157.935 50.5769 157.983 50.916 157.983 51.3036V54.3556H156.935C156.935 52.8054 156.554 51.7396 155.792 51.0613C155.03 50.3831 153.934 50.044 152.506 50.044H146.79V59.0548H155.983V60.6534H146.79V70.5362H152.839C154.125 70.5362 155.221 70.2456 156.125 69.6642C157.03 69.0829 157.793 68.0171 158.412 66.4668L159.364 66.806L158.317 69.6642C158.078 70.4393 157.697 71.0207 157.316 71.5051C156.888 71.9411 156.221 72.1834 155.268 72.1834H142.17V53.096C142.17 52.0302 142.027 51.1582 141.741 50.48C141.455 49.8018 140.788 49.5111 139.693 49.5111H139.359V48.4453H154.935Z" fill="#0095DB"/>
<path d="M163.371 53.1445C163.371 52.0787 163.228 51.2067 162.942 50.5284C162.656 49.8502 161.989 49.5595 160.894 49.5595H160.561V48.4453H170.134C171.23 48.4453 172.421 48.4938 173.659 48.6391C174.897 48.736 175.993 49.0267 177.041 49.4627C178.089 49.8987 178.898 50.5284 179.565 51.352C180.232 52.1756 180.566 53.3383 180.566 54.7432C180.566 55.2276 180.47 55.7605 180.28 56.2934C180.089 56.8263 179.756 57.3107 179.375 57.7952C178.946 58.2796 178.47 58.6672 177.851 59.0548C177.231 59.4423 176.517 59.733 175.707 59.9268C176.85 60.0237 177.803 60.2659 178.613 60.605C179.375 60.9441 179.994 61.3801 180.47 61.8646C180.947 62.349 181.232 62.9304 181.423 63.5601C181.613 64.1899 181.709 64.8682 181.709 65.5464C181.709 66.9029 181.423 68.0171 180.804 68.8891C180.185 69.7611 179.375 70.4393 178.375 70.9238C177.374 71.4082 176.279 71.7473 174.993 71.8927C173.754 72.038 172.468 72.1349 171.23 72.1349H163.371V53.1445ZM170.087 49.8987C169.801 49.8987 169.515 49.8987 169.277 49.9471C169.039 49.9471 168.801 49.9956 168.61 50.044C168.372 50.0924 168.182 50.1409 167.991 50.1409V59.2001H170.658C172.087 59.2001 173.278 58.861 174.231 58.1343C175.183 57.4561 175.612 56.245 175.612 54.5494C175.612 53.6774 175.469 52.9023 175.136 52.3209C174.802 51.7396 174.421 51.2551 173.897 50.8676C173.373 50.5284 172.802 50.2378 172.135 50.0924C171.468 49.9956 170.801 49.8987 170.087 49.8987ZM170.611 70.7785C172.564 70.7785 174.04 70.3424 175.088 69.4704C176.136 68.5984 176.612 67.3873 176.612 65.7886C176.612 62.4944 174.612 60.7988 170.611 60.7988H167.943V70.3909C168.134 70.4393 168.372 70.5362 168.658 70.5847C169.134 70.6816 169.706 70.7785 170.42 70.7785H170.611Z" fill="#0095DB"/>
<path d="M198.95 48.4453C199.57 48.4453 200.046 48.5422 200.475 48.6875C200.856 48.8329 201.189 49.0751 201.38 49.3173C201.618 49.5595 201.761 49.8987 201.856 50.2378C201.951 50.5769 201.999 50.916 201.999 51.3036V54.3556H200.951C200.951 52.8054 200.57 51.7396 199.808 51.0613C199.046 50.3831 197.95 50.044 196.521 50.044H190.805V59.0548H199.998V60.6534H190.805V70.5362H196.855C198.141 70.5362 199.236 70.2456 200.141 69.6642C201.046 69.0829 201.808 68.0171 202.427 66.4668L203.38 66.806L202.332 69.6642C202.094 70.4393 201.713 71.0207 201.332 71.5051C200.903 71.9411 200.236 72.1834 199.284 72.1834H186.185V53.096C186.185 52.0302 186.042 51.1582 185.757 50.48C185.471 49.8018 184.804 49.5111 183.708 49.5111H183.375V48.4453H198.95Z" fill="#0095DB"/>
<path d="M209.335 53.1445C209.335 52.0787 209.192 51.2067 208.907 50.5284C208.621 49.8502 207.954 49.5595 206.858 49.5595H206.525V48.4453H225.435V72.1834H220.814V50.044H213.193V53.096C213.193 56.9232 213.003 60.0721 212.622 62.6397C212.241 65.1588 211.764 67.1935 211.098 68.6469C210.431 70.1487 209.669 71.166 208.764 71.7958C207.859 72.4256 206.906 72.7163 205.811 72.7163C205.382 72.7163 204.953 72.6678 204.62 72.6194C204.286 72.5709 203.953 72.474 203.715 72.3771V71.2629C204.477 71.1176 205.191 70.73 205.858 70.1971C206.525 69.6642 207.097 68.7438 207.621 67.4357C208.145 66.1277 208.526 64.3353 208.859 62.0584C209.192 59.8299 209.335 56.8263 209.335 53.1445Z" fill="#0095DB"/>
<path d="M72.5957 66.9032C72.5957 66.9032 56.3536 56.8266 47.5418 53.1932C39.5398 49.899 27.2987 47.9612 21.1066 51.4976C14.4383 55.3248 14.0096 61.2835 17.5343 64.3356C19.9159 66.4187 24.5361 64.6747 26.9176 62.3978C30.7757 58.6675 35.8723 58.3768 48.1134 60.7506C61.2596 63.3182 65.4511 64.9169 72.5957 66.9032Z" fill="#1A3863"/>
<path d="M73.9308 71.7959C73.9308 71.7959 54.1164 65.7887 45.2094 64.626C37.1121 63.5602 24.5852 63.2211 20.2031 73.0555C16.9166 80.516 25.4901 83.6649 29.8246 78.2875C33.7303 73.443 38.6839 71.4568 47.4957 71.1177C55.0213 70.8754 64.2141 71.699 73.9308 71.7959Z" fill="#1A3863"/>
<path d="M17.2424 17.2467C17.2424 19.7659 17.2424 51.5942 17.2424 51.5942C17.2424 51.5942 12.2412 48.3968 0 47.4279C3.42943 46.459 4.28679 43.7946 5.23941 39.2892C6.23966 34.6869 7.47807 17.5374 8.81173 12.6929C10.3359 7.2186 17.1948 3.29456 25.3397 9.88308C33.5322 16.4232 41.0103 22.9632 43.5347 25.6761C43.5347 22.8663 43.5347 18.7485 43.5347 18.7485H54.0612V52.2724C50.1078 46.9435 36.8664 28.0499 30.4838 21.4614C20.6718 11.288 17.2424 13.1773 17.2424 17.2467Z" fill="#1A3863"/>
<path d="M49.1548 15.5998C49.1548 15.5998 47.2496 4.94187 57.5379 4.94187C67.8738 4.94187 72.8274 5.6201 75.3042 2.56806C78.1621 -0.96842 86.5928 -1.79199 87.0214 6.0561C87.4501 13.9042 82.2107 15.8904 75.8758 15.8904C69.5409 15.8904 55.4897 13.3713 49.1548 15.5998Z" fill="#0095DB"/>
<path d="M57.5824 38.1748C57.7253 31.1502 57.8682 18.3123 65.4415 18.5545C69.8236 18.6999 69.5854 21.8972 69.5854 26.2573C69.5854 30.6173 67.3944 41.1299 70.0141 42.4864C72.6338 43.8913 75.1106 45.0055 71.8241 47.234C68.5375 49.4624 64.9176 51.8362 62.7265 52.5629C60.4879 53.2896 57.2966 53.8709 57.5824 38.1748Z" fill="#0095DB"/>
</g>
<defs>
<clipPath id="clip0">
<rect width="227.152" height="81" fill="white"/>
</clipPath>
</defs>
</svg>
