<svg width="1200" height="112" viewBox="0 0 1200 112" fill="none" xmlns="http://www.w3.org/2000/svg">
<path d="M0 4C0 1.79086 1.79086 0 4 0H1196C1198.21 0 1200 1.79086 1200 4V108C1200 110.209 1198.21 112 1196 112H4C1.79086 112 0 110.209 0 108V4Z" fill="white"/>
<rect x="28.5" y="28.5" width="250" height="55" rx="3.5" fill="white"/>
<path d="M51.8594 61.2656C51.8594 61.9948 51.6536 62.5911 51.2422 63.0547C50.8359 63.5182 50.2578 63.8281 49.5078 63.9844V64.0469C50.4245 64.1615 51.1042 64.4531 51.5469 64.9219C51.9896 65.3906 52.2109 66.0052 52.2109 66.7656C52.2109 67.8542 51.8333 68.6927 51.0781 69.2812C50.3229 69.8646 49.25 70.1562 47.8594 70.1562C47.2552 70.1562 46.7005 70.1094 46.1953 70.0156C45.6953 69.9271 45.2083 69.7682 44.7344 69.5391V68.3047C45.2292 68.5495 45.7552 68.737 46.3125 68.8672C46.875 68.9922 47.4062 69.0547 47.9062 69.0547C49.8802 69.0547 50.8672 68.2812 50.8672 66.7344C50.8672 65.349 49.7786 64.6562 47.6016 64.6562H46.4766V63.5391H47.6172C48.5078 63.5391 49.2135 63.3438 49.7344 62.9531C50.2552 62.5573 50.5156 62.0104 50.5156 61.3125C50.5156 60.7552 50.3229 60.3177 49.9375 60C49.5573 59.6823 49.0391 59.5234 48.3828 59.5234C47.8828 59.5234 47.4115 59.5911 46.9688 59.7266C46.526 59.862 46.0208 60.112 45.4531 60.4766L44.7969 59.6016C45.2656 59.2318 45.8047 58.9427 46.4141 58.7344C47.0286 58.5208 47.6745 58.4141 48.3516 58.4141C49.4609 58.4141 50.3229 58.6693 50.9375 59.1797C51.5521 59.6849 51.8594 60.3802 51.8594 61.2656ZM61.5078 64.2734C61.5078 66.2474 61.1953 67.7214 60.5703 68.6953C59.9505 69.6693 59 70.1562 57.7188 70.1562C56.4896 70.1562 55.5547 69.6589 54.9141 68.6641C54.2734 67.6641 53.9531 66.2005 53.9531 64.2734C53.9531 62.2839 54.263 60.8073 54.8828 59.8438C55.5026 58.8802 56.4479 58.3984 57.7188 58.3984C58.9583 58.3984 59.8984 58.901 60.5391 59.9062C61.1849 60.9115 61.5078 62.3672 61.5078 64.2734ZM55.2656 64.2734C55.2656 65.9349 55.4609 67.1458 55.8516 67.9062C56.2422 68.6615 56.8646 69.0391 57.7188 69.0391C58.5833 69.0391 59.2083 68.6562 59.5938 67.8906C59.9844 67.1198 60.1797 65.9141 60.1797 64.2734C60.1797 62.6328 59.9844 61.4323 59.5938 60.6719C59.2083 59.9062 58.5833 59.5234 57.7188 59.5234C56.8646 59.5234 56.2422 59.901 55.8516 60.6562C55.4609 61.4062 55.2656 62.612 55.2656 64.2734ZM63.5 69.1719C63.5 68.8229 63.5781 68.5599 63.7344 68.3828C63.8958 68.2005 64.125 68.1094 64.4219 68.1094C64.724 68.1094 64.9583 68.2005 65.125 68.3828C65.2969 68.5599 65.3828 68.8229 65.3828 69.1719C65.3828 69.5104 65.2969 69.7708 65.125 69.9531C64.9531 70.1354 64.7188 70.2266 64.4219 70.2266C64.1562 70.2266 63.9349 70.1458 63.7578 69.9844C63.5859 69.8177 63.5 69.5469 63.5 69.1719ZM74.9297 64.2734C74.9297 66.2474 74.6172 67.7214 73.9922 68.6953C73.3724 69.6693 72.4219 70.1562 71.1406 70.1562C69.9115 70.1562 68.9766 69.6589 68.3359 68.6641C67.6953 67.6641 67.375 66.2005 67.375 64.2734C67.375 62.2839 67.6849 60.8073 68.3047 59.8438C68.9245 58.8802 69.8698 58.3984 71.1406 58.3984C72.3802 58.3984 73.3203 58.901 73.9609 59.9062C74.6068 60.9115 74.9297 62.3672 74.9297 64.2734ZM68.6875 64.2734C68.6875 65.9349 68.8828 67.1458 69.2734 67.9062C69.6641 68.6615 70.2865 69.0391 71.1406 69.0391C72.0052 69.0391 72.6302 68.6562 73.0156 67.8906C73.4062 67.1198 73.6016 65.9141 73.6016 64.2734C73.6016 62.6328 73.4062 61.4323 73.0156 60.6719C72.6302 59.9062 72.0052 59.5234 71.1406 59.5234C70.2865 59.5234 69.6641 59.901 69.2734 60.6562C68.8828 61.4062 68.6875 62.612 68.6875 64.2734ZM80.0859 63.0234C81.2891 63.0234 82.2344 63.3229 82.9219 63.9219C83.6146 64.5156 83.9609 65.3307 83.9609 66.3672C83.9609 67.5495 83.5833 68.4766 82.8281 69.1484C82.0781 69.8203 81.0417 70.1562 79.7188 70.1562C78.4323 70.1562 77.4505 69.9505 76.7734 69.5391V68.2891C77.138 68.5234 77.5911 68.7083 78.1328 68.8438C78.6745 68.974 79.2083 69.0391 79.7344 69.0391C80.651 69.0391 81.362 68.8229 81.8672 68.3906C82.3776 67.9583 82.6328 67.3333 82.6328 66.5156C82.6328 64.9219 81.6562 64.125 79.7031 64.125C79.2083 64.125 78.5469 64.2005 77.7188 64.3516L77.0469 63.9219L77.4766 58.5781H83.1562V59.7734H78.5859L78.2969 63.2031C78.8958 63.0833 79.4922 63.0234 80.0859 63.0234ZM86.0781 69.1719C86.0781 68.8229 86.1562 68.5599 86.3125 68.3828C86.474 68.2005 86.7031 68.1094 87 68.1094C87.3021 68.1094 87.5365 68.2005 87.7031 68.3828C87.875 68.5599 87.9609 68.8229 87.9609 69.1719C87.9609 69.5104 87.875 69.7708 87.7031 69.9531C87.5312 70.1354 87.2969 70.2266 87 70.2266C86.7344 70.2266 86.513 70.1458 86.3359 69.9844C86.1641 69.8177 86.0781 69.5469 86.0781 69.1719ZM97.4453 70H89.9375V68.8828L92.9453 65.8594C93.862 64.9323 94.4661 64.2708 94.7578 63.875C95.0495 63.4792 95.2682 63.0938 95.4141 62.7188C95.5599 62.3438 95.6328 61.9401 95.6328 61.5078C95.6328 60.8984 95.4479 60.4167 95.0781 60.0625C94.7083 59.7031 94.1953 59.5234 93.5391 59.5234C93.0651 59.5234 92.6146 59.6016 92.1875 59.7578C91.7656 59.9141 91.2943 60.1979 90.7734 60.6094L90.0859 59.7266C91.138 58.8516 92.2839 58.4141 93.5234 58.4141C94.5964 58.4141 95.4375 58.6901 96.0469 59.2422C96.6562 59.7891 96.9609 60.526 96.9609 61.4531C96.9609 62.1771 96.7578 62.8932 96.3516 63.6016C95.9453 64.3099 95.1849 65.2057 94.0703 66.2891L91.5703 68.7344V68.7969H97.4453V70ZM106.664 64.2734C106.664 66.2474 106.352 67.7214 105.727 68.6953C105.107 69.6693 104.156 70.1562 102.875 70.1562C101.646 70.1562 100.711 69.6589 100.07 68.6641C99.4297 67.6641 99.1094 66.2005 99.1094 64.2734C99.1094 62.2839 99.4193 60.8073 100.039 59.8438C100.659 58.8802 101.604 58.3984 102.875 58.3984C104.115 58.3984 105.055 58.901 105.695 59.9062C106.341 60.9115 106.664 62.3672 106.664 64.2734ZM100.422 64.2734C100.422 65.9349 100.617 67.1458 101.008 67.9062C101.398 68.6615 102.021 69.0391 102.875 69.0391C103.74 69.0391 104.365 68.6562 104.75 67.8906C105.141 67.1198 105.336 65.9141 105.336 64.2734C105.336 62.6328 105.141 61.4323 104.75 60.6719C104.365 59.9062 103.74 59.5234 102.875 59.5234C102.021 59.5234 101.398 59.901 101.008 60.6562C100.617 61.4062 100.422 62.612 100.422 64.2734ZM115.758 70H108.25V68.8828L111.258 65.8594C112.174 64.9323 112.779 64.2708 113.07 63.875C113.362 63.4792 113.581 63.0938 113.727 62.7188C113.872 62.3438 113.945 61.9401 113.945 61.5078C113.945 60.8984 113.76 60.4167 113.391 60.0625C113.021 59.7031 112.508 59.5234 111.852 59.5234C111.378 59.5234 110.927 59.6016 110.5 59.7578C110.078 59.9141 109.607 60.1979 109.086 60.6094L108.398 59.7266C109.451 58.8516 110.596 58.4141 111.836 58.4141C112.909 58.4141 113.75 58.6901 114.359 59.2422C114.969 59.7891 115.273 60.526 115.273 61.4531C115.273 62.1771 115.07 62.8932 114.664 63.6016C114.258 64.3099 113.497 65.2057 112.383 66.2891L109.883 68.7344V68.7969H115.758V70ZM122.211 70H120.945V61.8594C120.945 61.1823 120.966 60.5417 121.008 59.9375C120.898 60.0469 120.776 60.1615 120.641 60.2812C120.505 60.401 119.885 60.9089 118.781 61.8047L118.094 60.9141L121.117 58.5781H122.211V70Z" fill="black"/>
<path opacity="0.5" d="M51.9336 49.2324H50.9844V47H45.0312V49.2324H44.082V46.0977H44.7441C45.3457 45.0859 45.8594 43.8555 46.2852 42.4062C46.7148 40.957 46.9531 39.6328 47 38.4336H50.8496V46.0977H51.9336V49.2324ZM49.8535 46.0977V39.3301H47.9023C47.832 40.2754 47.5957 41.4121 47.1934 42.7402C46.791 44.0645 46.3223 45.1836 45.7871 46.0977H49.8535ZM57.1836 47L56.9902 46.0859H56.9434C56.623 46.4883 56.3027 46.7617 55.9824 46.9062C55.666 47.0469 55.2695 47.1172 54.793 47.1172C54.1562 47.1172 53.6562 46.9531 53.293 46.625C52.9336 46.2969 52.7539 45.8301 52.7539 45.2246C52.7539 43.9277 53.791 43.248 55.8652 43.1855L56.9551 43.1504V42.752C56.9551 42.248 56.8457 41.877 56.627 41.6387C56.4121 41.3965 56.0664 41.2754 55.5898 41.2754C55.0547 41.2754 54.4492 41.4395 53.7734 41.7676L53.4746 41.0234C53.791 40.8516 54.1367 40.7168 54.5117 40.6191C54.8906 40.5215 55.2695 40.4727 55.6484 40.4727C56.4141 40.4727 56.9805 40.6426 57.3477 40.9824C57.7188 41.3223 57.9043 41.8672 57.9043 42.6172V47H57.1836ZM54.9863 46.3145C55.5918 46.3145 56.0664 46.1484 56.4102 45.8164C56.7578 45.4844 56.9316 45.0195 56.9316 44.4219V43.8418L55.959 43.8828C55.1855 43.9102 54.627 44.0312 54.2832 44.2461C53.9434 44.457 53.7734 44.7871 53.7734 45.2363C53.7734 45.5879 53.8789 45.8555 54.0898 46.0391C54.3047 46.2227 54.6035 46.3145 54.9863 46.3145ZM64.2441 41.4102H62.1582V47H61.1855V41.4102H59.123V40.5781H64.2441V41.4102ZM69.4648 47L69.2715 46.0859H69.2246C68.9043 46.4883 68.584 46.7617 68.2637 46.9062C67.9473 47.0469 67.5508 47.1172 67.0742 47.1172C66.4375 47.1172 65.9375 46.9531 65.5742 46.625C65.2148 46.2969 65.0352 45.8301 65.0352 45.2246C65.0352 43.9277 66.0723 43.248 68.1465 43.1855L69.2363 43.1504V42.752C69.2363 42.248 69.127 41.877 68.9082 41.6387C68.6934 41.3965 68.3477 41.2754 67.8711 41.2754C67.3359 41.2754 66.7305 41.4395 66.0547 41.7676L65.7559 41.0234C66.0723 40.8516 66.418 40.7168 66.793 40.6191C67.1719 40.5215 67.5508 40.4727 67.9297 40.4727C68.6953 40.4727 69.2617 40.6426 69.6289 40.9824C70 41.3223 70.1855 41.8672 70.1855 42.6172V47H69.4648ZM67.2676 46.3145C67.873 46.3145 68.3477 46.1484 68.6914 45.8164C69.0391 45.4844 69.2129 45.0195 69.2129 44.4219V43.8418L68.2402 43.8828C67.4668 43.9102 66.9082 44.0312 66.5645 44.2461C66.2246 44.457 66.0547 44.7871 66.0547 45.2363C66.0547 45.5879 66.1602 45.8555 66.3711 46.0391C66.5859 46.2227 66.8848 46.3145 67.2676 46.3145Z" fill="black"/>
<path d="M248 54H246V56H248V54ZM252 54H250V56H252V54ZM256 54H254V56H256V54ZM258 47H257V45H255V47H247V45H245V47H244C242.89 47 242 47.9 242 49V63C242 63.5304 242.211 64.0391 242.586 64.4142C242.961 64.7893 243.47 65 244 65H258C258.53 65 259.039 64.7893 259.414 64.4142C259.789 64.0391 260 63.5304 260 63V49C260 48.4696 259.789 47.9609 259.414 47.5858C259.039 47.2107 258.53 47 258 47ZM258 63H244V52H258V63Z" fill="#2D5FA6"/>
<rect x="28.5" y="28.5" width="250" height="55" rx="3.5" stroke="#E8EBEF"/>
<rect x="295.5" y="28.5" width="296" height="55" rx="3.5" fill="white"/>
<path d="M317.461 59.6016C316.206 59.6016 315.214 60.0208 314.484 60.8594C313.76 61.6927 313.398 62.8359 313.398 64.2891C313.398 65.7839 313.747 66.9401 314.445 67.7578C315.148 68.5703 316.148 68.9766 317.445 68.9766C318.242 68.9766 319.151 68.8333 320.172 68.5469V69.7109C319.38 70.0078 318.404 70.1562 317.242 70.1562C315.56 70.1562 314.26 69.6458 313.344 68.625C312.432 67.6042 311.977 66.1536 311.977 64.2734C311.977 63.0964 312.195 62.0651 312.633 61.1797C313.076 60.2943 313.711 59.612 314.539 59.1328C315.372 58.6536 316.352 58.4141 317.477 58.4141C318.674 58.4141 319.721 58.6328 320.617 59.0703L320.055 60.2109C319.19 59.8047 318.326 59.6016 317.461 59.6016ZM326.086 70.1562C324.82 70.1562 323.82 69.7708 323.086 69C322.357 68.2292 321.992 67.1589 321.992 65.7891C321.992 64.4089 322.331 63.3125 323.008 62.5C323.69 61.6875 324.604 61.2812 325.75 61.2812C326.823 61.2812 327.672 61.6354 328.297 62.3438C328.922 63.0469 329.234 63.9766 329.234 65.1328V65.9531H323.336C323.362 66.9583 323.615 67.7214 324.094 68.2422C324.578 68.763 325.258 69.0234 326.133 69.0234C327.055 69.0234 327.966 68.8307 328.867 68.4453V69.6016C328.409 69.7995 327.974 69.9401 327.562 70.0234C327.156 70.112 326.664 70.1562 326.086 70.1562ZM325.734 62.3672C325.047 62.3672 324.497 62.5911 324.086 63.0391C323.68 63.487 323.44 64.1068 323.367 64.8984H327.844C327.844 64.0807 327.661 63.4557 327.297 63.0234C326.932 62.5859 326.411 62.3672 325.734 62.3672ZM332.75 61.4375V65.0234H337.547V61.4375H338.844V70H337.547V66.1406H332.75V70H331.453V61.4375H332.75ZM346.859 70L346.602 68.7812H346.539C346.112 69.3177 345.685 69.6823 345.258 69.875C344.836 70.0625 344.307 70.1562 343.672 70.1562C342.823 70.1562 342.156 69.9375 341.672 69.5C341.193 69.0625 340.953 68.4401 340.953 67.6328C340.953 65.9036 342.336 64.9974 345.102 64.9141L346.555 64.8672V64.3359C346.555 63.6641 346.409 63.1693 346.117 62.8516C345.831 62.5286 345.37 62.3672 344.734 62.3672C344.021 62.3672 343.214 62.5859 342.312 63.0234L341.914 62.0312C342.336 61.8021 342.797 61.6224 343.297 61.4922C343.802 61.362 344.307 61.2969 344.812 61.2969C345.833 61.2969 346.589 61.5234 347.078 61.9766C347.573 62.4297 347.82 63.1562 347.82 64.1562V70H346.859ZM343.93 69.0859C344.737 69.0859 345.37 68.8646 345.828 68.4219C346.292 67.9792 346.523 67.3594 346.523 66.5625V65.7891L345.227 65.8438C344.195 65.8802 343.451 66.0417 342.992 66.3281C342.539 66.6094 342.312 67.0495 342.312 67.6484C342.312 68.1172 342.453 68.474 342.734 68.7188C343.021 68.9635 343.419 69.0859 343.93 69.0859ZM356.273 62.5469H353.492V70H352.195V62.5469H349.445V61.4375H356.273V62.5469ZM361.391 70.1562C360.151 70.1562 359.19 69.776 358.508 69.0156C357.831 68.25 357.492 67.1693 357.492 65.7734C357.492 64.3411 357.836 63.2344 358.523 62.4531C359.216 61.6719 360.201 61.2812 361.477 61.2812C361.888 61.2812 362.299 61.3255 362.711 61.4141C363.122 61.5026 363.445 61.6068 363.68 61.7266L363.281 62.8281C362.995 62.7135 362.682 62.6198 362.344 62.5469C362.005 62.4688 361.706 62.4297 361.445 62.4297C359.706 62.4297 358.836 63.5391 358.836 65.7578C358.836 66.8099 359.047 67.6172 359.469 68.1797C359.896 68.7422 360.526 69.0234 361.359 69.0234C362.073 69.0234 362.805 68.8698 363.555 68.5625V69.7109C362.982 70.0078 362.26 70.1562 361.391 70.1562ZM370.586 61.4375H372.008L368.312 65.5703L372.312 70H370.797L366.891 65.6641V70H365.594V61.4375H366.891V65.6016L370.586 61.4375ZM379.172 70L378.914 68.7812H378.852C378.424 69.3177 377.997 69.6823 377.57 69.875C377.148 70.0625 376.62 70.1562 375.984 70.1562C375.135 70.1562 374.469 69.9375 373.984 69.5C373.505 69.0625 373.266 68.4401 373.266 67.6328C373.266 65.9036 374.648 64.9974 377.414 64.9141L378.867 64.8672V64.3359C378.867 63.6641 378.721 63.1693 378.43 62.8516C378.143 62.5286 377.682 62.3672 377.047 62.3672C376.333 62.3672 375.526 62.5859 374.625 63.0234L374.227 62.0312C374.648 61.8021 375.109 61.6224 375.609 61.4922C376.115 61.362 376.62 61.2969 377.125 61.2969C378.146 61.2969 378.901 61.5234 379.391 61.9766C379.885 62.4297 380.133 63.1562 380.133 64.1562V70H379.172ZM376.242 69.0859C377.049 69.0859 377.682 68.8646 378.141 68.4219C378.604 67.9792 378.836 67.3594 378.836 66.5625V65.7891L377.539 65.8438C376.508 65.8802 375.763 66.0417 375.305 66.3281C374.852 66.6094 374.625 67.0495 374.625 67.6484C374.625 68.1172 374.766 68.474 375.047 68.7188C375.333 68.9635 375.732 69.0859 376.242 69.0859ZM383.242 70H381.727L384.188 66.3828C383.526 66.237 383.018 65.9557 382.664 65.5391C382.315 65.1172 382.141 64.5885 382.141 63.9531C382.141 63.1719 382.404 62.5573 382.93 62.1094C383.456 61.6615 384.19 61.4375 385.133 61.4375H388.945V70H387.648V66.5781H385.484L383.242 70ZM383.406 63.9688C383.406 64.9583 384.125 65.4531 385.562 65.4531H387.648V62.5625H385.297C384.036 62.5625 383.406 63.0312 383.406 63.9688ZM397.156 70H395.859V61.4375H403.047V70H401.734V62.5625H397.156V70ZM409.781 70.1562C409.224 70.1562 408.714 70.0547 408.25 69.8516C407.792 69.6432 407.406 69.3255 407.094 68.8984H407C407.062 69.3984 407.094 69.8724 407.094 70.3203V73.8438H405.797V61.4375H406.852L407.031 62.6094H407.094C407.427 62.1406 407.815 61.8021 408.258 61.5938C408.701 61.3854 409.208 61.2812 409.781 61.2812C410.917 61.2812 411.792 61.6693 412.406 62.4453C413.026 63.2214 413.336 64.3099 413.336 65.7109C413.336 67.1172 413.021 68.2109 412.391 68.9922C411.766 69.7682 410.896 70.1562 409.781 70.1562ZM409.594 62.3828C408.719 62.3828 408.086 62.625 407.695 63.1094C407.305 63.5938 407.104 64.3646 407.094 65.4219V65.7109C407.094 66.9141 407.294 67.776 407.695 68.2969C408.096 68.8125 408.74 69.0703 409.625 69.0703C410.365 69.0703 410.943 68.7708 411.359 68.1719C411.781 67.5729 411.992 66.7474 411.992 65.6953C411.992 64.6276 411.781 63.8099 411.359 63.2422C410.943 62.6693 410.354 62.3828 409.594 62.3828ZM416.828 61.4375V66.8672L416.773 68.2891L416.75 68.7344L421.383 61.4375H423V70H421.789V64.7656L421.812 63.7344L421.852 62.7188L417.227 70H415.609V61.4375H416.828ZM429.172 70.1562C427.932 70.1562 426.971 69.776 426.289 69.0156C425.612 68.25 425.273 67.1693 425.273 65.7734C425.273 64.3411 425.617 63.2344 426.305 62.4531C426.997 61.6719 427.982 61.2812 429.258 61.2812C429.669 61.2812 430.081 61.3255 430.492 61.4141C430.904 61.5026 431.227 61.6068 431.461 61.7266L431.062 62.8281C430.776 62.7135 430.464 62.6198 430.125 62.5469C429.786 62.4688 429.487 62.4297 429.227 62.4297C427.487 62.4297 426.617 63.5391 426.617 65.7578C426.617 66.8099 426.828 67.6172 427.25 68.1797C427.677 68.7422 428.307 69.0234 429.141 69.0234C429.854 69.0234 430.586 68.8698 431.336 68.5625V69.7109C430.763 70.0078 430.042 70.1562 429.172 70.1562ZM439.148 62.5469H436.367V70H435.07V62.5469H432.32V61.4375H439.148V62.5469ZM446.109 70L445.852 68.7812H445.789C445.362 69.3177 444.935 69.6823 444.508 69.875C444.086 70.0625 443.557 70.1562 442.922 70.1562C442.073 70.1562 441.406 69.9375 440.922 69.5C440.443 69.0625 440.203 68.4401 440.203 67.6328C440.203 65.9036 441.586 64.9974 444.352 64.9141L445.805 64.8672V64.3359C445.805 63.6641 445.659 63.1693 445.367 62.8516C445.081 62.5286 444.62 62.3672 443.984 62.3672C443.271 62.3672 442.464 62.5859 441.562 63.0234L441.164 62.0312C441.586 61.8021 442.047 61.6224 442.547 61.4922C443.052 61.362 443.557 61.2969 444.062 61.2969C445.083 61.2969 445.839 61.5234 446.328 61.9766C446.823 62.4297 447.07 63.1562 447.07 64.1562V70H446.109ZM443.18 69.0859C443.987 69.0859 444.62 68.8646 445.078 68.4219C445.542 67.9792 445.773 67.3594 445.773 66.5625V65.7891L444.477 65.8438C443.445 65.8802 442.701 66.0417 442.242 66.3281C441.789 66.6094 441.562 67.0495 441.562 67.6484C441.562 68.1172 441.703 68.474 441.984 68.7188C442.271 68.9635 442.669 69.0859 443.18 69.0859ZM451.047 61.4375V65.0234H455.844V61.4375H457.141V70H455.844V66.1406H451.047V70H449.75V61.4375H451.047ZM461.188 64.9766H463.828C466.016 64.9766 467.109 65.7812 467.109 67.3906C467.109 68.2344 466.823 68.8802 466.25 69.3281C465.682 69.776 464.849 70 463.75 70H459.891V61.4375H461.188V64.9766ZM461.188 66.0938V68.9141H463.688C464.375 68.9141 464.901 68.7943 465.266 68.5547C465.63 68.3151 465.812 67.9531 465.812 67.4688C465.812 66.9948 465.643 66.6484 465.305 66.4297C464.971 66.2057 464.419 66.0938 463.648 66.0938H461.188ZM472.781 65.6172C472.781 64.237 472.982 62.9453 473.383 61.7422C473.789 60.5391 474.372 59.4844 475.133 58.5781H476.398C475.648 59.5833 475.083 60.6875 474.703 61.8906C474.328 63.0938 474.141 64.3307 474.141 65.6016C474.141 66.8516 474.333 68.0729 474.719 69.2656C475.104 70.4583 475.659 71.5469 476.383 72.5312H475.133C474.367 71.6458 473.784 70.612 473.383 69.4297C472.982 68.2474 472.781 66.9766 472.781 65.6172ZM483.336 59.6016C482.081 59.6016 481.089 60.0208 480.359 60.8594C479.635 61.6927 479.273 62.8359 479.273 64.2891C479.273 65.7839 479.622 66.9401 480.32 67.7578C481.023 68.5703 482.023 68.9766 483.32 68.9766C484.117 68.9766 485.026 68.8333 486.047 68.5469V69.7109C485.255 70.0078 484.279 70.1562 483.117 70.1562C481.435 70.1562 480.135 69.6458 479.219 68.625C478.307 67.6042 477.852 66.1536 477.852 64.2734C477.852 63.0964 478.07 62.0651 478.508 61.1797C478.951 60.2943 479.586 59.612 480.414 59.1328C481.247 58.6536 482.227 58.4141 483.352 58.4141C484.549 58.4141 485.596 58.6328 486.492 59.0703L485.93 60.2109C485.065 59.8047 484.201 59.6016 483.336 59.6016ZM489.641 70H488.344V61.4375H495.531V70H494.219V62.5625H489.641V70ZM497.836 64.8672C497.836 62.9922 498.112 61.5312 498.664 60.4844C499.216 59.4323 500.091 58.776 501.289 58.5156C502.779 58.1979 504.091 57.9401 505.227 57.7422L505.469 58.8828C503.661 59.1849 502.37 59.4245 501.594 59.6016C500.839 59.7734 500.271 60.1797 499.891 60.8203C499.516 61.4609 499.31 62.3333 499.273 63.4375H499.367C499.69 63 500.107 62.6562 500.617 62.4062C501.128 62.1562 501.661 62.0312 502.219 62.0312C503.271 62.0312 504.091 62.3724 504.68 63.0547C505.268 63.737 505.562 64.6823 505.562 65.8906C505.562 67.2292 505.221 68.276 504.539 69.0312C503.857 69.7812 502.906 70.1562 501.688 70.1562C500.484 70.1562 499.542 69.6953 498.859 68.7734C498.177 67.8516 497.836 66.5495 497.836 64.8672ZM501.805 69.0703C503.393 69.0703 504.188 68.0573 504.188 66.0312C504.188 64.099 503.466 63.1328 502.023 63.1328C501.628 63.1328 501.245 63.2161 500.875 63.3828C500.51 63.5443 500.174 63.7604 499.867 64.0312C499.565 64.3021 499.331 64.5807 499.164 64.8672C499.164 66.237 499.38 67.2812 499.812 68C500.245 68.7135 500.909 69.0703 501.805 69.0703ZM510.547 65.6172C510.547 66.987 510.344 68.263 509.938 69.4453C509.536 70.6276 508.956 71.6562 508.195 72.5312H506.945C507.669 71.5521 508.224 70.4661 508.609 69.2734C508.995 68.0755 509.188 66.8516 509.188 65.6016C509.188 64.3307 508.997 63.0938 508.617 61.8906C508.242 60.6875 507.68 59.5833 506.93 58.5781H508.195C508.961 59.4896 509.544 60.5495 509.945 61.7578C510.346 62.9609 510.547 64.2474 510.547 65.6172Z" fill="black"/>
<path opacity="0.5" d="M319.613 42.7051C319.613 44.0762 319.266 45.1543 318.57 45.9395C317.879 46.7246 316.916 47.1172 315.682 47.1172C314.42 47.1172 313.445 46.7324 312.758 45.9629C312.074 45.1895 311.732 44.0996 311.732 42.6934C311.732 41.2988 312.076 40.2188 312.764 39.4531C313.451 38.6836 314.428 38.2988 315.693 38.2988C316.924 38.2988 317.885 38.6895 318.576 39.4707C319.268 40.252 319.613 41.3301 319.613 42.7051ZM312.787 42.7051C312.787 43.8652 313.033 44.7461 313.525 45.3477C314.021 45.9453 314.74 46.2441 315.682 46.2441C316.631 46.2441 317.348 45.9453 317.832 45.3477C318.316 44.75 318.559 43.8691 318.559 42.7051C318.559 41.5527 318.316 40.6797 317.832 40.0859C317.352 39.4883 316.639 39.1895 315.693 39.1895C314.744 39.1895 314.021 39.4902 313.525 40.0918C313.033 40.6895 312.787 41.5605 312.787 42.7051ZM325.713 41.4102H323.627V47H322.654V41.4102H320.592V40.5781H325.713V41.4102ZM330.729 40.5781H331.795L329.023 43.6777L332.023 47H330.887L327.957 43.748V47H326.984V40.5781H327.957V43.7012L330.729 40.5781ZM332.199 40.5781H333.242L334.648 44.2402C334.957 45.0762 335.148 45.6797 335.223 46.0508H335.27C335.32 45.8516 335.426 45.5117 335.586 45.0312C335.75 44.5469 336.281 43.0625 337.18 40.5781H338.223L335.463 47.8906C335.189 48.6133 334.869 49.125 334.502 49.4258C334.139 49.7305 333.691 49.8828 333.16 49.8828C332.863 49.8828 332.57 49.8496 332.281 49.7832V49.0039C332.496 49.0508 332.736 49.0742 333.002 49.0742C333.67 49.0742 334.146 48.6992 334.432 47.9492L334.789 47.0352L332.199 40.5781ZM344.844 49.2207H343.9V47H339.412V49.2207H338.475V46.1621H338.979C339.502 45.4512 339.912 44.6172 340.209 43.6602C340.506 42.7031 340.66 41.6758 340.672 40.5781H343.924V46.1621H344.844V49.2207ZM342.986 46.1621V41.3457H341.545C341.494 42.2129 341.326 43.0918 341.041 43.9824C340.76 44.8691 340.408 45.5957 339.986 46.1621H342.986ZM350.082 47L349.889 46.0859H349.842C349.521 46.4883 349.201 46.7617 348.881 46.9062C348.564 47.0469 348.168 47.1172 347.691 47.1172C347.055 47.1172 346.555 46.9531 346.191 46.625C345.832 46.2969 345.652 45.8301 345.652 45.2246C345.652 43.9277 346.689 43.248 348.764 43.1855L349.854 43.1504V42.752C349.854 42.248 349.744 41.877 349.525 41.6387C349.311 41.3965 348.965 41.2754 348.488 41.2754C347.953 41.2754 347.348 41.4395 346.672 41.7676L346.373 41.0234C346.689 40.8516 347.035 40.7168 347.41 40.6191C347.789 40.5215 348.168 40.4727 348.547 40.4727C349.312 40.4727 349.879 40.6426 350.246 40.9824C350.617 41.3223 350.803 41.8672 350.803 42.6172V47H350.082ZM347.885 46.3145C348.49 46.3145 348.965 46.1484 349.309 45.8164C349.656 45.4844 349.83 45.0195 349.83 44.4219V43.8418L348.857 43.8828C348.084 43.9102 347.525 44.0312 347.182 44.2461C346.842 44.457 346.672 44.7871 346.672 45.2363C346.672 45.5879 346.777 45.8555 346.988 46.0391C347.203 46.2227 347.502 46.3145 347.885 46.3145Z" fill="black"/>
<path d="M559.41 52.5801L564 57.1701L568.59 52.5801L570 54.0001L564 60.0001L558 54.0001L559.41 52.5801Z" fill="#2D5FA6"/>
<rect x="295.5" y="28.5" width="296" height="55" rx="3.5" stroke="#E8EBEF"/>
<rect x="608.5" y="28.5" width="296" height="55" rx="3.5" fill="white"/>
<path d="M629.586 70H628.32V61.8594C628.32 61.1823 628.341 60.5417 628.383 59.9375C628.273 60.0469 628.151 60.1615 628.016 60.2812C627.88 60.401 627.26 60.9089 626.156 61.8047L625.469 60.9141L628.492 58.5781H629.586V70ZM641.508 64.2734C641.508 66.2474 641.195 67.7214 640.57 68.6953C639.951 69.6693 639 70.1562 637.719 70.1562C636.49 70.1562 635.555 69.6589 634.914 68.6641C634.273 67.6641 633.953 66.2005 633.953 64.2734C633.953 62.2839 634.263 60.8073 634.883 59.8438C635.503 58.8802 636.448 58.3984 637.719 58.3984C638.958 58.3984 639.898 58.901 640.539 59.9062C641.185 60.9115 641.508 62.3672 641.508 64.2734ZM635.266 64.2734C635.266 65.9349 635.461 67.1458 635.852 67.9062C636.242 68.6615 636.865 69.0391 637.719 69.0391C638.583 69.0391 639.208 68.6562 639.594 67.8906C639.984 67.1198 640.18 65.9141 640.18 64.2734C640.18 62.6328 639.984 61.4323 639.594 60.6719C639.208 59.9062 638.583 59.5234 637.719 59.5234C636.865 59.5234 636.242 59.901 635.852 60.6562C635.461 61.4062 635.266 62.612 635.266 64.2734ZM643.5 69.1719C643.5 68.8229 643.578 68.5599 643.734 68.3828C643.896 68.2005 644.125 68.1094 644.422 68.1094C644.724 68.1094 644.958 68.2005 645.125 68.3828C645.297 68.5599 645.383 68.8229 645.383 69.1719C645.383 69.5104 645.297 69.7708 645.125 69.9531C644.953 70.1354 644.719 70.2266 644.422 70.2266C644.156 70.2266 643.935 70.1458 643.758 69.9844C643.586 69.8177 643.5 69.5469 643.5 69.1719ZM643.5 62.2734C643.5 61.5703 643.807 61.2188 644.422 61.2188C645.062 61.2188 645.383 61.5703 645.383 62.2734C645.383 62.612 645.297 62.8724 645.125 63.0547C644.953 63.237 644.719 63.3281 644.422 63.3281C644.156 63.3281 643.935 63.2474 643.758 63.0859C643.586 62.9193 643.5 62.6484 643.5 62.2734ZM654.93 64.2734C654.93 66.2474 654.617 67.7214 653.992 68.6953C653.372 69.6693 652.422 70.1562 651.141 70.1562C649.911 70.1562 648.977 69.6589 648.336 68.6641C647.695 67.6641 647.375 66.2005 647.375 64.2734C647.375 62.2839 647.685 60.8073 648.305 59.8438C648.924 58.8802 649.87 58.3984 651.141 58.3984C652.38 58.3984 653.32 58.901 653.961 59.9062C654.607 60.9115 654.93 62.3672 654.93 64.2734ZM648.688 64.2734C648.688 65.9349 648.883 67.1458 649.273 67.9062C649.664 68.6615 650.286 69.0391 651.141 69.0391C652.005 69.0391 652.63 68.6562 653.016 67.8906C653.406 67.1198 653.602 65.9141 653.602 64.2734C653.602 62.6328 653.406 61.4323 653.016 60.6719C652.63 59.9062 652.005 59.5234 651.141 59.5234C650.286 59.5234 649.664 59.901 649.273 60.6562C648.883 61.4062 648.688 62.612 648.688 64.2734ZM664.086 64.2734C664.086 66.2474 663.773 67.7214 663.148 68.6953C662.529 69.6693 661.578 70.1562 660.297 70.1562C659.068 70.1562 658.133 69.6589 657.492 68.6641C656.852 67.6641 656.531 66.2005 656.531 64.2734C656.531 62.2839 656.841 60.8073 657.461 59.8438C658.081 58.8802 659.026 58.3984 660.297 58.3984C661.536 58.3984 662.477 58.901 663.117 59.9062C663.763 60.9115 664.086 62.3672 664.086 64.2734ZM657.844 64.2734C657.844 65.9349 658.039 67.1458 658.43 67.9062C658.82 68.6615 659.443 69.0391 660.297 69.0391C661.161 69.0391 661.786 68.6562 662.172 67.8906C662.562 67.1198 662.758 65.9141 662.758 64.2734C662.758 62.6328 662.562 61.4323 662.172 60.6719C661.786 59.9062 661.161 59.5234 660.297 59.5234C659.443 59.5234 658.82 59.901 658.43 60.6562C658.039 61.4062 657.844 62.612 657.844 64.2734Z" fill="black"/>
<path opacity="0.5" d="M625.178 38.4336H627.598C628.734 38.4336 629.557 38.6035 630.064 38.9434C630.572 39.2832 630.826 39.8203 630.826 40.5547C630.826 41.0625 630.684 41.4824 630.398 41.8145C630.117 42.1426 629.705 42.3555 629.162 42.4531V42.5117C630.463 42.7344 631.113 43.418 631.113 44.5625C631.113 45.3281 630.854 45.9258 630.334 46.3555C629.818 46.7852 629.096 47 628.166 47H625.178V38.4336ZM626.174 42.1016H627.814C628.518 42.1016 629.023 41.9922 629.332 41.7734C629.641 41.5508 629.795 41.1777 629.795 40.6543C629.795 40.1738 629.623 39.8281 629.279 39.6172C628.936 39.4023 628.389 39.2949 627.639 39.2949H626.174V42.1016ZM626.174 42.9453V46.1504H627.961C628.652 46.1504 629.172 46.0176 629.52 45.752C629.871 45.4824 630.047 45.0625 630.047 44.4922C630.047 43.9609 629.867 43.5703 629.508 43.3203C629.152 43.0703 628.609 42.9453 627.879 42.9453H626.174ZM635.801 47.1172C635.383 47.1172 635 47.041 634.652 46.8887C634.309 46.7324 634.02 46.4941 633.785 46.1738H633.715C633.762 46.5488 633.785 46.9043 633.785 47.2402V49.8828H632.812V40.5781H633.604L633.738 41.457H633.785C634.035 41.1055 634.326 40.8516 634.658 40.6953C634.99 40.5391 635.371 40.4609 635.801 40.4609C636.652 40.4609 637.309 40.752 637.77 41.334C638.234 41.916 638.467 42.7324 638.467 43.7832C638.467 44.8379 638.23 45.6582 637.758 46.2441C637.289 46.8262 636.637 47.1172 635.801 47.1172ZM635.66 41.2871C635.004 41.2871 634.529 41.4688 634.236 41.832C633.943 42.1953 633.793 42.7734 633.785 43.5664V43.7832C633.785 44.6855 633.936 45.332 634.236 45.7227C634.537 46.1094 635.02 46.3027 635.684 46.3027C636.238 46.3027 636.672 46.0781 636.984 45.6289C637.301 45.1797 637.459 44.5605 637.459 43.7715C637.459 42.9707 637.301 42.3574 636.984 41.9316C636.672 41.502 636.23 41.2871 635.66 41.2871ZM642.885 47.1172C641.936 47.1172 641.186 46.8281 640.635 46.25C640.088 45.6719 639.814 44.8691 639.814 43.8418C639.814 42.8066 640.068 41.9844 640.576 41.375C641.088 40.7656 641.773 40.4609 642.633 40.4609C643.438 40.4609 644.074 40.7266 644.543 41.2578C645.012 41.7852 645.246 42.4824 645.246 43.3496V43.9648H640.822C640.842 44.7188 641.031 45.291 641.391 45.6816C641.754 46.0723 642.264 46.2676 642.92 46.2676C643.611 46.2676 644.295 46.123 644.971 45.834V46.7012C644.627 46.8496 644.301 46.9551 643.992 47.0176C643.688 47.084 643.318 47.1172 642.885 47.1172ZM642.621 41.2754C642.105 41.2754 641.693 41.4434 641.385 41.7793C641.08 42.1152 640.9 42.5801 640.846 43.1738H644.203C644.203 42.5605 644.066 42.0918 643.793 41.7676C643.52 41.4395 643.129 41.2754 642.621 41.2754ZM650.244 46.0625L650.426 45.5176L650.678 44.8262L652.418 40.5898H653.654V47H652.793V41.6973L652.676 42.0371L652.336 42.9336L650.678 47H649.863L648.205 42.9219C647.998 42.3984 647.855 41.9902 647.777 41.6973V47H646.91V40.5898H648.1L649.781 44.6621C649.949 45.0918 650.104 45.5586 650.244 46.0625ZM656.057 47H654.92L656.766 44.2871C656.27 44.1777 655.889 43.9668 655.623 43.6543C655.361 43.3379 655.23 42.9414 655.23 42.4648C655.23 41.8789 655.428 41.418 655.822 41.082C656.217 40.7461 656.768 40.5781 657.475 40.5781H660.334V47H659.361V44.4336H657.738L656.057 47ZM656.18 42.4766C656.18 43.2188 656.719 43.5898 657.797 43.5898H659.361V41.4219H657.598C656.652 41.4219 656.18 41.7734 656.18 42.4766ZM671.062 43.7832C671.062 44.8301 670.799 45.6484 670.271 46.2383C669.744 46.8242 669.016 47.1172 668.086 47.1172C667.512 47.1172 667.002 46.9824 666.557 46.7129C666.111 46.4434 665.768 46.0566 665.525 45.5527C665.283 45.0488 665.162 44.459 665.162 43.7832C665.162 42.7363 665.424 41.9219 665.947 41.3398C666.471 40.7539 667.197 40.4609 668.127 40.4609C669.025 40.4609 669.738 40.7598 670.266 41.3574C670.797 41.9551 671.062 42.7637 671.062 43.7832ZM666.17 43.7832C666.17 44.6035 666.334 45.2285 666.662 45.6582C666.99 46.0879 667.473 46.3027 668.109 46.3027C668.746 46.3027 669.229 46.0898 669.557 45.6641C669.889 45.2344 670.055 44.6074 670.055 43.7832C670.055 42.9668 669.889 42.3477 669.557 41.9258C669.229 41.5 668.742 41.2871 668.098 41.2871C667.461 41.2871 666.98 41.4961 666.656 41.9141C666.332 42.332 666.17 42.9551 666.17 43.7832ZM677.104 41.4102H675.018V47H674.045V41.4102H671.982V40.5781H677.104V41.4102ZM679.348 47H678.375V40.5781H683.766V47H682.781V41.4219H679.348V47ZM688.816 47.1172C688.398 47.1172 688.016 47.041 687.668 46.8887C687.324 46.7324 687.035 46.4941 686.801 46.1738H686.73C686.777 46.5488 686.801 46.9043 686.801 47.2402V49.8828H685.828V40.5781H686.619L686.754 41.457H686.801C687.051 41.1055 687.342 40.8516 687.674 40.6953C688.006 40.5391 688.387 40.4609 688.816 40.4609C689.668 40.4609 690.324 40.752 690.785 41.334C691.25 41.916 691.482 42.7324 691.482 43.7832C691.482 44.8379 691.246 45.6582 690.773 46.2441C690.305 46.8262 689.652 47.1172 688.816 47.1172ZM688.676 41.2871C688.02 41.2871 687.545 41.4688 687.252 41.832C686.959 42.1953 686.809 42.7734 686.801 43.5664V43.7832C686.801 44.6855 686.951 45.332 687.252 45.7227C687.553 46.1094 688.035 46.3027 688.699 46.3027C689.254 46.3027 689.688 46.0781 690 45.6289C690.316 45.1797 690.475 44.5605 690.475 43.7715C690.475 42.9707 690.316 42.3574 690 41.9316C689.688 41.502 689.246 41.2871 688.676 41.2871ZM697.137 47L696.943 46.0859H696.896C696.576 46.4883 696.256 46.7617 695.936 46.9062C695.619 47.0469 695.223 47.1172 694.746 47.1172C694.109 47.1172 693.609 46.9531 693.246 46.625C692.887 46.2969 692.707 45.8301 692.707 45.2246C692.707 43.9277 693.744 43.248 695.818 43.1855L696.908 43.1504V42.752C696.908 42.248 696.799 41.877 696.58 41.6387C696.365 41.3965 696.02 41.2754 695.543 41.2754C695.008 41.2754 694.402 41.4395 693.727 41.7676L693.428 41.0234C693.744 40.8516 694.09 40.7168 694.465 40.6191C694.844 40.5215 695.223 40.4727 695.602 40.4727C696.367 40.4727 696.934 40.6426 697.301 40.9824C697.672 41.3223 697.857 41.8672 697.857 42.6172V47H697.137ZM694.939 46.3145C695.545 46.3145 696.02 46.1484 696.363 45.8164C696.711 45.4844 696.885 45.0195 696.885 44.4219V43.8418L695.912 43.8828C695.139 43.9102 694.58 44.0312 694.236 44.2461C693.896 44.457 693.727 44.7871 693.727 45.2363C693.727 45.5879 693.832 45.8555 694.043 46.0391C694.258 46.2227 694.557 46.3145 694.939 46.3145ZM705.076 42.1895C705.076 42.6074 704.955 42.9258 704.713 43.1445C704.475 43.3594 704.139 43.5039 703.705 43.5781V43.6309C704.252 43.7051 704.65 43.8652 704.9 44.1113C705.154 44.3574 705.281 44.6973 705.281 45.1309C705.281 45.7285 705.061 46.1895 704.619 46.5137C704.182 46.8379 703.541 47 702.697 47H699.867V40.5781H702.686C704.279 40.5781 705.076 41.1152 705.076 42.1895ZM704.309 45.0664C704.309 44.7188 704.176 44.4668 703.91 44.3105C703.648 44.1504 703.213 44.0703 702.604 44.0703H700.84V46.1855H702.627C703.748 46.1855 704.309 45.8125 704.309 45.0664ZM704.127 42.2832C704.127 41.9707 704.006 41.75 703.764 41.6211C703.525 41.4883 703.162 41.4219 702.674 41.4219H700.84V43.2324H702.486C703.088 43.2324 703.512 43.1582 703.758 43.0098C704.004 42.8613 704.127 42.6191 704.127 42.2832ZM711.486 47H710.502V41.4102H708.574C708.469 42.8008 708.322 43.9043 708.135 44.7207C707.947 45.5371 707.703 46.1348 707.402 46.5137C707.105 46.8926 706.727 47.082 706.266 47.082C706.055 47.082 705.887 47.0586 705.762 47.0117V46.291C705.848 46.3145 705.945 46.3262 706.055 46.3262C706.504 46.3262 706.861 45.8516 707.127 44.9023C707.393 43.9531 707.594 42.5117 707.73 40.5781H711.486V47ZM716.268 47.1172C715.318 47.1172 714.568 46.8281 714.018 46.25C713.471 45.6719 713.197 44.8691 713.197 43.8418C713.197 42.8066 713.451 41.9844 713.959 41.375C714.471 40.7656 715.156 40.4609 716.016 40.4609C716.82 40.4609 717.457 40.7266 717.926 41.2578C718.395 41.7852 718.629 42.4824 718.629 43.3496V43.9648H714.205C714.225 44.7188 714.414 45.291 714.773 45.6816C715.137 46.0723 715.646 46.2676 716.303 46.2676C716.994 46.2676 717.678 46.123 718.354 45.834V46.7012C718.01 46.8496 717.684 46.9551 717.375 47.0176C717.07 47.084 716.701 47.1172 716.268 47.1172ZM716.004 41.2754C715.488 41.2754 715.076 41.4434 714.768 41.7793C714.463 42.1152 714.283 42.5801 714.229 43.1738H717.586C717.586 42.5605 717.449 42.0918 717.176 41.7676C716.902 41.4395 716.512 41.2754 716.004 41.2754ZM721.266 40.5781V43.2676H724.863V40.5781H725.836V47H724.863V44.1055H721.266V47H720.293V40.5781H721.266ZM728.812 40.5781V44.6504L728.771 45.7168L728.754 46.0508L732.229 40.5781H733.441V47H732.533V43.0742L732.551 42.3008L732.58 41.5391L729.111 47H727.898V40.5781H728.812ZM735.826 47H734.689L736.535 44.2871C736.039 44.1777 735.658 43.9668 735.393 43.6543C735.131 43.3379 735 42.9414 735 42.4648C735 41.8789 735.197 41.418 735.592 41.082C735.986 40.7461 736.537 40.5781 737.244 40.5781H740.104V47H739.131V44.4336H737.508L735.826 47ZM735.949 42.4766C735.949 43.2188 736.488 43.5898 737.566 43.5898H739.131V41.4219H737.367C736.422 41.4219 735.949 41.7734 735.949 42.4766Z" fill="black"/>
<path d="M872.41 52.5801L877 57.1701L881.59 52.5801L883 54.0001L877 60.0001L871 54.0001L872.41 52.5801Z" fill="#2D5FA6"/>
<rect x="608.5" y="28.5" width="296" height="55" rx="3.5" stroke="#E8EBEF"/>
<rect x="921" y="28" width="251" height="56" rx="4" fill="#FFBF4F"/>
<path d="M997.789 62H996.18L990.898 56.2109V62H989.57V50.5781H990.898V56.1094L996.047 50.5781H997.57L992.516 56.125L997.789 62ZM997.812 53.4375H999.203L1001.08 58.3203C1001.49 59.4349 1001.74 60.2396 1001.84 60.7344H1001.91C1001.97 60.4688 1002.11 60.0156 1002.33 59.375C1002.55 58.7292 1003.26 56.75 1004.45 53.4375H1005.84L1002.16 63.1875C1001.8 64.151 1001.37 64.8333 1000.88 65.2344C1000.4 65.6406 999.802 65.8438 999.094 65.8438C998.698 65.8438 998.307 65.7995 997.922 65.7109V64.6719C998.208 64.7344 998.529 64.7656 998.883 64.7656C999.773 64.7656 1000.41 64.2656 1000.79 63.2656L1001.27 62.0469L997.812 53.4375ZM1008.53 62H1007.23V53.4375H1014.42V62H1013.11V54.5625H1008.53V62ZM1018.39 53.4375V58.8672L1018.34 60.2891L1018.31 60.7344L1022.95 53.4375H1024.56V62H1023.35V56.7656L1023.38 55.7344L1023.41 54.7188L1018.79 62H1017.17V53.4375H1018.39ZM1033.09 54.5469H1030.3V62H1029.01V54.5469H1026.26V53.4375H1033.09V54.5469ZM1036.08 56.9766H1038.72C1040.91 56.9766 1042 57.7812 1042 59.3906C1042 60.2344 1041.71 60.8802 1041.14 61.3281C1040.57 61.776 1039.74 62 1038.64 62H1034.78V53.4375H1036.08V56.9766ZM1036.08 58.0938V60.9141H1038.58C1039.27 60.9141 1039.79 60.7943 1040.16 60.5547C1040.52 60.3151 1040.7 59.9531 1040.7 59.4688C1040.7 58.9948 1040.53 58.6484 1040.2 58.4297C1039.86 58.2057 1039.31 58.0938 1038.54 58.0938H1036.08ZM1047.96 56.8672C1047.96 54.9922 1048.24 53.5312 1048.79 52.4844C1049.34 51.4323 1050.22 50.776 1051.41 50.5156C1052.9 50.1979 1054.22 49.9401 1055.35 49.7422L1055.59 50.8828C1053.79 51.1849 1052.49 51.4245 1051.72 51.6016C1050.96 51.7734 1050.4 52.1797 1050.02 52.8203C1049.64 53.4609 1049.43 54.3333 1049.4 55.4375H1049.49C1049.82 55 1050.23 54.6562 1050.74 54.4062C1051.25 54.1562 1051.79 54.0312 1052.34 54.0312C1053.4 54.0312 1054.22 54.3724 1054.8 55.0547C1055.39 55.737 1055.69 56.6823 1055.69 57.8906C1055.69 59.2292 1055.35 60.276 1054.66 61.0312C1053.98 61.7812 1053.03 62.1562 1051.81 62.1562C1050.61 62.1562 1049.67 61.6953 1048.98 60.7734C1048.3 59.8516 1047.96 58.5495 1047.96 56.8672ZM1051.93 61.0703C1053.52 61.0703 1054.31 60.0573 1054.31 58.0312C1054.31 56.099 1053.59 55.1328 1052.15 55.1328C1051.75 55.1328 1051.37 55.2161 1051 55.3828C1050.64 55.5443 1050.3 55.7604 1049.99 56.0312C1049.69 56.3021 1049.46 56.5807 1049.29 56.8672C1049.29 58.237 1049.51 59.2812 1049.94 60C1050.37 60.7135 1051.03 61.0703 1051.93 61.0703ZM1059.17 53.4375V58.8672L1059.12 60.2891L1059.09 60.7344L1063.73 53.4375H1065.34V62H1064.13V56.7656L1064.16 55.7344L1064.2 54.7188L1059.57 62H1057.95V53.4375H1059.17ZM1074.48 62H1073.16V54.5469H1070.59C1070.45 56.401 1070.26 57.8724 1070.01 58.9609C1069.76 60.0495 1069.43 60.8464 1069.03 61.3516C1068.64 61.8568 1068.13 62.1094 1067.52 62.1094C1067.23 62.1094 1067.01 62.0781 1066.84 62.0156V61.0547C1066.96 61.0859 1067.09 61.1016 1067.23 61.1016C1067.83 61.1016 1068.31 60.4688 1068.66 59.2031C1069.02 57.9375 1069.29 56.0156 1069.47 53.4375H1074.48V62ZM1080.85 62.1562C1079.59 62.1562 1078.59 61.7708 1077.85 61C1077.12 60.2292 1076.76 59.1589 1076.76 57.7891C1076.76 56.4089 1077.1 55.3125 1077.77 54.5C1078.46 53.6875 1079.37 53.2812 1080.52 53.2812C1081.59 53.2812 1082.44 53.6354 1083.06 54.3438C1083.69 55.0469 1084 55.9766 1084 57.1328V57.9531H1078.1C1078.13 58.9583 1078.38 59.7214 1078.86 60.2422C1079.34 60.763 1080.02 61.0234 1080.9 61.0234C1081.82 61.0234 1082.73 60.8307 1083.63 60.4453V61.6016C1083.17 61.7995 1082.74 61.9401 1082.33 62.0234C1081.92 62.112 1081.43 62.1562 1080.85 62.1562ZM1080.5 54.3672C1079.81 54.3672 1079.26 54.5911 1078.85 55.0391C1078.45 55.487 1078.21 56.1068 1078.13 56.8984H1082.61C1082.61 56.0807 1082.43 55.4557 1082.06 55.0234C1081.7 54.5859 1081.18 54.3672 1080.5 54.3672ZM1091.99 54.5469H1089.21V62H1087.91V54.5469H1085.16V53.4375H1091.99V54.5469ZM1094.98 56.9766H1097.32C1098.41 56.9766 1099.21 57.1797 1099.73 57.5859C1100.26 57.987 1100.52 58.5885 1100.52 59.3906C1100.52 60.25 1100.24 60.901 1099.69 61.3438C1099.14 61.7812 1098.32 62 1097.24 62H1093.69V53.4375H1094.98V56.9766ZM1103.26 62H1101.96V53.4375H1103.26V62ZM1094.98 58.0938V60.9141H1097.18C1098.55 60.9141 1099.24 60.4323 1099.24 59.4688C1099.24 58.9896 1099.08 58.6406 1098.77 58.4219C1098.45 58.2031 1097.91 58.0938 1097.14 58.0938H1094.98Z" fill="black"/>
</svg>
